<svg width="345" height="214" viewBox="0 0 345 214" fill="none" xmlns="http://www.w3.org/2000/svg">
<g clip-path="url(#clip0_1419_4116)">
<path d="M328.496 213.506C308.94 213.506 24.0697 213.576 23.9047 213.066L23.8772 213.002C23.8628 212.971 23.8531 212.939 23.8484 212.906C23.7396 212.652 -20.0428 141 48.0238 91.1213C74.6563 71.6061 46.3565 58.7213 67.5352 37.0008C91.873 12.0332 118.435 39.653 145.5 28.3315C150.281 26.3332 155.079 23.1163 159.883 18.1801C162.56 15.4368 165.523 12.9894 168.723 10.8801C169.209 10.5578 169.7 10.2433 170.196 9.93667C172.099 8.76519 174.067 7.70211 176.09 6.7525C177.454 6.11392 178.842 5.52295 180.255 4.97958C182.515 4.11326 184.82 3.36706 187.159 2.74411C190.542 1.84541 193.982 1.17432 197.455 0.735331C198.986 0.537903 200.529 0.381096 202.085 0.26491C232.33 -2.0007 266.369 10.7176 283.92 29.3077C287.456 33.0501 303.533 52.4198 290.861 79.0424C282.859 95.8504 316.382 111.904 328.294 131.098C358.585 179.898 328.771 212.871 328.496 213.506Z" fill="#EBF3FA"/>
<g opacity="0.8">
<path d="M153.171 83.8745C153.172 86.4672 152.94 89.0547 152.477 91.6057C151.403 97.5072 149.097 103.116 145.709 108.065C137.982 119.364 125.003 126.78 110.288 126.78C92.7847 126.78 77.7304 116.289 71.0664 101.247C70.1799 99.2502 69.4499 97.1871 68.883 95.0768C67.0996 88.4378 66.9267 81.4686 68.3788 74.7492C68.3788 74.7151 68.3932 74.6824 68.3997 74.6483C70.6719 64.3786 76.6263 55.2977 85.1371 49.1225C86.019 48.4831 86.9262 47.8768 87.8587 47.3037C94.6025 43.1502 102.369 40.9573 110.288 40.9708C111.379 40.9708 112.459 41.0114 113.53 41.0926C121.159 41.6569 128.495 44.2658 134.768 48.6455C139.466 51.9183 143.465 56.0954 146.53 60.9328C147.186 61.9706 147.797 63.0372 148.364 64.1327C151.528 70.2312 153.174 77.0035 153.163 83.8745H153.171Z" fill="#D7E5FF"/>
<path d="M95.72 64.6699C94.0042 67.381 96.4338 72.0892 91.3009 70.8076C86.168 69.5261 83.0285 68.9495 82.7404 71.8022C82.4522 74.6548 86.5911 74.6575 86.5911 77.6529C86.5911 80.6484 84.7364 81.6404 81.8851 80.2173C79.0338 78.7943 78.2178 76.7252 74.8963 78.0094C71.5747 79.2935 69.6572 78.4365 68.9068 75.8682C68.7933 75.4669 68.6136 75.0873 68.375 74.7452C68.375 74.7112 68.3894 74.6784 68.396 74.6444C70.67 64.3755 76.6258 55.2961 85.1372 49.1225C86.0191 48.483 86.9263 47.8768 87.8589 47.3037C89.1961 47.3522 90.794 47.8593 92.1562 49.5457C95.1503 53.2567 97.1463 51.4012 96.4338 55.6821C95.7213 59.9631 96.8621 60.5305 99.2852 60.3903C101.708 60.2501 104.562 60.2461 104.848 62.1016C105.133 63.9571 97.4306 61.9588 95.72 64.6699Z" fill="#AEC3FF"/>
<path d="M96.0193 84.4824C96.0193 84.4824 93.4325 87.4963 91.202 85.764C88.9715 84.0317 89.646 82.9532 86.3795 84.0421C83.113 85.1311 81.6762 83.3293 80.0023 84.6908C78.3284 86.0522 79.6866 86.2226 78.5288 89.1093C77.371 91.996 74.9781 92.4586 76.8261 95.3401C78.6742 98.2215 82.1162 96.7395 83.9289 98.2635C85.7416 99.7874 85.1496 101.277 87.4116 101.9C89.6735 102.522 91.8359 100.317 91.8805 103.05C91.925 105.784 91.0514 108.454 93.8647 110.996C96.6781 113.538 96.1502 114.112 99.0422 115.351C101.934 116.589 105.391 115.472 104.952 113.734C104.513 111.995 100.785 111.645 100.712 109.682C100.639 107.719 102.62 107.883 101.827 105.358C101.033 102.833 103.25 101.471 102.501 99.8385C101.752 98.2058 97.4783 97.6489 97.976 96.0044C98.4737 94.3599 102.339 95.7541 102.55 92.2778C102.761 88.8014 100.413 87.5605 100.761 84.1719C101.108 80.7833 96.4161 82.399 96.0193 84.4824Z" fill="#AEC3FF"/>
<path d="M153.171 83.8747C153.172 86.4673 152.94 89.0548 152.477 91.6058C151.403 97.5073 149.097 103.116 145.709 108.065C144.593 108.449 143.375 108.417 142.28 107.973C136.933 105.834 140.889 100.055 143.029 97.1657C145.17 94.2763 139.713 95.5618 135.756 92.886C131.8 90.2103 136.183 83.0413 132.119 84.2193C128.055 85.3973 123.136 86.8937 120.783 82.9352C118.431 78.9766 122.922 78.3332 120.889 75.0167C118.857 71.7001 122.068 69.7752 126.128 69.4529C130.189 69.1305 129.657 66.2425 134.684 65.814C139.71 65.3855 139.604 71.8063 145.162 71.3791C150.719 70.9519 150.473 72.2348 150.473 72.2348C150.874 72.2249 151.271 72.3083 151.634 72.4785C152.655 76.1912 153.171 80.0242 153.171 83.8747Z" fill="#AEC3FF"/>
<path d="M148.372 64.1326C143.747 66.3838 141.891 60.2618 137.938 62.1016C133.953 63.9571 134.651 60.3903 131.521 58.1063C128.39 55.8223 122.109 59.9618 122.394 56.3937C122.68 52.8256 127.384 53.8267 128.382 50.974C129.38 48.1214 133.945 48.8329 133.945 48.8329C134.211 48.7322 134.49 48.6691 134.774 48.6455C139.472 51.9182 143.471 56.0954 146.537 60.9327C147.19 61.9706 147.802 63.0372 148.372 64.1326Z" fill="#AEC3FF"/>
<path d="M109.409 51.8295C109.409 51.8295 111.834 48.3296 107.984 47.297C104.135 46.2644 104.204 47.6167 101.21 47.297C98.2163 46.9773 97.0388 49.2966 99.285 51.8295C101.531 54.3624 103.345 59.2213 105.382 56.6307C107.419 54.0401 107.022 52.0785 109.409 51.8295Z" fill="#AEC3FF"/>
</g>
<path d="M109.259 123.836H108.141C108.141 115.343 108.141 106.64 108.141 98.2274C108.141 84.2971 108.06 69.9003 108.239 55.8253C108.353 54.1389 108.986 52.5279 110.051 51.2103C111.117 49.8927 112.565 48.932 114.198 48.4581C118.199 47.332 182.316 47.4446 242.141 47.6377C258.336 47.6377 270.061 47.7342 271.616 47.6377V48.7315C269.997 48.7315 258.32 48.7315 242.092 48.7315C198.964 48.5867 118.685 48.3133 114.49 49.5036C113.072 49.9248 111.819 50.7673 110.898 51.9178C109.977 53.0682 109.433 54.4712 109.34 55.9379C109.178 69.9969 109.21 84.3936 109.259 98.3078C109.259 106.624 109.275 115.326 109.259 123.836Z" fill="#1D53A5"/>
<path d="M104.212 120.094H103.097C103.097 111.956 103.097 103.655 103 95.6794C102.871 82.2674 102.742 68.3997 103.259 54.7599C103.584 51.6364 105.018 48.7367 107.298 46.5951C109.577 44.4534 112.547 43.2142 115.662 43.1058C121.75 43.1058 264.739 43.1058 269.745 43.0244V44.1475C264.9 44.1475 131.036 44.1475 115.662 44.1475C112.828 44.266 110.131 45.403 108.057 47.3526C105.983 49.3022 104.671 51.9356 104.357 54.7762C103.84 68.3834 103.969 82.2348 104.098 95.6305C104.212 103.655 104.212 111.94 104.212 120.094Z" fill="#1D53A5"/>
<path d="M99.1277 115.231H98.0215C98.0215 94.5485 98.0215 73.5237 98.0215 53.2493V53.1352C98.7877 48.9372 100.901 45.1053 104.041 42.2232C106.099 40.2587 108.747 39.0315 111.573 38.7326C115.005 37.9823 156.342 37.8192 190.488 37.7866C229.027 37.7866 266.622 37.9497 269.371 38.0149V39.1241C260.977 38.9447 117.462 38.4717 111.833 39.8255C109.226 40.1112 106.787 41.2589 104.903 43.0877C101.958 45.7964 99.9712 49.3914 99.2416 53.3309C99.1765 73.5727 99.1765 94.5648 99.1277 115.231Z" fill="#1D53A5"/>
<path d="M114.113 130.107L107.544 208.24C107.544 208.24 106.857 212.982 110.377 212.982C116.168 212.995 139.192 212.982 139.192 212.982C139.192 212.982 134.835 211.996 134.887 209.778C134.948 207.157 142.563 129.365 142.563 129.365L114.113 130.107Z" fill="#7599EA"/>
<path d="M141.364 211.598C140.224 211.598 117.931 211.639 112.287 211.567C109.83 211.537 109.406 209.381 109.378 207.987C109.371 207.598 109.396 207.209 109.453 206.823L109.624 204.792L110.059 199.616L110.444 195.043L110.938 189.168L111.355 184.208L116.021 128.688L144.476 127.95C144.476 127.95 141.269 160.507 139.001 184.208C138.747 186.848 138.507 189.38 138.284 191.744C138.211 192.499 138.143 193.236 138.075 193.954C137.864 196.196 137.671 198.255 137.505 200.074C137.416 201.032 137.335 201.923 137.261 202.738C136.972 205.934 136.803 207.979 136.8 208.363C136.799 208.575 136.817 208.787 136.855 208.996C137.328 211.486 140.937 211.598 141.364 211.598Z" fill="#90AFF4"/>
<path d="M45.0078 87.5898L61.0078 151.884L63.1977 160.69L70.6489 190.635H209.086L181.622 87.5898H45.0078Z" fill="#AEC3FF"/>
<path d="M45.0065 87.5898L42.7891 88.3289L67.7006 192.872L70.6475 190.635L45.0065 87.5898Z" fill="#90AFF4"/>
<path d="M67.7012 192.872H205.286L209.085 190.635H70.6481L67.7012 192.872Z" fill="#7599EA"/>
<path d="M116.016 213.015H145.805V211.598H116.016V213.015Z" fill="#AEC3FF"/>
<path d="M138.233 192.871L138.08 193.954L110.064 199.616L110.45 195.043L110.632 192.871H138.233Z" fill="#5888DD"/>
<path opacity="0.4" d="M141.362 211.598C140.223 211.598 117.93 211.639 112.286 211.567C109.829 211.536 109.404 209.381 109.377 207.987L137.26 202.737C136.971 205.933 136.802 207.979 136.799 208.363C136.797 208.575 136.816 208.787 136.854 208.996C137.327 211.485 140.935 211.598 141.362 211.598Z" fill="#5888DD"/>
<path d="M45.0078 87.5898H181.62L203.787 170.406H65.6155L45.0078 87.5898Z" fill="#C2D5FF"/>
<path d="M197.343 166.817H69.4322L64.8611 148.6L63.093 141.55L62.3713 138.677L57.6732 119.956L57.4309 118.981L54.9476 109.085L53.8356 104.657L52.8887 100.879L50.666 92.0254H176.734L179.174 100.879L180.214 104.657L181.434 109.085L189.472 138.255V138.256L190.153 140.728L190.47 141.875L196.02 162.013L197.343 166.817Z" fill="#739AF0"/>
<path d="M179.172 100.881H52.8874L50.666 92.0254H176.734L179.172 100.881Z" fill="#607CF4"/>
<path d="M55.8821 96.0272C55.7289 95.4165 56.1009 94.9199 56.7125 94.9199C57.0299 94.9359 57.3342 95.0515 57.5822 95.2502C57.8302 95.449 58.0094 95.7208 58.0943 96.0272C58.2475 96.6391 57.8756 97.1344 57.2639 97.1344C56.9464 97.1188 56.6419 97.0034 56.3938 96.8046C56.1457 96.6058 55.9667 96.3337 55.8821 96.0272Z" fill="#E9F3FE"/>
<path d="M59.5579 96.0272C59.4047 95.4165 59.7766 94.9199 60.3883 94.9199C60.7057 94.9359 61.01 95.0515 61.258 95.2502C61.506 95.449 61.6852 95.7208 61.7701 96.0272C61.922 96.6391 61.55 97.1344 60.9397 97.1344C60.6222 97.119 60.3176 97.0037 60.0694 96.8049C59.8213 96.606 59.6423 96.3338 59.5579 96.0272Z" fill="#E9F3FE"/>
<path d="M63.5164 96.0272C63.3645 95.4165 63.7364 94.9199 64.3468 94.9199C64.6642 94.9357 64.9686 95.0512 65.2167 95.25C65.4647 95.4487 65.6439 95.7207 65.7286 96.0272C65.8818 96.6391 65.5098 97.1344 64.8982 97.1344C64.5807 97.1188 64.2762 97.0034 64.0281 96.8046C63.78 96.6058 63.6009 96.3337 63.5164 96.0272Z" fill="#E9F3FE"/>
<path opacity="0.5" d="M117.518 170.406L70.6958 190.876L65.6152 170.406H117.518Z" fill="#90AFF4"/>
<path d="M154.872 23.1118C153.744 23.5337 153.018 24.5099 153.018 25.5857V49.4552C153.018 54.3402 155.335 58.9134 159.219 61.6979L173.234 70.6843C173.704 70.9773 174.246 71.1325 174.8 71.1325C175.354 71.1325 175.897 70.9773 176.367 70.6843L190.381 61.6979C194.266 58.9134 196.583 54.3402 196.583 49.4552V25.6486C196.583 24.5414 195.81 23.5455 194.635 23.1419C177.608 17.3108 170.784 17.1549 154.87 23.1118H154.872Z" fill="#F99746"/>
<path d="M263.266 17.3087C254.978 14.4705 249.107 12.9845 243.43 12.8823V65.3046C243.986 65.3081 244.531 65.1526 245.001 64.8564L259.016 55.87C262.9 53.0855 265.217 48.5123 265.217 43.6273V19.8154C265.217 18.7082 264.445 17.7123 263.27 17.3087H263.266Z" fill="#F78248"/>
<path d="M176.391 39.4747H173.203C171.828 39.4733 170.51 38.9265 169.538 37.9542C168.566 36.9819 168.019 35.6635 168.018 34.2883V33.6672C168.019 32.2918 168.566 30.9731 169.538 30.0005C170.51 29.0279 171.828 28.4809 173.203 28.4795H176.391C177.766 28.4809 179.084 29.0279 180.056 30.0005C181.028 30.9731 181.575 32.2918 181.576 33.6672V34.2883C181.574 35.6635 181.027 36.9819 180.055 37.9542C179.083 38.9265 177.765 39.4733 176.391 39.4747ZM173.203 30.5538C172.378 30.5548 171.587 30.8832 171.004 31.4668C170.42 32.0505 170.092 32.8418 170.091 33.6672V34.2883C170.092 35.1136 170.42 35.9048 171.004 36.4882C171.587 37.0717 172.378 37.3997 173.203 37.4004H176.391C177.216 37.3997 178.007 37.0717 178.59 36.4882C179.174 35.9048 179.502 35.1136 179.503 34.2883V33.6672C179.502 32.8418 179.174 32.0505 178.59 31.4668C178.007 30.8832 177.216 30.5548 176.391 30.5538H173.203Z" fill="#FFDAA4"/>
<path d="M166.499 35.0439H182.401C182.82 35.0434 183.235 35.1255 183.622 35.2856C184.009 35.4457 184.361 35.6805 184.657 35.9767C184.954 36.2729 185.189 36.6247 185.349 37.0119C185.51 37.3991 185.592 37.8142 185.592 38.2334V43.3556C185.592 46.1288 184.491 48.7885 182.531 50.7495C180.571 52.7105 177.913 53.8122 175.141 53.8122C172.19 53.8122 169.36 52.6396 167.274 50.5523C165.188 48.4649 164.016 45.6339 164.016 42.682V37.5336C164.016 36.8742 164.277 36.2418 164.743 35.775C165.208 35.3083 165.84 35.0453 166.499 35.0439Z" fill="#FFDAA4"/>
<path d="M175.896 43.4843C177.362 42.9698 178.134 41.3635 177.62 39.8966C177.105 38.4298 175.5 37.6578 174.034 38.1723C172.567 38.6869 171.796 40.2931 172.31 41.76C172.824 43.2268 174.43 43.9988 175.896 43.4843Z" fill="#F78248"/>
<path d="M174.963 42.1416C175.124 42.1423 175.279 42.2069 175.393 42.3213C175.507 42.4357 175.571 42.5906 175.572 42.7522V47.442C175.571 47.6035 175.507 47.7583 175.393 47.8725C175.279 47.9867 175.124 48.051 174.963 48.0513C174.801 48.051 174.646 47.9867 174.532 47.8725C174.418 47.7583 174.354 47.6035 174.354 47.442V42.7509C174.354 42.5895 174.419 42.4349 174.533 42.3208C174.647 42.2067 174.801 42.1423 174.963 42.1416Z" fill="#F78248"/>
<path d="M34.3785 125.553C34.418 125.593 34.4449 125.644 34.4557 125.699C34.4665 125.754 34.4608 125.811 34.4392 125.863C34.4176 125.915 34.3812 125.959 34.3345 125.99C34.2878 126.021 34.2329 126.038 34.1768 126.038C34.1207 126.038 34.0658 126.021 34.0191 125.99C33.9724 125.959 33.936 125.915 33.9144 125.863C33.8928 125.811 33.8871 125.754 33.8979 125.699C33.9087 125.644 33.9356 125.593 33.9751 125.553C34.0286 125.5 34.1012 125.47 34.1768 125.47C34.2524 125.47 34.325 125.5 34.3785 125.553Z" fill="#D5E5FB"/>
<path d="M33.4508 126.49C33.4903 126.53 33.5172 126.581 33.528 126.636C33.5388 126.691 33.533 126.748 33.5114 126.8C33.4899 126.852 33.4534 126.896 33.4067 126.927C33.3601 126.958 33.3052 126.975 33.2491 126.975C33.1929 126.975 33.1381 126.958 33.0914 126.927C33.0447 126.896 33.0083 126.852 32.9867 126.8C32.9651 126.748 32.9594 126.691 32.9702 126.636C32.981 126.581 33.0078 126.53 33.0474 126.49C33.0738 126.464 33.1052 126.443 33.1398 126.428C33.1744 126.414 33.2116 126.406 33.2491 126.406C33.2866 126.406 33.3237 126.414 33.3583 126.428C33.3929 126.443 33.4243 126.464 33.4508 126.49Z" fill="#D5E5FB"/>
<path d="M32.1087 127.442C32.1485 127.402 32.1991 127.375 32.2542 127.364C32.3094 127.353 32.3665 127.359 32.4184 127.38C32.4703 127.402 32.5147 127.438 32.5459 127.485C32.5772 127.532 32.5938 127.587 32.5938 127.643C32.5938 127.699 32.5772 127.754 32.5459 127.801C32.5147 127.847 32.4703 127.884 32.4184 127.905C32.3665 127.927 32.3094 127.933 32.2542 127.922C32.1991 127.911 32.1485 127.884 32.1087 127.844C32.0823 127.817 32.0613 127.786 32.047 127.752C32.0328 127.717 32.0254 127.68 32.0254 127.643C32.0254 127.605 32.0328 127.568 32.047 127.534C32.0613 127.499 32.0823 127.468 32.1087 127.442Z" fill="#D5E5FB"/>
<path d="M31.5719 128.388C31.6114 128.428 31.6383 128.478 31.6491 128.533C31.6599 128.588 31.6541 128.645 31.6325 128.697C31.611 128.749 31.5745 128.793 31.5278 128.825C31.4811 128.856 31.4263 128.872 31.3702 128.872C31.314 128.872 31.2592 128.856 31.2125 128.825C31.1658 128.793 31.1293 128.749 31.1078 128.697C31.0862 128.645 31.0804 128.588 31.0912 128.533C31.102 128.478 31.1289 128.428 31.1685 128.388C31.222 128.334 31.2945 128.304 31.3702 128.304C31.4458 128.304 31.5183 128.334 31.5719 128.388Z" fill="#D5E5FB"/>
<path d="M30.6435 129.325C30.6835 129.365 30.7107 129.415 30.7218 129.471C30.7328 129.526 30.7272 129.584 30.7056 129.636C30.684 129.688 30.6474 129.733 30.6005 129.764C30.5535 129.796 30.4983 129.812 30.4418 129.812C30.3853 129.812 30.3301 129.796 30.2831 129.764C30.2361 129.733 30.1995 129.688 30.1779 129.636C30.1563 129.584 30.1507 129.526 30.1618 129.471C30.1728 129.415 30.2001 129.365 30.2401 129.325C30.2938 129.271 30.3663 129.242 30.4418 129.242C30.5173 129.242 30.5898 129.271 30.6435 129.325Z" fill="#D5E5FB"/>
<path d="M29.304 130.276C29.3438 130.236 29.3944 130.209 29.4496 130.198C29.5047 130.187 29.5618 130.193 29.6137 130.215C29.6657 130.236 29.71 130.273 29.7413 130.319C29.7725 130.366 29.7891 130.421 29.7891 130.477C29.7891 130.533 29.7725 130.588 29.7413 130.635C29.71 130.682 29.6657 130.718 29.6137 130.74C29.5618 130.761 29.5047 130.767 29.4496 130.756C29.3944 130.745 29.3438 130.718 29.304 130.678C29.2776 130.652 29.2567 130.621 29.2424 130.586C29.2281 130.552 29.2207 130.515 29.2207 130.477C29.2207 130.44 29.2281 130.403 29.2424 130.368C29.2567 130.334 29.2776 130.302 29.304 130.276Z" fill="#D5E5FB"/>
<path d="M28.8017 131.185C28.8414 131.225 28.8684 131.276 28.8794 131.331C28.8903 131.386 28.8847 131.443 28.8632 131.495C28.8417 131.547 28.8052 131.592 28.7585 131.623C28.7118 131.654 28.6568 131.671 28.6006 131.671C28.5444 131.671 28.4895 131.654 28.4427 131.623C28.396 131.592 28.3596 131.547 28.3381 131.495C28.3165 131.443 28.3109 131.386 28.3219 131.331C28.3328 131.276 28.3599 131.225 28.3996 131.185C28.426 131.159 28.4573 131.138 28.4918 131.124C28.5263 131.109 28.5633 131.102 28.6006 131.102C28.638 131.102 28.6749 131.109 28.7094 131.124C28.7439 131.138 28.7753 131.159 28.8017 131.185Z" fill="#D5E5FB"/>
<path d="M27.8739 132.121C27.9137 132.161 27.9407 132.211 27.9517 132.267C27.9626 132.322 27.957 132.379 27.9355 132.431C27.9139 132.483 27.8775 132.527 27.8308 132.558C27.784 132.59 27.7291 132.606 27.6729 132.606C27.6167 132.606 27.5617 132.59 27.515 132.558C27.4683 132.527 27.4318 132.483 27.4103 132.431C27.3888 132.379 27.3832 132.322 27.3941 132.267C27.4051 132.211 27.4321 132.161 27.4718 132.121C27.5253 132.068 27.5976 132.038 27.6729 132.038C27.7482 132.038 27.8205 132.068 27.8739 132.121Z" fill="#D5E5FB"/>
<path d="M26.5307 133.072C26.5705 133.033 26.6212 133.006 26.6763 132.995C26.7313 132.984 26.7884 132.99 26.8402 133.012C26.892 133.033 26.9363 133.07 26.9674 133.116C26.9985 133.163 27.0152 133.218 27.0152 133.274C27.0152 133.33 26.9985 133.385 26.9674 133.432C26.9363 133.479 26.892 133.515 26.8402 133.537C26.7884 133.558 26.7313 133.564 26.6763 133.553C26.6212 133.542 26.5705 133.515 26.5307 133.476C26.4773 133.422 26.4473 133.35 26.4473 133.274C26.4473 133.198 26.4773 133.126 26.5307 133.072Z" fill="#D5E5FB"/>
<path d="M25.995 134.019C26.0348 134.059 26.0618 134.11 26.0728 134.165C26.0837 134.22 26.0781 134.277 26.0565 134.329C26.035 134.381 25.9986 134.426 25.9519 134.457C25.9051 134.488 25.8502 134.505 25.794 134.505C25.7378 134.505 25.6828 134.488 25.6361 134.457C25.5894 134.426 25.5529 134.381 25.5314 134.329C25.5099 134.277 25.5043 134.22 25.5152 134.165C25.5262 134.11 25.5532 134.059 25.5929 134.019C25.6193 133.993 25.6507 133.972 25.6852 133.958C25.7197 133.943 25.7566 133.936 25.794 133.936C25.8313 133.936 25.8683 133.943 25.9028 133.958C25.9373 133.972 25.9686 133.993 25.995 134.019Z" fill="#D5E5FB"/>
<path d="M25.0673 134.956C25.107 134.996 25.1341 135.047 25.145 135.102C25.156 135.157 25.1503 135.214 25.1288 135.266C25.1073 135.318 25.0709 135.363 25.0241 135.394C24.9774 135.425 24.9225 135.442 24.8662 135.442C24.81 135.442 24.7551 135.425 24.7084 135.394C24.6616 135.363 24.6252 135.318 24.6037 135.266C24.5822 135.214 24.5765 135.157 24.5875 135.102C24.5984 135.047 24.6255 134.996 24.6652 134.956C24.7187 134.903 24.7909 134.874 24.8662 134.874C24.9416 134.874 25.0138 134.903 25.0673 134.956Z" fill="#D5E5FB"/>
<path d="M23.7241 135.907C23.7639 135.867 23.8145 135.84 23.8696 135.83C23.9247 135.819 23.9817 135.824 24.0335 135.846C24.0854 135.868 24.1296 135.904 24.1608 135.951C24.1919 135.998 24.2085 136.052 24.2085 136.109C24.2085 136.165 24.1919 136.22 24.1608 136.266C24.1296 136.313 24.0854 136.349 24.0335 136.371C23.9817 136.393 23.9247 136.398 23.8696 136.388C23.8145 136.377 23.7639 136.35 23.7241 136.31C23.6706 136.257 23.6406 136.184 23.6406 136.109C23.6406 136.033 23.6706 135.96 23.7241 135.907Z" fill="#D5E5FB"/>
<path d="M47.5178 119.683C48.0666 116.285 45.7586 113.086 42.3628 112.537C38.9669 111.988 35.7691 114.297 35.2203 117.694C34.6715 121.092 36.9794 124.291 40.3753 124.84C43.7712 125.389 46.969 123.08 47.5178 119.683Z" fill="#C6DCF7"/>
<path d="M39.0762 116.765C39.0762 116.37 39.1931 115.985 39.4121 115.657C39.6312 115.329 39.9425 115.073 40.3068 114.922C40.671 114.771 41.0718 114.732 41.4585 114.809C41.8452 114.886 42.2004 115.076 42.4792 115.355C42.758 115.634 42.9478 115.989 43.0248 116.376C43.1017 116.763 43.0622 117.164 42.9113 117.528C42.7604 117.893 42.5049 118.204 42.1771 118.423C41.8493 118.642 41.4639 118.759 41.0696 118.759C40.5409 118.759 40.0339 118.549 39.66 118.175C39.2862 117.801 39.0762 117.294 39.0762 116.765Z" fill="#EBF3FA"/>
<path d="M41.0699 118.759C40.6119 118.759 40.1583 118.85 39.7352 119.025C39.312 119.2 38.9275 119.457 38.6036 119.781C38.2797 120.105 38.0228 120.49 37.8475 120.913C37.6722 121.337 37.582 121.791 37.582 122.249H44.5578C44.5578 121.791 44.4676 121.337 44.2923 120.913C44.117 120.49 43.8601 120.105 43.5362 119.781C43.2123 119.457 42.8278 119.2 42.4047 119.025C41.9815 118.85 41.5279 118.759 41.0699 118.759Z" fill="#EBF3FA"/>
<path d="M18.5832 138.433L18.354 137.863C18.2337 137.565 18.0273 137.309 17.7611 137.129C17.4949 136.948 17.181 136.851 16.8595 136.85H12.6094V151.052H30.1719V139.545H20.2335C19.879 139.545 19.5325 139.439 19.2385 139.241C18.9446 139.043 18.7164 138.762 18.5832 138.433Z" fill="#C6DCF7"/>
<path d="M24.018 143.335H23.4313C23.4486 143.238 23.4574 143.14 23.4575 143.041V142.84C23.4568 142.395 23.2798 141.968 22.9653 141.654C22.6508 141.339 22.2244 141.162 21.7797 141.161H20.7476C20.3028 141.162 19.8765 141.339 19.562 141.654C19.2475 141.968 19.0705 142.395 19.0698 142.84V143.041C19.0699 143.14 19.0787 143.238 19.096 143.335H18.4411C18.36 143.335 18.2797 143.351 18.2047 143.382C18.1298 143.413 18.0617 143.459 18.0044 143.516C17.9471 143.574 17.9017 143.642 17.8708 143.717C17.8399 143.792 17.824 143.872 17.8242 143.954V146.648C17.8242 147.38 18.115 148.082 18.6325 148.6C19.15 149.118 19.852 149.409 20.5839 149.409H22.2132C22.5538 149.409 22.8911 149.342 23.2058 149.211C23.5205 149.081 23.8065 148.89 24.0473 148.649C24.2882 148.408 24.4792 148.122 24.6095 147.807C24.7397 147.492 24.8067 147.155 24.8065 146.814V144.126C24.8072 144.023 24.7873 143.92 24.748 143.823C24.7086 143.727 24.6506 143.64 24.5773 143.566C24.504 143.493 24.4168 143.434 24.3208 143.395C24.2248 143.355 24.1219 143.335 24.018 143.335ZM21.5151 146.046V147.298C21.5183 147.325 21.5156 147.353 21.5072 147.38C21.4988 147.407 21.4849 147.431 21.4663 147.452C21.4478 147.473 21.425 147.489 21.3996 147.501C21.3741 147.512 21.3465 147.518 21.3186 147.518C21.2908 147.518 21.2632 147.512 21.2377 147.501C21.2123 147.489 21.1895 147.473 21.171 147.452C21.1524 147.431 21.1385 147.407 21.1301 147.38C21.1217 147.353 21.119 147.325 21.1222 147.298V146.046C20.9032 145.998 20.7097 145.87 20.579 145.688C20.4482 145.505 20.3894 145.281 20.4137 145.058C20.4381 144.835 20.5439 144.629 20.7109 144.479C20.8779 144.329 21.0943 144.246 21.3186 144.246C21.543 144.246 21.7594 144.329 21.9264 144.479C22.0934 144.629 22.1992 144.835 22.2235 145.058C22.2479 145.281 22.1891 145.505 22.0583 145.688C21.9276 145.87 21.7341 145.998 21.5151 146.046ZM22.7869 143.041C22.7869 143.141 22.7719 143.24 22.7423 143.335H19.7849C19.7554 143.24 19.7404 143.141 19.7404 143.041V142.84C19.7411 142.573 19.8475 142.317 20.0362 142.128C20.225 141.94 20.4808 141.834 20.7476 141.833H21.7797C22.0465 141.834 22.3023 141.94 22.491 142.128C22.6798 142.317 22.7862 142.573 22.7869 142.84V143.041Z" fill="#EBF3FA"/>
<path d="M72.0008 213.164H6.3324C-2.82278 202.638 -2.44295 189.823 10.0482 178.185C12.2905 176.097 16.204 173.848 19.3671 173.095C25.1915 171.704 31.7979 171.391 31.8503 171.356C31.8687 171.356 39.1941 170.328 41.2805 167.786C47.7704 159.889 49.439 158.759 49.439 158.759C56.0533 157.466 61.697 157.086 65.879 159.426C69.7546 161.598 72.378 166.109 73.3603 174.389C73.5463 175.962 73.6747 177.657 73.7402 179.5C73.9799 186.223 75.2988 192.21 76.082 197.267C77.2215 204.611 78.0257 210.19 72.0008 213.164Z" fill="#F99746"/>
<path d="M62.6045 167.824C58.5901 170.013 58.1513 177.218 51.8645 179.079C45.5777 180.94 34.9176 180.771 28.8692 187.334C23.0329 193.668 16.5955 177.554 19.3669 173.022C25.1927 171.639 31.7991 171.319 31.8515 171.291C31.8698 171.284 40.8115 171.248 42.9006 168.718C49.3904 160.856 49.4428 158.751 49.4428 158.751C56.057 157.465 61.7008 157.086 65.8828 159.416C70.4918 164.183 66.6189 165.637 62.6045 167.824Z" fill="#ED7D2B"/>
<path d="M76.0854 197.092C66.8726 185.587 47.948 201.272 43.0495 200.83C38.5466 200.422 51.8249 184.698 68.3042 182.354C74.963 181.407 73.3677 174.523 73.3651 174.311C73.5511 175.87 73.6781 177.564 73.7449 179.403C73.9846 186.099 75.3035 192.051 76.0854 197.092Z" fill="#ED7D2B"/>
<path d="M24.7043 203.356C24.0599 204.6 23.9185 206.885 23.7233 207.659C23.5282 208.434 20.1556 211.066 19.8661 210.935C19.1274 210.601 19.8334 209.314 20.2839 208.374C20.3022 208.336 20.3193 208.298 20.3376 208.261C20.7816 207.312 20.3992 205.196 20.6297 204.102C20.8602 203.008 19.7521 200.067 19.7521 200.067L21.6172 197.708C21.6172 197.708 22.927 200.198 23.8661 200.658C24.0293 200.737 24.1827 200.835 24.3232 200.949C24.9584 201.477 25.2335 202.334 24.7043 203.356Z" fill="#FFB27D"/>
<path d="M49.7019 140.671C47.9033 140.837 46.2163 141.616 44.9227 142.878C44.0988 143.664 43.1846 144.746 42.6201 146.035C41.3903 148.845 41.8133 152.114 41.11 153.907C40.4066 155.699 39.9849 156.013 41.11 156.825C42.235 157.637 42.4197 158.411 41.0785 159.271C39.7373 160.132 38.7419 162.809 42.4944 163.048C46.2468 163.286 53.5186 161.918 54.4537 161.224C55.3889 160.529 57.9429 159.498 59.1688 157.641C61.6168 153.928 59.6665 151.434 57.7766 150.805C54.8938 149.85 55.9534 140.147 49.7019 140.671Z" fill="#163560"/>
<path d="M44.774 156.224C44.774 156.224 41.0543 164.626 40.2789 165.357C39.5036 166.088 35.8742 167.515 36.2004 168.739C36.5265 169.963 39.2599 171.146 40.4007 170.86C41.5415 170.575 44.4387 165.639 44.4387 165.639L44.774 156.224Z" fill="#739AF0"/>
<path d="M36.5059 169.478C36.5059 169.478 36.7063 168.037 40.2321 167.566C42.1889 167.304 45.462 161.849 45.462 161.849L42.1876 170.457L39.0153 171.829L36.5059 169.478Z" fill="#5A7DE0"/>
<path d="M37.9363 172.191C37.9363 172.191 19.5748 170.904 17.0601 173.819C15.0641 176.133 18.6947 201.404 18.6947 201.404C18.6947 201.404 23.6914 201.549 24.0856 200.224C24.0856 200.224 23.1518 187.955 23.9337 185.834C24.7156 183.713 24.2205 180.776 24.2205 180.776C24.2205 180.776 33.9965 182.24 37.098 181.498C40.1995 180.756 37.9363 172.191 37.9363 172.191Z" fill="#233862"/>
<path d="M18.1479 210.635C16.8551 211.168 15.2664 212.822 14.6246 213.29C13.9828 213.757 9.69995 213.592 9.56374 213.304C9.19963 212.544 10.6967 212.003 11.6476 211.565L11.6895 211.546C12.6299 211.071 13.6816 209.255 14.55 208.579C15.4183 207.903 16.4819 204.93 16.4819 204.93L19.4262 204.332C19.4262 204.332 18.8198 207.084 19.2441 208.036C19.2831 208.125 19.3168 208.216 19.345 208.309C19.6174 209.191 19.3201 210.151 18.1479 210.635Z" fill="#FFB27D"/>
<path d="M46.0079 173.086C46.0079 173.086 25.9752 175.124 24.2136 177.169C22.452 179.215 15.5312 205.817 15.5312 205.817C15.5312 205.817 17.5758 206.957 19.4343 205.891C19.4343 205.891 24.7349 196.867 27.0807 194.034C29.4264 191.201 30.2594 183.803 31.5089 183.006C31.8442 182.792 43.632 184.118 47.9542 180.799C52.2764 177.48 46.0079 173.086 46.0079 173.086Z" fill="#2A4E96"/>
<path d="M54.7409 173.124C54.2482 174.078 53.6898 174.998 53.0696 175.875C51.5686 177.972 49.8332 179.471 47.9511 179.861C45.219 180.429 36.0572 175.109 36.5209 172.174C36.7724 170.576 41.8647 167.705 42.6846 166.539C43.5045 165.373 43.9943 159.571 44.4383 157.2C44.7645 155.435 45.8581 155.25 47.2242 154.782C53.0303 152.792 57.1652 154.898 57.1652 154.898C59.8201 156.397 58.344 166.228 54.7409 173.124Z" fill="#739AF0"/>
<path d="M54.462 148.854C54.665 147.882 54.8107 146.898 54.8981 145.908C54.9872 144.822 53.3382 141.281 50.7776 141.428C49.9871 141.615 49.2486 141.977 48.6165 142.487C47.8071 143.151 46.6794 144.529 48.3978 147.86L48.8706 148.993L54.462 148.854Z" fill="#163560"/>
<path d="M49.2714 154.577C49.3552 155.183 49.8948 155.531 51.0985 155.453C52.3021 155.376 54.0441 154.636 53.9 154.074C53.7691 153.581 53.2321 152.424 53.012 149.487L52.7907 149.55L49.0684 150.599C49.0684 150.599 49.2478 151.778 49.3382 152.903C49.4154 153.839 49.2295 154.269 49.2714 154.577Z" fill="#FFB27D"/>
<path d="M49.0684 150.593C49.0684 150.593 49.2478 151.772 49.3382 152.898C51.4495 152.671 52.4161 150.653 52.7907 149.547L49.0684 150.593Z" fill="#F4A269"/>
<path d="M48.9895 152.312C48.9895 152.312 53.8591 151.087 53.0497 148.064C52.2403 145.041 52.3241 142.849 49.1807 143.504C46.0373 144.159 45.7452 145.47 45.7753 146.547C45.8055 147.624 47.702 152.555 48.9895 152.312Z" fill="#FFB27D"/>
<path d="M46.9531 144.027C46.9531 144.027 48.5864 147.143 51.6682 147.48C53.4731 147.676 53.9682 148.866 53.9682 148.866C53.9682 148.866 53.4272 145.459 52.5196 143.383C52.5222 143.383 47.4993 142.07 46.9531 144.027Z" fill="#163560"/>
<path d="M47.5079 144.44C47.5079 144.44 46.4418 145.527 46.113 146.295C45.6258 147.431 46.5754 149.833 46.9683 150.343C46.9683 150.343 44.7024 146.496 45.4595 144.831C46.2637 143.065 47.5079 144.44 47.5079 144.44Z" fill="#163560"/>
<path d="M32.6586 172.492C32.6586 172.492 31.6894 173.519 31.5702 173.574C30.9297 173.874 30.119 173.705 29.7287 173.798C29.3384 173.891 29.4039 173.653 29.6933 173.455C29.9828 173.257 30.6913 173.334 30.4019 173.262C30.1124 173.19 28.5433 172.898 27.954 173.057C27.0188 173.307 26.2814 173.012 26.2238 172.916C26.1661 172.821 28.3561 171.749 28.9834 171.786C29.6108 171.822 31.4091 171.736 31.4091 171.736L32.6586 172.492Z" fill="#FFB27D"/>
<path d="M58.8126 156.796C58.8126 156.796 59.3954 171.079 57.7163 173.087C56.0883 175.029 49.1348 173.712 46.1302 173.059C46.0112 173.041 45.8896 173.049 45.7739 173.082C45.6581 173.115 45.5509 173.173 45.4596 173.252C45.2252 173.463 45.123 171.822 45.123 171.822C45.123 171.822 54.1931 170.494 54.8021 170.322C55.6783 170.074 55.0641 160.232 55.0641 160.232L58.8126 156.796Z" fill="#FFB27D"/>
<path d="M45.8303 172.866C45.8303 172.866 45.0169 173.689 44.7078 174.11C44.3987 174.531 42.2376 175.289 42.1892 175.069C42.1407 174.849 43.1558 174.152 43.2475 173.902C43.3391 173.651 44.4472 172.361 45.123 172.214C45.7989 172.067 45.8303 172.866 45.8303 172.866Z" fill="#FFB27D"/>
<path d="M45.1232 171.822C45.1232 171.822 41.7899 172.593 41.2241 172.825C40.6583 173.057 39.4598 174.754 39.9353 175.009C40.2352 175.169 41.5515 174.474 42.2182 174.33C42.8848 174.186 44.7774 174.514 45.6432 172.804C45.7401 172.611 45.1232 171.822 45.1232 171.822Z" fill="#FFB27D"/>
<path d="M18.1479 210.635C16.8551 211.168 15.2664 212.822 14.6246 213.29C13.9828 213.758 9.69995 213.592 9.56374 213.304C9.19963 212.544 10.6967 212.003 11.6476 211.565L11.6895 211.546L11.8204 211.501C11.8204 211.501 13.6659 212.156 15.1996 211.501C16.3967 210.987 18.1714 209.082 19.3424 208.309C19.6174 209.191 19.3201 210.151 18.1479 210.635Z" fill="#2A4E96"/>
<path d="M24.7043 203.356C24.0599 204.6 23.9185 206.885 23.7233 207.659C23.5282 208.434 20.1556 211.066 19.8661 210.935C19.1274 210.601 19.8334 209.314 20.2839 208.373C20.6554 208.339 21.0112 208.207 21.3147 207.989C22.1582 207.427 23.5897 205.305 23.7168 204.052C23.8216 203.03 23.7561 201.562 24.3232 200.95C24.9584 201.477 25.2335 202.334 24.7043 203.356Z" fill="#193B72"/>
<path d="M40.8241 175.44H26.3081L21.9414 164.576H36.4351L40.8241 175.44Z" fill="#EF8035"/>
<path d="M26.1387 175.016H45.3069V175.44H26.3089L26.1387 175.016Z" fill="#ED7D2B"/>
<path d="M29.9731 170.002C29.8644 169.621 30.0844 169.31 30.4669 169.31C30.6677 169.322 30.8603 169.394 31.0191 169.518C31.1779 169.641 31.2955 169.81 31.3562 170.002C31.4649 170.385 31.2448 170.694 30.8624 170.694C30.6615 170.682 30.4688 170.61 30.31 170.487C30.1511 170.363 30.0336 170.194 29.9731 170.002Z" fill="white"/>
<path d="M54.7409 173.124C54.2482 174.078 53.6898 174.998 53.0696 175.875C48.4161 175.701 47.2949 173.821 47.2949 173.821L54.7409 173.124Z" fill="#5A7DE0"/>
<path d="M47.5078 171.345C47.5078 171.345 52.8189 170.127 53.479 168.987C54.1391 167.847 55.0625 160.237 55.0625 160.237L57.2786 163.079L56.8306 169.762C56.8306 169.762 54.3028 172.264 54.1391 172.173C53.9754 172.083 47.5078 171.345 47.5078 171.345Z" fill="#5A7DE0"/>
<path d="M57.1663 154.901C57.1663 154.901 58.4249 155.534 58.9109 156.423C59.8277 158.11 60.8192 171.19 58.1957 173.351C55.5723 175.512 47.9561 175.081 47.0628 173.55C47.0628 173.55 47.0013 172.117 47.516 171.345C47.516 171.345 54.3713 170.44 54.6777 170.007C54.9842 169.575 54.4551 160.311 54.7799 159.468C55.1047 158.625 57.1663 154.901 57.1663 154.901Z" fill="#739AF0"/>
<path d="M58.3043 173.207C58.3043 173.207 56.3252 175.063 48.0437 175.329C41.5695 175.537 34.7483 178.148 31.5617 182.635C30.6737 183.885 30.0594 185.946 29.825 187.334C29.3915 189.884 45.542 193.848 45.804 193.478C46.0659 193.109 56.4405 184.189 56.4405 184.189L58.3043 173.207Z" fill="#F99746"/>
<path d="M274.525 96.5331C274.482 96.5764 274.452 96.6317 274.44 96.6921C274.428 96.7524 274.434 96.8149 274.457 96.8718C274.48 96.9286 274.52 96.9773 274.571 97.0115C274.622 97.0457 274.683 97.064 274.744 97.064C274.805 97.064 274.866 97.0457 274.917 97.0115C274.968 96.9773 275.008 96.9286 275.031 96.8718C275.054 96.8149 275.06 96.7524 275.048 96.6921C275.036 96.6317 275.006 96.5764 274.963 96.5331C274.905 96.4753 274.826 96.4429 274.744 96.4429C274.662 96.4429 274.583 96.4753 274.525 96.5331Z" fill="#D5E5FB"/>
<path d="M275.537 97.5536C275.493 97.597 275.464 97.6523 275.451 97.7126C275.439 97.7729 275.445 97.8355 275.469 97.8923C275.492 97.9492 275.532 97.9978 275.583 98.0321C275.634 98.0663 275.694 98.0845 275.756 98.0845C275.817 98.0845 275.877 98.0663 275.928 98.0321C275.98 97.9978 276.019 97.9492 276.043 97.8923C276.066 97.8355 276.072 97.7729 276.06 97.7126C276.048 97.6523 276.018 97.597 275.974 97.5536C275.946 97.5249 275.912 97.502 275.874 97.4865C275.837 97.4709 275.796 97.4629 275.756 97.4629C275.715 97.4629 275.675 97.4709 275.637 97.4865C275.6 97.502 275.566 97.5249 275.537 97.5536Z" fill="#D5E5FB"/>
<path d="M276.997 98.5873C276.954 98.5437 276.899 98.5139 276.839 98.5017C276.778 98.4896 276.716 98.4956 276.659 98.519C276.602 98.5425 276.553 98.5823 276.519 98.6334C276.485 98.6845 276.467 98.7446 276.467 98.8062C276.467 98.8677 276.485 98.9278 276.519 98.9789C276.553 99.03 276.602 99.0698 276.659 99.0933C276.716 99.1167 276.778 99.1227 276.839 99.1106C276.899 99.0984 276.954 99.0686 276.997 99.025C277.055 98.9668 277.088 98.8881 277.088 98.8062C277.088 98.7242 277.055 98.6455 276.997 98.5873Z" fill="#D5E5FB"/>
<path d="M277.581 99.6187C277.538 99.6621 277.508 99.7174 277.496 99.7777C277.484 99.8379 277.49 99.9004 277.514 99.9572C277.537 100.014 277.577 100.062 277.628 100.097C277.679 100.131 277.739 100.149 277.801 100.149C277.862 100.149 277.922 100.131 277.973 100.097C278.024 100.062 278.064 100.014 278.087 99.9572C278.111 99.9004 278.117 99.8379 278.105 99.7777C278.093 99.7174 278.063 99.6621 278.02 99.6187C277.962 99.5605 277.883 99.5278 277.801 99.5278C277.718 99.5278 277.639 99.5605 277.581 99.6187Z" fill="#D5E5FB"/>
<path d="M278.591 100.64C278.548 100.683 278.518 100.738 278.506 100.799C278.494 100.859 278.5 100.921 278.524 100.978C278.547 101.035 278.587 101.084 278.638 101.118C278.689 101.152 278.749 101.17 278.81 101.17C278.872 101.17 278.932 101.152 278.983 101.118C279.034 101.084 279.074 101.035 279.097 100.978C279.121 100.921 279.127 100.859 279.115 100.799C279.103 100.738 279.073 100.683 279.03 100.64C279.001 100.611 278.967 100.588 278.929 100.572C278.892 100.556 278.851 100.548 278.81 100.548C278.77 100.548 278.729 100.556 278.692 100.572C278.654 100.588 278.62 100.611 278.591 100.64Z" fill="#D5E5FB"/>
<path d="M280.052 101.675C280.009 101.631 279.954 101.601 279.893 101.589C279.833 101.577 279.77 101.583 279.714 101.606C279.657 101.63 279.608 101.67 279.574 101.721C279.54 101.772 279.521 101.832 279.521 101.894C279.521 101.955 279.54 102.015 279.574 102.066C279.608 102.117 279.657 102.157 279.714 102.181C279.77 102.204 279.833 102.21 279.893 102.198C279.954 102.186 280.009 102.156 280.052 102.112C280.11 102.054 280.142 101.976 280.142 101.894C280.142 101.812 280.11 101.733 280.052 101.675Z" fill="#D5E5FB"/>
<path d="M280.596 102.664C280.552 102.707 280.522 102.763 280.51 102.823C280.498 102.883 280.504 102.946 280.527 103.003C280.551 103.06 280.591 103.108 280.642 103.142C280.693 103.177 280.753 103.195 280.814 103.195C280.876 103.195 280.936 103.177 280.987 103.142C281.038 103.108 281.078 103.06 281.101 103.003C281.125 102.946 281.131 102.883 281.119 102.823C281.106 102.763 281.077 102.707 281.033 102.664C280.975 102.606 280.896 102.574 280.814 102.574C280.732 102.574 280.654 102.606 280.596 102.664Z" fill="#D5E5FB"/>
<path d="M281.605 103.683C281.562 103.727 281.532 103.782 281.52 103.842C281.508 103.903 281.514 103.965 281.537 104.022C281.561 104.079 281.6 104.128 281.651 104.162C281.703 104.196 281.763 104.214 281.824 104.214C281.886 104.214 281.946 104.196 281.997 104.162C282.048 104.128 282.088 104.079 282.111 104.022C282.135 103.965 282.141 103.903 282.128 103.842C282.116 103.782 282.086 103.727 282.043 103.683C281.985 103.626 281.906 103.593 281.824 103.593C281.742 103.593 281.664 103.626 281.605 103.683Z" fill="#D5E5FB"/>
<path d="M283.067 104.719C283.024 104.675 282.968 104.645 282.908 104.633C282.848 104.621 282.786 104.628 282.729 104.651C282.672 104.675 282.624 104.714 282.589 104.765C282.555 104.817 282.537 104.877 282.537 104.938C282.537 104.999 282.555 105.059 282.589 105.111C282.624 105.162 282.672 105.201 282.729 105.225C282.786 105.248 282.848 105.255 282.908 105.243C282.968 105.231 283.024 105.201 283.067 105.157C283.125 105.099 283.158 105.02 283.158 104.938C283.158 104.856 283.125 104.777 283.067 104.719Z" fill="#D5E5FB"/>
<path d="M283.657 105.75C283.614 105.793 283.584 105.849 283.572 105.909C283.56 105.969 283.567 106.032 283.59 106.089C283.613 106.145 283.653 106.194 283.704 106.228C283.755 106.262 283.815 106.28 283.877 106.28C283.938 106.28 283.998 106.262 284.049 106.228C284.1 106.194 284.14 106.145 284.164 106.089C284.187 106.032 284.193 105.969 284.181 105.909C284.169 105.849 284.14 105.793 284.096 105.75C284.038 105.692 283.959 105.659 283.877 105.659C283.795 105.659 283.716 105.692 283.657 105.75Z" fill="#D5E5FB"/>
<path d="M284.661 106.77C284.618 106.813 284.588 106.868 284.576 106.929C284.564 106.989 284.57 107.051 284.594 107.108C284.617 107.165 284.657 107.213 284.708 107.247C284.759 107.282 284.819 107.3 284.881 107.3C284.942 107.3 285.002 107.282 285.053 107.247C285.104 107.213 285.144 107.165 285.168 107.108C285.191 107.051 285.197 106.989 285.185 106.929C285.173 106.868 285.144 106.813 285.1 106.77C285.042 106.711 284.963 106.679 284.881 106.679C284.798 106.679 284.72 106.711 284.661 106.77Z" fill="#D5E5FB"/>
<path d="M286.124 107.804C286.08 107.761 286.025 107.731 285.965 107.719C285.905 107.707 285.842 107.713 285.785 107.737C285.729 107.76 285.68 107.8 285.646 107.851C285.612 107.902 285.594 107.962 285.594 108.024C285.594 108.085 285.612 108.145 285.646 108.197C285.68 108.248 285.729 108.287 285.785 108.311C285.842 108.334 285.905 108.341 285.965 108.328C286.025 108.316 286.08 108.287 286.124 108.243C286.182 108.185 286.215 108.106 286.215 108.024C286.215 107.942 286.182 107.863 286.124 107.804Z" fill="#D5E5FB"/>
<path d="M262.239 99.6818C262.18 99.668 262.117 99.6722 262.06 99.6941C262.002 99.7159 261.952 99.7544 261.917 99.8045C261.881 99.8546 261.861 99.9142 261.859 99.9756C261.858 100.037 261.874 100.098 261.907 100.15C261.94 100.202 261.987 100.243 262.043 100.268C262.099 100.293 262.162 100.301 262.222 100.29C262.283 100.28 262.339 100.252 262.384 100.21C262.428 100.167 262.459 100.113 262.473 100.053C262.482 100.013 262.483 99.9718 262.476 99.9316C262.47 99.8914 262.455 99.853 262.433 99.8185C262.412 99.784 262.383 99.7541 262.35 99.7307C262.317 99.7072 262.279 99.6906 262.239 99.6818Z" fill="#D5E5FB"/>
<path d="M261.916 101.077C261.856 101.063 261.794 101.067 261.736 101.089C261.679 101.11 261.629 101.149 261.593 101.199C261.557 101.249 261.537 101.308 261.535 101.369C261.533 101.431 261.55 101.492 261.582 101.544C261.615 101.596 261.662 101.637 261.718 101.662C261.774 101.688 261.836 101.696 261.897 101.686C261.957 101.676 262.014 101.648 262.058 101.606C262.103 101.563 262.134 101.509 262.148 101.449C262.166 101.369 262.152 101.285 262.109 101.215C262.066 101.145 261.996 101.096 261.916 101.077Z" fill="#D5E5FB"/>
<path d="M261.826 102.868C261.84 102.808 261.835 102.746 261.813 102.688C261.792 102.631 261.753 102.581 261.703 102.546C261.653 102.51 261.594 102.49 261.532 102.488C261.471 102.487 261.41 102.503 261.358 102.536C261.306 102.568 261.265 102.616 261.24 102.672C261.215 102.728 261.207 102.79 261.217 102.851C261.227 102.911 261.255 102.967 261.297 103.012C261.34 103.057 261.394 103.088 261.454 103.102C261.494 103.111 261.535 103.112 261.575 103.106C261.616 103.099 261.654 103.085 261.689 103.063C261.723 103.041 261.753 103.013 261.777 102.979C261.8 102.946 261.817 102.908 261.826 102.868Z" fill="#D5E5FB"/>
<path d="M261.268 103.914C261.208 103.9 261.145 103.904 261.088 103.926C261.03 103.947 260.981 103.986 260.945 104.035C260.909 104.085 260.889 104.145 260.887 104.206C260.885 104.268 260.901 104.328 260.934 104.381C260.966 104.433 261.013 104.474 261.069 104.499C261.125 104.525 261.188 104.533 261.248 104.523C261.309 104.513 261.365 104.485 261.41 104.443C261.455 104.4 261.486 104.346 261.5 104.286C261.518 104.206 261.504 104.122 261.461 104.052C261.417 103.982 261.348 103.933 261.268 103.914Z" fill="#D5E5FB"/>
<path d="M260.945 105.314C260.885 105.3 260.822 105.304 260.765 105.326C260.707 105.348 260.657 105.386 260.622 105.436C260.586 105.486 260.566 105.546 260.565 105.607C260.563 105.669 260.579 105.73 260.612 105.782C260.645 105.834 260.692 105.875 260.748 105.9C260.805 105.925 260.867 105.933 260.927 105.922C260.988 105.912 261.044 105.884 261.089 105.841C261.133 105.799 261.164 105.744 261.178 105.684C261.187 105.645 261.188 105.604 261.181 105.564C261.174 105.523 261.16 105.485 261.138 105.451C261.116 105.416 261.088 105.386 261.055 105.363C261.022 105.339 260.984 105.323 260.945 105.314Z" fill="#D5E5FB"/>
<path d="M260.851 107.105C260.865 107.045 260.861 106.982 260.839 106.925C260.817 106.867 260.779 106.818 260.729 106.782C260.679 106.746 260.619 106.727 260.558 106.725C260.496 106.723 260.436 106.739 260.384 106.772C260.332 106.805 260.291 106.852 260.265 106.908C260.24 106.964 260.232 107.026 260.243 107.087C260.253 107.147 260.281 107.204 260.323 107.248C260.365 107.293 260.419 107.324 260.479 107.338C260.559 107.356 260.644 107.342 260.713 107.298C260.783 107.254 260.832 107.185 260.851 107.105Z" fill="#D5E5FB"/>
<path d="M260.306 108.09C260.246 108.077 260.183 108.081 260.126 108.103C260.068 108.125 260.019 108.163 259.983 108.213C259.948 108.263 259.928 108.323 259.926 108.384C259.924 108.445 259.941 108.506 259.973 108.558C260.006 108.61 260.053 108.651 260.109 108.676C260.165 108.702 260.227 108.71 260.288 108.699C260.348 108.689 260.405 108.661 260.449 108.619C260.494 108.577 260.525 108.522 260.539 108.463C260.557 108.382 260.542 108.298 260.499 108.228C260.455 108.159 260.386 108.109 260.306 108.09Z" fill="#D5E5FB"/>
<path d="M259.984 109.489C259.924 109.475 259.861 109.478 259.803 109.499C259.745 109.521 259.695 109.559 259.659 109.609C259.622 109.659 259.602 109.719 259.6 109.78C259.598 109.842 259.614 109.903 259.647 109.956C259.68 110.008 259.727 110.049 259.784 110.075C259.84 110.1 259.903 110.108 259.964 110.097C260.024 110.086 260.081 110.058 260.125 110.015C260.17 109.972 260.2 109.917 260.213 109.856C260.23 109.777 260.216 109.695 260.173 109.627C260.13 109.558 260.062 109.509 259.984 109.489Z" fill="#D5E5FB"/>
<path d="M259.89 111.278C259.904 111.219 259.9 111.156 259.878 111.099C259.856 111.041 259.818 110.992 259.768 110.956C259.718 110.92 259.658 110.9 259.597 110.899C259.535 110.897 259.475 110.913 259.423 110.946C259.371 110.978 259.33 111.026 259.305 111.082C259.279 111.138 259.271 111.2 259.282 111.261C259.292 111.321 259.32 111.377 259.362 111.422C259.404 111.467 259.458 111.498 259.518 111.512C259.599 111.53 259.683 111.515 259.752 111.472C259.822 111.428 259.872 111.359 259.89 111.278Z" fill="#D5E5FB"/>
<path d="M259.331 112.324C259.271 112.31 259.209 112.314 259.151 112.336C259.094 112.358 259.044 112.396 259.009 112.446C258.973 112.497 258.953 112.556 258.951 112.617C258.95 112.679 258.966 112.739 258.999 112.791C259.031 112.843 259.078 112.885 259.134 112.91C259.19 112.935 259.253 112.943 259.313 112.933C259.374 112.922 259.43 112.895 259.475 112.852C259.519 112.81 259.55 112.756 259.564 112.696C259.573 112.656 259.575 112.615 259.568 112.575C259.561 112.534 259.547 112.496 259.525 112.461C259.503 112.427 259.475 112.397 259.442 112.373C259.408 112.35 259.371 112.333 259.331 112.324Z" fill="#D5E5FB"/>
<path d="M259.01 113.722C258.95 113.708 258.888 113.712 258.83 113.734C258.773 113.755 258.723 113.794 258.687 113.844C258.651 113.894 258.631 113.953 258.629 114.014C258.627 114.076 258.643 114.137 258.676 114.189C258.708 114.241 258.756 114.282 258.812 114.307C258.868 114.333 258.93 114.341 258.99 114.331C259.051 114.321 259.107 114.293 259.152 114.251C259.197 114.209 259.228 114.154 259.242 114.094C259.26 114.014 259.246 113.93 259.203 113.86C259.159 113.79 259.09 113.741 259.01 113.722Z" fill="#D5E5FB"/>
<path d="M258.915 115.512C258.929 115.452 258.925 115.39 258.904 115.332C258.882 115.275 258.844 115.225 258.794 115.189C258.744 115.153 258.685 115.133 258.623 115.131C258.562 115.129 258.501 115.145 258.449 115.178C258.397 115.21 258.355 115.258 258.33 115.314C258.305 115.37 258.297 115.432 258.307 115.493C258.317 115.553 258.345 115.609 258.387 115.654C258.429 115.699 258.484 115.73 258.543 115.744C258.583 115.753 258.624 115.755 258.664 115.748C258.705 115.742 258.743 115.727 258.778 115.705C258.812 115.684 258.842 115.656 258.866 115.623C258.889 115.589 258.906 115.552 258.915 115.512Z" fill="#D5E5FB"/>
<path d="M274.001 89.6769C274.001 88.3387 273.605 87.0306 272.862 85.9179C272.119 84.8051 271.063 83.9378 269.828 83.4255C268.592 82.9133 267.232 82.7791 265.92 83.04C264.609 83.3009 263.403 83.9451 262.458 84.8912C261.512 85.8373 260.868 87.0428 260.607 88.3552C260.346 89.6676 260.479 91.028 260.991 92.2642C261.503 93.5005 262.37 94.5572 263.482 95.3007C264.594 96.0441 265.901 96.4409 267.239 96.4409C269.032 96.4406 270.752 95.7279 272.02 94.4595C273.288 93.1911 274 91.4708 274.001 89.6769Z" fill="#C6DCF7"/>
<path d="M269.409 86.9647C269.409 86.5353 269.282 86.1155 269.043 85.7584C268.805 85.4014 268.466 85.1231 268.069 84.9587C267.673 84.7944 267.236 84.7514 266.815 84.8352C266.394 84.919 266.008 85.1257 265.704 85.4294C265.401 85.7331 265.194 86.1199 265.11 86.5411C265.026 86.9623 265.069 87.3989 265.234 87.7956C265.398 88.1924 265.676 88.5315 266.033 88.7701C266.39 89.0086 266.809 89.136 267.239 89.136C267.524 89.1362 267.806 89.0801 268.069 88.9711C268.333 88.862 268.572 88.7021 268.774 88.5004C268.975 88.2988 269.135 88.0593 269.244 87.7958C269.353 87.5323 269.409 87.2499 269.409 86.9647Z" fill="#EBF3FA"/>
<path d="M267.24 89.1357C268.247 89.1357 269.213 89.5361 269.925 90.2487C270.638 90.9614 271.038 91.9279 271.038 92.9358H263.441C263.441 91.9279 263.842 90.9614 264.554 90.2487C265.266 89.5361 266.232 89.1357 267.24 89.1357Z" fill="#EBF3FA"/>
<path d="M283.718 110.555L283.467 109.934C283.336 109.608 283.11 109.33 282.819 109.134C282.528 108.937 282.186 108.833 281.835 108.833H277.213V124.295H296.335V111.768H285.515C285.129 111.768 284.751 111.653 284.431 111.437C284.111 111.221 283.863 110.913 283.718 110.555Z" fill="#C6DCF7"/>
<path d="M289.635 115.892H288.995C289.014 115.786 289.024 115.679 289.024 115.572V115.36C289.024 114.874 288.832 114.409 288.489 114.065C288.147 113.721 287.682 113.527 287.197 113.525H286.075C285.59 113.527 285.125 113.722 284.783 114.065C284.441 114.409 284.249 114.875 284.249 115.36V115.579C284.249 115.686 284.258 115.793 284.276 115.898H283.566C283.388 115.898 283.217 115.969 283.091 116.095C282.965 116.221 282.895 116.392 282.895 116.571V119.503C282.895 120.3 283.211 121.065 283.775 121.629C284.338 122.193 285.102 122.509 285.899 122.509H287.673C288.043 122.509 288.41 122.436 288.753 122.295C289.096 122.153 289.407 121.945 289.669 121.683C289.931 121.42 290.139 121.109 290.281 120.766C290.423 120.424 290.496 120.056 290.496 119.685V116.759C290.497 116.646 290.475 116.533 290.432 116.428C290.389 116.323 290.326 116.227 290.246 116.146C290.166 116.066 290.07 116.002 289.966 115.958C289.861 115.914 289.748 115.892 289.635 115.892ZM286.91 118.843V120.208C286.91 120.265 286.888 120.32 286.847 120.36C286.807 120.4 286.752 120.423 286.695 120.423C286.638 120.423 286.584 120.4 286.544 120.36C286.503 120.32 286.481 120.265 286.481 120.208V118.845C286.243 118.793 286.032 118.654 285.89 118.455C285.748 118.257 285.685 118.013 285.711 117.77C285.738 117.528 285.853 117.304 286.035 117.141C286.216 116.978 286.452 116.888 286.695 116.888C286.939 116.888 287.175 116.978 287.356 117.141C287.538 117.304 287.653 117.528 287.68 117.77C287.706 118.013 287.643 118.257 287.501 118.455C287.359 118.654 287.148 118.793 286.91 118.845V118.843ZM288.293 115.567C288.294 115.675 288.278 115.783 288.246 115.887H285.027C284.995 115.783 284.978 115.675 284.978 115.567V115.36C284.978 115.069 285.094 114.79 285.299 114.584C285.505 114.379 285.784 114.263 286.075 114.263H287.194C287.485 114.263 287.764 114.379 287.97 114.584C288.175 114.79 288.291 115.069 288.291 115.36L288.293 115.567Z" fill="#EBF3FA"/>
<path d="M251.381 125.114C251.381 128.568 257.228 134.875 257.228 134.875C257.228 134.875 263.074 128.568 263.074 125.114C263.074 121.66 260.455 118.861 257.228 118.861C254 118.861 251.381 121.66 251.381 125.114ZM253.835 124.48C253.835 123.809 254.034 123.152 254.407 122.594C254.78 122.035 255.31 121.6 255.931 121.343C256.551 121.086 257.233 121.019 257.891 121.15C258.55 121.281 259.154 121.605 259.629 122.08C260.104 122.555 260.427 123.16 260.557 123.819C260.688 124.477 260.621 125.16 260.364 125.78C260.107 126.401 259.672 126.931 259.113 127.304C258.555 127.677 257.899 127.876 257.228 127.875C256.782 127.875 256.341 127.787 255.929 127.617C255.517 127.446 255.143 127.196 254.828 126.881C254.513 126.566 254.264 126.191 254.093 125.779C253.923 125.367 253.835 124.926 253.835 124.48Z" fill="#C6DCF7"/>
<path d="M344.166 213.015H3.03817C2.81538 213.015 2.63477 213.195 2.63477 213.418V213.596C2.63477 213.819 2.81538 214 3.03817 214H344.166C344.389 214 344.569 213.819 344.569 213.596V213.418C344.569 213.195 344.389 213.015 344.166 213.015Z" fill="#233862"/>
<path d="M69.0845 122.655C68.9391 122.058 69.2011 121.589 69.7538 121.589C70.3065 121.589 70.7859 122.049 70.9326 122.652C71.0793 123.255 70.8186 123.716 70.2633 123.717C69.708 123.719 69.2299 123.257 69.0845 122.655ZM70.4624 122.655C70.372 122.281 70.1192 121.999 69.8468 121.999C69.5744 121.999 69.4604 122.273 69.5534 122.655C69.6464 123.036 69.8926 123.31 70.169 123.31C70.4454 123.31 70.5606 123.032 70.4624 122.652V122.655Z" fill="#F99746"/>
<path d="M61.0975 107.192L60.7569 107.281L60.5723 106.91L61.1263 106.733H61.438L61.9396 108.809H61.4878L61.0975 107.192Z" fill="#2F539B"/>
<path d="M62.7193 107.773C62.5739 107.177 62.8359 106.709 63.3886 106.708C63.9413 106.707 64.4207 107.168 64.5674 107.771C64.714 108.373 64.4534 108.836 63.8981 108.836C63.3427 108.836 62.8647 108.376 62.7193 107.773ZM64.0972 107.773C64.0068 107.4 63.754 107.118 63.4816 107.118C63.2091 107.118 63.0886 107.392 63.1882 107.773C63.2877 108.155 63.5274 108.429 63.8038 108.429C64.0801 108.429 64.1888 108.153 64.0972 107.772V107.773Z" fill="#2F539B"/>
<path d="M72.455 136.406C72.311 135.808 72.5729 135.341 73.1243 135.339C73.6757 135.338 74.1577 135.799 74.3031 136.402C74.4485 137.005 74.1891 137.467 73.6338 137.467C73.0785 137.467 72.6017 137.009 72.455 136.406ZM73.8342 136.406C73.7438 136.033 73.4911 135.751 73.2173 135.751C72.9436 135.751 72.8322 136.025 72.9252 136.406C73.0182 136.787 73.2645 137.061 73.5408 137.061C73.8172 137.061 73.9259 136.782 73.8342 136.403V136.406Z" fill="#2F539B"/>
<path d="M63.4412 116.874L63.1007 116.963L62.916 116.592L63.47 116.415H63.7818L64.2834 118.487H63.8315L63.4412 116.874Z" fill="#2F539B"/>
<path d="M65.0587 117.457C64.9146 116.859 65.1752 116.391 65.7279 116.39C66.2807 116.389 66.76 116.85 66.9067 117.453C67.0534 118.056 66.7928 118.518 66.2361 118.518C65.6795 118.518 65.2067 118.058 65.0587 117.457ZM66.4365 117.457C66.3461 117.083 66.0934 116.802 65.8209 116.802C65.5485 116.802 65.4359 117.075 65.5276 117.457C65.6192 117.838 65.8681 118.112 66.1444 118.112C66.4208 118.112 66.5308 117.833 66.4391 117.457H66.4365Z" fill="#2F539B"/>
<path d="M64.798 112.003L64.4562 112.092L64.2715 111.721L64.8268 111.544H65.1385L65.6402 113.617H65.1883L64.798 112.003Z" fill="#F99746"/>
<path d="M66.4102 112.585C66.2661 111.989 66.5268 111.521 67.0795 111.52C67.6322 111.518 68.1129 111.979 68.2583 112.582C68.4037 113.185 68.1443 113.648 67.589 113.648C67.0337 113.648 66.5569 113.188 66.4102 112.585ZM67.7894 112.585C67.699 112.211 67.4462 111.93 67.1725 111.93C66.8988 111.93 66.7874 112.204 66.8804 112.585C66.9734 112.966 67.2196 113.24 67.496 113.24C67.7724 113.24 67.8811 112.962 67.7894 112.584V112.585Z" fill="#F99746"/>
<path d="M64.7004 122.077L64.3585 122.166L64.1738 121.795L64.7292 121.618H65.0409L65.5425 123.691H65.0907L64.7004 122.077Z" fill="#2F539B"/>
<path d="M66.3204 122.66C66.1763 122.062 66.4369 121.595 66.9897 121.593C67.5424 121.592 68.0231 122.053 68.1684 122.656C68.3138 123.259 68.0545 123.721 67.4992 123.721C66.9438 123.721 66.4671 123.261 66.3204 122.66ZM67.6995 122.66C67.6092 122.286 67.3564 122.005 67.0827 122.005C66.8089 122.005 66.6976 122.279 66.7906 122.66C66.8836 123.041 67.1298 123.315 67.4062 123.315C67.6825 123.315 67.7912 123.036 67.6995 122.657V122.66Z" fill="#2F539B"/>
<path d="M70.5606 107.772C70.4165 107.174 70.6772 106.706 71.2299 106.705C71.7826 106.704 72.2633 107.165 72.4087 107.768C72.5541 108.371 72.2947 108.833 71.7394 108.833C71.1841 108.833 70.7021 108.373 70.5606 107.772ZM71.9398 107.772C71.8494 107.398 71.5966 107.117 71.3229 107.117C71.0491 107.117 70.9378 107.39 71.0308 107.772C71.1238 108.153 71.37 108.427 71.6464 108.427C71.9228 108.427 72.0262 108.153 71.9345 107.769L71.9398 107.772Z" fill="#F99746"/>
<path d="M66.1717 107.194L65.8312 107.282L65.6465 106.912L66.2005 106.734H66.5122L67.0139 108.808H66.5633L66.1717 107.194Z" fill="#2F539B"/>
<path d="M67.793 107.776C67.649 107.18 67.9096 106.712 68.4623 106.71C69.015 106.709 69.4944 107.17 69.6411 107.773C69.7878 108.376 69.5271 108.837 68.9718 108.838C68.4165 108.84 67.941 108.379 67.793 107.776ZM69.1709 107.776C69.0805 107.402 68.829 107.121 68.5553 107.121C68.2816 107.121 68.1702 107.394 68.2619 107.776C68.3536 108.157 68.6025 108.431 68.8788 108.431C69.1552 108.431 69.2626 108.153 69.1709 107.773V107.776Z" fill="#2F539B"/>
<path d="M71.4908 132.707C71.3454 132.109 71.6074 131.641 72.1601 131.64C72.7128 131.639 73.1922 132.1 73.3388 132.703C73.4855 133.306 73.2249 133.768 72.6696 133.768C72.1142 133.768 71.6362 133.312 71.4908 132.707ZM72.8686 132.707C72.7783 132.333 72.5255 132.052 72.2531 132.052C71.9806 132.052 71.8667 132.325 71.9597 132.707C72.0527 133.088 72.2989 133.362 72.5753 133.362C72.8516 133.362 72.9603 133.083 72.8686 132.704V132.707Z" fill="#F99746"/>
<path d="M65.8455 126.925L65.505 127.013L65.3203 126.644L65.8743 126.465H66.1861L66.6877 128.538H66.2385L65.8455 126.925Z" fill="#2F539B"/>
<path d="M67.4688 127.507C67.3247 126.911 67.5854 126.443 68.1381 126.442C68.6908 126.441 69.1702 126.902 69.3169 127.505C69.4636 128.107 69.2042 128.569 68.6476 128.57C68.0909 128.571 67.6142 128.11 67.4688 127.507ZM68.8467 127.507C68.7563 127.134 68.5035 126.852 68.2311 126.852C67.9587 126.852 67.8382 127.126 67.9377 127.507C68.0372 127.889 68.2782 128.162 68.5533 128.162C68.8283 128.162 68.9384 127.885 68.8467 127.505V127.507Z" fill="#2F539B"/>
<path d="M70.2305 127.503C70.0865 126.906 70.3471 126.438 70.8998 126.437C71.4525 126.435 71.9319 126.896 72.0786 127.499C72.2253 128.102 71.9646 128.565 71.4093 128.565C70.854 128.565 70.3759 128.105 70.2305 127.503ZM71.6084 127.503C71.518 127.13 71.2665 126.848 70.9928 126.848C70.7191 126.848 70.6077 127.122 70.6994 127.503C70.7911 127.884 71.04 128.158 71.3163 128.158C71.5927 128.158 71.7001 127.879 71.6084 127.501V127.503Z" fill="#2F539B"/>
<path d="M73.2049 126.912L72.8644 127.001L72.6797 126.631L73.2337 126.454H73.5454L74.0471 128.525H73.5952L73.2049 126.912Z" fill="#2F539B"/>
<path d="M67.1066 132.132L66.7648 132.222L66.5801 131.852L67.1354 131.674H67.4471L67.9488 133.746H67.4969L67.1066 132.132Z" fill="#2F539B"/>
<path d="M68.7266 132.71C68.5826 132.114 68.8432 131.645 69.3959 131.645C69.9486 131.645 70.4293 132.105 70.5747 132.708C70.7201 133.31 70.4607 133.772 69.9054 133.773C69.3501 133.774 68.8733 133.312 68.7266 132.71ZM70.1058 132.71C70.0154 132.337 69.7626 132.055 69.4889 132.055C69.2152 132.055 69.1038 132.329 69.1968 132.71C69.2898 133.092 69.5361 133.366 69.8124 133.366C70.0888 133.366 70.1975 133.088 70.1058 132.708V132.71Z" fill="#2F539B"/>
<path d="M73.9322 144.243C73.7868 143.647 74.0488 143.178 74.6015 143.178C75.1542 143.178 75.6336 143.638 75.7802 144.24C75.9269 144.843 75.6676 145.304 75.111 145.306C74.5543 145.307 74.0776 144.843 73.9322 144.243ZM75.31 144.243C75.2197 143.87 74.9669 143.588 74.6945 143.588C74.422 143.588 74.3015 143.862 74.4011 144.243C74.5006 144.624 74.7416 144.898 75.0167 144.898C75.2917 144.898 75.4057 144.62 75.31 144.24V144.243Z" fill="#2F539B"/>
<path d="M76.9074 143.653L76.5655 143.741L76.3809 143.372L76.9362 143.195H77.2479L77.7496 145.268H77.2977L76.9074 143.653Z" fill="#2F539B"/>
<path d="M69.55 143.664L69.2081 143.753L69.0234 143.382L69.5788 143.205H69.8905L70.3921 145.277H69.9403L69.55 143.664Z" fill="#2F539B"/>
<path d="M71.1699 144.248C71.0258 143.651 71.2878 143.183 71.8392 143.182C72.3906 143.18 72.8726 143.642 73.0179 144.244C73.1633 144.847 72.904 145.31 72.3487 145.311C71.7933 145.312 71.3166 144.85 71.1699 144.248ZM72.549 144.248C72.4587 143.875 72.2059 143.593 71.9321 143.593C71.6584 143.593 71.5471 143.867 71.6401 144.248C71.7331 144.63 71.9793 144.903 72.2557 144.903C72.532 144.903 72.6407 144.624 72.549 144.246V144.248Z" fill="#2F539B"/>
<path d="M78.5273 144.235C78.3832 143.639 78.6452 143.171 79.1966 143.17C79.748 143.169 80.23 143.63 80.3754 144.233C80.5207 144.835 80.2614 145.297 79.7061 145.298C79.1507 145.299 78.6805 144.843 78.5273 144.235ZM79.9065 144.235C79.8161 143.863 79.5633 143.58 79.2896 143.58C79.0158 143.58 78.9045 143.854 78.9975 144.235C79.0905 144.617 79.3367 144.89 79.6131 144.89C79.8894 144.89 79.9981 144.613 79.9065 144.233V144.235Z" fill="#F99746"/>
<path d="M81.2916 144.231C81.1462 143.634 81.4081 143.166 81.9608 143.165C82.5136 143.163 82.9929 143.625 83.1396 144.227C83.2863 144.83 83.0257 145.293 82.4703 145.293C81.915 145.293 81.4317 144.833 81.2916 144.231ZM82.6694 144.231C82.579 143.858 82.3263 143.576 82.0538 143.576C81.7814 143.576 81.6609 143.85 81.7605 144.231C81.86 144.613 82.0997 144.886 82.376 144.886C82.6524 144.886 82.7611 144.607 82.6694 144.229V144.231Z" fill="#F99746"/>
<path d="M70.5201 147.954C70.3747 147.358 70.6366 146.89 71.1894 146.889C71.7421 146.887 72.2214 147.349 72.3681 147.951C72.5148 148.554 72.2542 149.015 71.6989 149.017C71.1435 149.018 70.6655 148.557 70.5201 147.954ZM71.8979 147.954C71.8076 147.582 71.5548 147.299 71.281 147.299C71.0073 147.299 70.896 147.573 70.989 147.954C71.082 148.335 71.3282 148.609 71.6045 148.609C71.8809 148.609 71.9896 148.331 71.8979 147.951V147.954Z" fill="#2F539B"/>
<path d="M73.4933 147.364L73.1515 147.453L72.9668 147.083L73.5208 146.906H73.8339L74.3355 148.979H73.8836L73.4933 147.364Z" fill="#2F539B"/>
<path d="M75.1153 147.946C74.9712 147.35 75.2319 146.882 75.7846 146.881C76.3373 146.88 76.818 147.341 76.9634 147.944C77.1087 148.546 76.8494 149.009 76.2941 149.009C75.7387 149.009 75.262 148.549 75.1153 147.946ZM76.4945 147.946C76.4041 147.573 76.1513 147.291 75.8776 147.291C75.6038 147.291 75.4925 147.565 75.5855 147.946C75.6785 148.327 75.9247 148.601 76.2011 148.601C76.4774 148.601 76.5861 148.324 76.4945 147.945V147.946Z" fill="#2F539B"/>
<path d="M77.8769 147.942C77.7328 147.345 77.9948 146.877 78.5462 146.877C79.0976 146.877 79.5796 147.337 79.725 147.938C79.8704 148.54 79.611 149.004 79.0557 149.005C78.5004 149.006 78.0262 148.545 77.8769 147.942ZM79.2561 147.942C79.1657 147.569 78.9129 147.287 78.6392 147.287C78.3654 147.287 78.2541 147.562 78.3471 147.942C78.4401 148.322 78.6863 148.597 78.9627 148.597C79.2391 148.597 79.3478 148.318 79.2561 147.94V147.942Z" fill="#2F539B"/>
<path d="M157.51 144.243C157.366 143.647 157.626 143.178 158.179 143.178C158.732 143.178 159.213 143.638 159.358 144.24C159.503 144.843 159.244 145.304 158.689 145.306C158.133 145.307 157.659 144.843 157.51 144.243ZM158.889 144.243C158.799 143.87 158.546 143.588 158.272 143.588C157.998 143.588 157.887 143.862 157.98 144.243C158.073 144.624 158.319 144.898 158.596 144.898C158.872 144.898 158.981 144.62 158.889 144.24V144.243Z" fill="#2F539B"/>
<path d="M160.484 143.653L160.144 143.741L159.959 143.372L160.513 143.195H160.825L161.326 145.268H160.876L160.484 143.653Z" fill="#2F539B"/>
<path d="M153.127 143.664L152.786 143.753L152.602 143.382L153.156 143.205H153.469L153.97 145.277H153.52L153.127 143.664Z" fill="#2F539B"/>
<path d="M154.748 144.248C154.604 143.651 154.865 143.183 155.417 143.182C155.97 143.18 156.449 143.642 156.596 144.244C156.743 144.847 156.482 145.31 155.927 145.311C155.372 145.312 154.893 144.85 154.748 144.248ZM156.126 144.248C156.036 143.875 155.784 143.593 155.51 143.593C155.237 143.593 155.125 143.867 155.217 144.248C155.309 144.63 155.558 144.903 155.834 144.903C156.11 144.903 156.219 144.624 156.126 144.246V144.248Z" fill="#2F539B"/>
<path d="M162.111 144.235C161.967 143.639 162.228 143.171 162.781 143.17C163.333 143.169 163.813 143.63 163.959 144.233C164.106 144.835 163.846 145.297 163.29 145.298C162.735 145.299 162.25 144.843 162.111 144.235ZM163.489 144.235C163.399 143.863 163.147 143.58 162.874 143.58C162.6 143.58 162.489 143.854 162.58 144.235C162.672 144.617 162.921 144.89 163.197 144.89C163.474 144.89 163.574 144.613 163.483 144.233L163.489 144.235Z" fill="#F99746"/>
<path d="M164.863 144.231C164.719 143.634 164.98 143.166 165.533 143.165C166.085 143.163 166.566 143.625 166.711 144.227C166.857 144.83 166.597 145.293 166.042 145.293C165.487 145.293 165.015 144.833 164.863 144.231ZM166.243 144.231C166.152 143.858 165.899 143.576 165.626 143.576C165.352 143.576 165.241 143.85 165.334 144.231C165.427 144.613 165.673 144.886 165.949 144.886C166.225 144.886 166.339 144.607 166.248 144.229L166.243 144.231Z" fill="#F99746"/>
<path d="M146.461 147.954C146.317 147.358 146.578 146.89 147.13 146.889C147.683 146.887 148.162 147.349 148.309 147.951C148.456 148.554 148.196 149.015 147.641 149.017C147.086 149.018 146.606 148.557 146.461 147.954ZM147.839 147.954C147.748 147.582 147.496 147.299 147.223 147.299C146.951 147.299 146.837 147.573 146.93 147.954C147.023 148.335 147.27 148.609 147.547 148.609C147.823 148.609 147.931 148.331 147.835 147.951L147.839 147.954Z" fill="#2F539B"/>
<path d="M149.437 147.364L149.095 147.453L148.91 147.083L149.465 146.906H149.777L150.279 148.979H149.827L149.437 147.364Z" fill="#2F539B"/>
<path d="M151.057 147.946C150.913 147.35 151.174 146.882 151.727 146.881C152.28 146.88 152.759 147.341 152.906 147.944C153.053 148.546 152.792 149.009 152.237 149.009C151.681 149.009 151.203 148.549 151.057 147.946ZM152.436 147.946C152.345 147.573 152.093 147.291 151.819 147.291C151.545 147.291 151.434 147.565 151.527 147.946C151.62 148.327 151.866 148.601 152.142 148.601C152.419 148.601 152.527 148.324 152.436 147.945V147.946Z" fill="#2F539B"/>
<path d="M153.821 147.942C153.675 147.345 153.937 146.877 154.49 146.877C155.043 146.877 155.522 147.337 155.669 147.938C155.816 148.54 155.555 149.004 155 149.005C154.444 149.006 153.966 148.545 153.821 147.942ZM155.199 147.942C155.108 147.569 154.856 147.287 154.583 147.287C154.311 147.287 154.19 147.562 154.29 147.942C154.389 148.322 154.63 148.597 154.905 148.597C155.18 148.597 155.29 148.318 155.199 147.94V147.942Z" fill="#2F539B"/>
<path d="M77.4419 157.668C77.2966 157.072 77.5585 156.603 78.1112 156.603C78.664 156.603 79.1433 157.062 79.29 157.665C79.4367 158.268 79.1761 158.729 78.6207 158.731C78.0654 158.732 77.5873 158.271 77.4419 157.668ZM78.8198 157.668C78.7294 157.294 78.4767 157.013 78.2042 157.013C77.9318 157.013 77.8113 157.288 77.9108 157.668C78.0104 158.048 78.2501 158.323 78.5264 158.323C78.8028 158.323 78.9115 158.045 78.8198 157.665V157.668Z" fill="#F99746"/>
<path d="M80.4171 157.078L80.0753 157.166L79.8906 156.796L80.4447 156.618H80.7577L81.2593 158.69H80.8075L80.4171 157.078Z" fill="#F99746"/>
<path d="M71.7986 151.886L71.4581 151.975L71.2734 151.605L71.8275 151.428H72.1392L72.6408 153.499H72.189L71.7986 151.886Z" fill="#2F539B"/>
<path d="M73.42 152.469C73.2759 151.872 73.5366 151.404 74.0893 151.403C74.642 151.402 75.1214 151.863 75.268 152.466C75.4147 153.068 75.1541 153.531 74.5975 153.531C74.0408 153.531 73.5654 153.071 73.42 152.469ZM74.7978 152.469C74.7075 152.096 74.4547 151.814 74.1823 151.814C73.9098 151.814 73.7972 152.088 73.8889 152.469C73.9806 152.851 74.2294 153.125 74.5058 153.125C74.7821 153.125 74.8895 152.846 74.7978 152.467V152.469Z" fill="#2F539B"/>
<path d="M76.1817 152.464C76.0376 151.868 76.2983 151.4 76.851 151.399C77.4037 151.398 77.8831 151.859 78.0298 152.462C78.1765 153.064 77.9158 153.526 77.3605 153.527C76.8051 153.528 76.3232 153.067 76.1817 152.464ZM77.5596 152.464C77.4705 152.091 77.2177 151.809 76.944 151.809C76.6702 151.809 76.5589 152.083 76.6506 152.464C76.7423 152.846 76.9911 153.119 77.2675 153.119C77.5439 153.119 77.6526 152.836 77.5596 152.462V152.464Z" fill="#2F539B"/>
<path d="M79.1561 151.874L78.8155 151.962L78.6309 151.593L79.1849 151.415H79.4966L79.9982 153.488H79.5464L79.1561 151.874Z" fill="#2F539B"/>
<path d="M152.67 151.886L152.329 151.975L152.145 151.605L152.699 151.428H153.01L153.512 153.499H153.06L152.67 151.886Z" fill="#2F539B"/>
<path d="M154.29 152.469C154.144 151.872 154.406 151.404 154.958 151.403C155.509 151.402 155.991 151.863 156.136 152.466C156.282 153.068 156.022 153.531 155.467 153.531C154.912 153.531 154.435 153.071 154.29 152.469ZM155.667 152.469C155.577 152.096 155.324 151.814 155.051 151.814C154.777 151.814 154.666 152.088 154.759 152.469C154.851 152.851 155.098 153.125 155.374 153.125C155.65 153.125 155.759 152.846 155.667 152.467V152.469Z" fill="#2F539B"/>
<path d="M157.053 152.464C156.908 151.868 157.17 151.4 157.723 151.399C158.275 151.398 158.755 151.859 158.901 152.462C159.048 153.064 158.789 153.526 158.233 153.527C157.678 153.528 157.199 153.067 157.053 152.464ZM158.431 152.464C158.341 152.091 158.088 151.809 157.816 151.809C157.543 151.809 157.43 152.083 157.522 152.464C157.614 152.846 157.863 153.119 158.139 153.119C158.415 153.119 158.523 152.836 158.431 152.462V152.464Z" fill="#2F539B"/>
<path d="M160.027 151.874L159.685 151.962L159.5 151.593L160.055 151.415H160.367L160.869 153.488H160.417L160.027 151.874Z" fill="#2F539B"/>
<path d="M73.0578 157.09L72.7159 157.179L72.5312 156.808L73.0866 156.631H73.3983L73.8999 158.704H73.4481L73.0578 157.09Z" fill="#2F539B"/>
<path d="M74.6778 157.673C74.5337 157.076 74.7944 156.608 75.3471 156.606C75.8998 156.605 76.3805 157.066 76.5259 157.669C76.6712 158.272 76.4119 158.734 75.8566 158.734C75.3012 158.734 74.8245 158.275 74.6778 157.673ZM76.057 157.673C75.9666 157.3 75.7138 157.018 75.4401 157.018C75.1663 157.018 75.055 157.292 75.148 157.673C75.241 158.054 75.4872 158.328 75.7636 158.328C76.0399 158.328 76.1487 158.049 76.0609 157.67L76.057 157.673Z" fill="#2F539B"/>
<path d="M82.0372 157.66C81.8931 157.064 82.1537 156.595 82.7065 156.595C83.2592 156.595 83.7399 157.055 83.8852 157.657C84.0306 158.26 83.7713 158.721 83.216 158.723C82.6606 158.724 82.1839 158.263 82.0372 157.66ZM83.4163 157.66C83.326 157.287 83.0732 157.005 82.7995 157.005C82.5257 157.005 82.4144 157.279 82.5074 157.66C82.6004 158.041 82.8466 158.315 83.123 158.315C83.3993 158.315 83.508 158.037 83.4163 157.657V157.66Z" fill="#2F539B"/>
<path d="M84.7988 157.655C84.6547 157.058 84.9167 156.591 85.4681 156.589C86.0195 156.588 86.5015 157.049 86.6468 157.652C86.7922 158.255 86.5329 158.717 85.9776 158.717C85.4222 158.717 84.9455 158.257 84.7988 157.655ZM86.178 157.655C86.0876 157.281 85.8348 157 85.5611 157C85.2873 157 85.176 157.273 85.269 157.655C85.362 158.036 85.6082 158.31 85.8846 158.31C86.1609 158.31 86.2696 158.032 86.178 157.653V157.655Z" fill="#2F539B"/>
<path d="M78.5059 161.342C78.3618 160.745 78.6225 160.277 79.1752 160.275C79.7279 160.274 80.2073 160.735 80.354 161.338C80.5007 161.941 80.24 162.403 79.6847 162.403C79.1294 162.403 78.6513 161.943 78.5059 161.342ZM79.8838 161.342C79.7934 160.969 79.5419 160.687 79.2682 160.687C78.9945 160.687 78.8831 160.961 78.9748 161.342C79.0665 161.723 79.3154 161.997 79.5917 161.997C79.8681 161.997 79.9755 161.718 79.8838 161.339V161.342Z" fill="#F99746"/>
<path d="M81.4803 160.751L81.1398 160.84L80.9551 160.469L81.5091 160.292H81.8234L82.3251 162.364H81.8732L81.4803 160.751Z" fill="#F99746"/>
<path d="M75.7447 161.346C75.5993 160.749 75.8613 160.282 76.414 160.28C76.9667 160.279 77.4461 160.74 77.5927 161.343C77.7394 161.946 77.4788 162.407 76.9235 162.408C76.3681 162.41 75.8901 161.948 75.7447 161.346ZM77.1225 161.346C77.0322 160.972 76.7794 160.69 76.507 160.69C76.2345 160.69 76.1206 160.964 76.2136 161.346C76.3066 161.727 76.5528 162.001 76.8292 162.001C77.1055 162.001 77.2142 161.723 77.1225 161.343V161.346Z" fill="#2F539B"/>
<path d="M83.1021 161.334C82.9567 160.737 83.2187 160.269 83.7714 160.268C84.3241 160.266 84.8035 160.728 84.9502 161.33C85.0969 161.933 84.8362 162.396 84.2809 162.397C83.7255 162.398 83.2475 161.937 83.1021 161.334ZM84.48 161.334C84.3896 160.961 84.1368 160.679 83.8644 160.679C83.592 160.679 83.4715 160.953 83.571 161.334C83.6705 161.716 83.9102 161.989 84.1866 161.989C84.4629 161.989 84.5743 161.71 84.48 161.332V161.334Z" fill="#2F539B"/>
<path d="M85.8653 161.329C85.7212 160.733 85.9819 160.265 86.5346 160.264C87.0873 160.262 87.5667 160.724 87.7134 161.326C87.8601 161.929 87.5994 162.39 87.0441 162.392C86.4887 162.393 86.0159 161.932 85.8653 161.329ZM87.2432 161.329C87.1528 160.956 86.9 160.674 86.6276 160.674C86.3551 160.674 86.2425 160.948 86.3342 161.329C86.4259 161.71 86.6747 161.984 86.9511 161.984C87.2274 161.984 87.3348 161.706 87.2432 161.326V161.329Z" fill="#2F539B"/>
<path d="M95.3691 161.342C95.225 160.745 95.487 160.277 96.0384 160.275C96.5898 160.274 97.0718 160.735 97.2172 161.338C97.3625 161.941 97.1032 162.403 96.5479 162.403C95.9925 162.403 95.5158 161.943 95.3691 161.342ZM96.7483 161.342C96.6579 160.969 96.4051 160.687 96.1314 160.687C95.8576 160.687 95.7463 160.961 95.8393 161.342C95.9323 161.723 96.1785 161.997 96.4549 161.997C96.7312 161.997 96.84 161.718 96.7548 161.339L96.7483 161.342Z" fill="#F99746"/>
<path d="M98.3436 160.751L98.003 160.84L97.8184 160.469L98.3724 160.292H98.6854L99.1857 162.364H98.7352L98.3436 160.751Z" fill="#F99746"/>
<path d="M92.6075 161.346C92.4634 160.749 92.7241 160.282 93.2768 160.28C93.8295 160.279 94.3089 160.74 94.4555 161.343C94.6022 161.946 94.3416 162.407 93.7863 162.408C93.2309 162.41 92.7529 161.948 92.6075 161.346ZM93.9853 161.346C93.8963 160.972 93.6435 160.69 93.3698 160.69C93.096 160.69 92.9847 160.964 93.0764 161.346C93.1681 161.727 93.4169 162.001 93.6933 162.001C93.9696 162.001 94.0783 161.723 93.9853 161.343V161.346Z" fill="#2F539B"/>
<path d="M99.9649 161.334C99.8208 160.737 100.081 160.269 100.634 160.268C101.187 160.266 101.666 160.728 101.813 161.33C101.96 161.933 101.699 162.396 101.144 162.397C100.588 162.398 100.11 161.937 99.9649 161.334ZM101.343 161.334C101.252 160.961 101.001 160.679 100.727 160.679C100.453 160.679 100.342 160.953 100.434 161.334C100.525 161.716 100.774 161.989 101.051 161.989C101.327 161.989 101.436 161.71 101.339 161.332L101.343 161.334Z" fill="#2F539B"/>
<path d="M102.729 161.329C102.585 160.733 102.845 160.265 103.398 160.264C103.951 160.262 104.431 160.724 104.577 161.326C104.722 161.929 104.463 162.39 103.907 162.392C103.352 162.393 102.875 161.932 102.729 161.329ZM104.108 161.329C104.017 160.956 103.765 160.674 103.491 160.674C103.217 160.674 103.106 160.948 103.199 161.329C103.292 161.71 103.538 161.984 103.814 161.984C104.091 161.984 104.199 161.706 104.108 161.326V161.329Z" fill="#2F539B"/>
<path d="M133.764 161.342C133.619 160.745 133.881 160.277 134.433 160.275C134.986 160.274 135.466 160.735 135.612 161.338C135.759 161.941 135.5 162.403 134.943 162.403C134.386 162.403 133.91 161.943 133.764 161.342ZM135.142 161.342C135.052 160.969 134.799 160.687 134.526 160.687C134.254 160.687 134.134 160.961 134.233 161.342C134.333 161.723 134.572 161.997 134.849 161.997C135.125 161.997 135.234 161.718 135.142 161.339V161.342Z" fill="#F99746"/>
<path d="M136.737 160.751L136.396 160.84L136.211 160.469L136.766 160.292H137.078L137.58 162.364H137.128L136.737 160.751Z" fill="#F99746"/>
<path d="M131 161.346C130.856 160.749 131.117 160.282 131.669 160.28C132.222 160.279 132.703 160.74 132.848 161.343C132.994 161.946 132.734 162.407 132.179 162.408C131.624 162.41 131.147 161.948 131 161.346ZM132.379 161.346C132.289 160.972 132.036 160.69 131.762 160.69C131.489 160.69 131.377 160.964 131.47 161.346C131.563 161.727 131.809 162.001 132.086 162.001C132.362 162.001 132.471 161.723 132.381 161.343L132.379 161.346Z" fill="#2F539B"/>
<path d="M138.359 161.334C138.215 160.737 138.477 160.269 139.029 160.268C139.58 160.266 140.062 160.728 140.207 161.33C140.353 161.933 140.093 162.396 139.538 162.397C138.983 162.398 138.506 161.937 138.359 161.334ZM139.739 161.334C139.648 160.961 139.395 160.679 139.122 160.679C138.848 160.679 138.737 160.953 138.83 161.334C138.923 161.716 139.169 161.989 139.445 161.989C139.721 161.989 139.83 161.71 139.739 161.332V161.334Z" fill="#2F539B"/>
<path d="M141.122 161.329C140.976 160.733 141.238 160.265 141.791 160.264C142.344 160.262 142.823 160.724 142.97 161.326C143.116 161.929 142.856 162.39 142.3 162.392C141.745 162.393 141.267 161.932 141.122 161.329ZM142.5 161.329C142.409 160.956 142.156 160.674 141.884 160.674C141.611 160.674 141.491 160.948 141.591 161.329C141.69 161.71 141.93 161.984 142.206 161.984C142.482 161.984 142.596 161.706 142.5 161.326V161.329Z" fill="#2F539B"/>
<path d="M150.627 161.342C150.483 160.745 150.744 160.277 151.296 160.275C151.849 160.274 152.328 160.735 152.475 161.338C152.622 161.941 152.361 162.403 151.806 162.403C151.25 162.403 150.772 161.943 150.627 161.342ZM152.006 161.342C151.916 160.969 151.663 160.687 151.389 160.687C151.116 160.687 151.004 160.961 151.097 161.342C151.19 161.723 151.436 161.997 151.713 161.997C151.989 161.997 152.098 161.718 152.006 161.339V161.342Z" fill="#F99746"/>
<path d="M153.599 160.751L153.259 160.84L153.074 160.469L153.628 160.292H153.94L154.442 162.364H153.992L153.599 160.751Z" fill="#F99746"/>
<path d="M147.865 161.346C147.721 160.749 147.982 160.282 148.535 160.28C149.087 160.279 149.567 160.74 149.713 161.343C149.86 161.946 149.599 162.407 149.044 162.408C148.489 162.41 148.011 161.948 147.865 161.346ZM149.243 161.346C149.153 160.972 148.901 160.69 148.628 160.69C148.354 160.69 148.243 160.964 148.334 161.346C148.426 161.727 148.675 162.001 148.951 162.001C149.227 162.001 149.335 161.723 149.243 161.343V161.346Z" fill="#2F539B"/>
<path d="M155.223 161.334C155.079 160.737 155.339 160.269 155.892 160.268C156.445 160.266 156.924 160.728 157.071 161.33C157.217 161.933 156.957 162.396 156.401 162.397C155.846 162.398 155.368 161.937 155.223 161.334ZM156.601 161.334C156.51 160.961 156.257 160.679 155.985 160.679C155.713 160.679 155.6 160.953 155.692 161.334C155.783 161.716 156.032 161.989 156.308 161.989C156.585 161.989 156.692 161.71 156.601 161.332V161.334Z" fill="#2F539B"/>
<path d="M157.984 161.329C157.84 160.733 158.101 160.265 158.654 160.264C159.206 160.262 159.686 160.724 159.832 161.326C159.979 161.929 159.719 162.39 159.163 162.392C158.608 162.393 158.13 161.932 157.984 161.329ZM159.362 161.329C159.273 160.956 159.02 160.674 158.747 160.674C158.473 160.674 158.362 160.948 158.453 161.329C158.545 161.71 158.794 161.984 159.07 161.984C159.347 161.984 159.455 161.706 159.361 161.326L159.362 161.329Z" fill="#2F539B"/>
<path d="M87.5626 157.651C87.4185 157.055 87.6791 156.585 88.2318 156.585C88.7846 156.585 89.2639 157.045 89.4106 157.648C89.5573 158.251 89.2967 158.712 88.74 158.713C88.1834 158.715 87.7079 158.254 87.5626 157.651ZM88.9404 157.651C88.8501 157.277 88.5973 156.996 88.3248 156.996C88.0524 156.996 87.9398 157.271 88.0315 157.651C88.1231 158.031 88.372 158.306 88.6483 158.306C88.9247 158.306 89.0282 158.028 88.9404 157.648V157.651Z" fill="#2F539B"/>
<path d="M90.3243 157.645C90.1802 157.049 90.4408 156.581 90.9936 156.58C91.5463 156.579 92.0257 157.04 92.1723 157.643C92.319 158.246 92.0584 158.708 91.5031 158.708C90.9477 158.708 90.4684 158.248 90.3243 157.645ZM91.7021 157.645C91.6118 157.272 91.3603 156.99 91.0866 156.99C90.8128 156.99 90.7015 157.264 90.7932 157.645C90.8849 158.027 91.1337 158.301 91.4101 158.301C91.6864 158.301 91.7951 158.023 91.7021 157.644V157.645Z" fill="#2F539B"/>
<path d="M140.826 157.651C140.682 157.055 140.943 156.585 141.496 156.585C142.048 156.585 142.529 157.045 142.674 157.648C142.82 158.251 142.56 158.712 142.005 158.713C141.45 158.715 140.973 158.254 140.826 157.651ZM142.205 157.651C142.115 157.277 141.862 156.996 141.589 156.996C141.315 156.996 141.203 157.271 141.296 157.651C141.389 158.031 141.636 158.306 141.912 158.306C142.188 158.306 142.297 158.028 142.204 157.648L142.205 157.651Z" fill="#2F539B"/>
<path d="M143.59 157.645C143.445 157.049 143.707 156.581 144.26 156.58C144.812 156.579 145.292 157.04 145.438 157.643C145.585 158.246 145.325 158.708 144.769 158.708C144.214 158.708 143.736 158.248 143.59 157.645ZM144.968 157.645C144.878 157.272 144.625 156.99 144.353 156.99C144.08 156.99 143.96 157.264 144.059 157.645C144.159 158.027 144.399 158.301 144.675 158.301C144.951 158.301 145.06 158.023 144.968 157.644V157.645Z" fill="#2F539B"/>
<path d="M332.972 8.60498H309.402V191.178H332.972V8.60498Z" fill="#2A5AA9"/>
<path d="M309.402 8.60498H242.434V192.301H309.402V8.60498Z" fill="#5C8ECA"/>
<path d="M304.913 35.168H247.672V179.955H304.913V35.168Z" fill="#27549A"/>
<path d="M245.24 95.7761C244.992 95.7761 244.754 95.6698 244.579 95.4807C244.403 95.2916 244.305 95.0351 244.305 94.7677V78.095C244.303 77.9612 244.325 77.8283 244.371 77.704C244.418 77.5797 244.486 77.4665 244.573 77.3711C244.66 77.2757 244.764 77.1999 244.878 77.1481C244.993 77.0964 245.116 77.0698 245.24 77.0698C245.364 77.0698 245.487 77.0964 245.602 77.1481C245.716 77.1999 245.82 77.2757 245.907 77.3711C245.994 77.4665 246.062 77.5797 246.109 77.704C246.155 77.8283 246.177 77.9612 246.175 78.095V94.7677C246.175 95.0351 246.077 95.2916 245.901 95.4807C245.726 95.6698 245.488 95.7761 245.24 95.7761Z" fill="#27549A"/>
<path d="M309.402 48.2622H306.783V60.6084H309.402V48.2622Z" fill="#27549A"/>
<path d="M309.402 149.276H306.783V160.5H309.402V149.276Z" fill="#27549A"/>
<path d="M304.165 56.8672H250.291V74.4511H304.165V56.8672Z" fill="#5782C2"/>
<path d="M304.165 78.1924H250.291V95.7763H304.165V78.1924Z" fill="#5782C2"/>
<path d="M304.165 98.395H250.291V115.605H304.165V98.395Z" fill="#5782C2"/>
<path d="M304.165 119.346H250.291V136.93H304.165V119.346Z" fill="#5782C2"/>
<path d="M304.165 139.549H250.291V157.133H304.165V139.549Z" fill="#5782C2"/>
<path d="M304.165 159.752H250.291V178.084H304.165V159.752Z" fill="#5782C2"/>
<path d="M304.165 36.6646H250.291V54.2485H304.165V36.6646Z" fill="#5782C2"/>
<path d="M297.804 41.1538H254.031V49.7587H297.804V41.1538Z" fill="#27549A"/>
<path d="M287.328 43.7729H255.527V47.1401H287.328V43.7729Z" fill="#5BBAE9"/>
<path d="M289.386 47.1399C290.109 47.1399 290.695 46.5536 290.695 45.8304C290.695 45.1073 290.109 44.521 289.386 44.521C288.662 44.521 288.076 45.1073 288.076 45.8304C288.076 46.5536 288.662 47.1399 289.386 47.1399Z" fill="#3E6AB3"/>
<path d="M293.128 47.1399C293.851 47.1399 294.437 46.5536 294.437 45.8304C294.437 45.1073 293.851 44.521 293.128 44.521C292.405 44.521 291.818 45.1073 291.818 45.8304C291.818 46.5536 292.405 47.1399 293.128 47.1399Z" fill="#5782C2"/>
<path d="M295.56 47.1399C295.766 47.1399 295.934 46.5536 295.934 45.8304C295.934 45.1073 295.766 44.521 295.56 44.521C295.353 44.521 295.186 45.1073 295.186 45.8304C295.186 46.5536 295.353 47.1399 295.56 47.1399Z" fill="#5782C2"/>
<path d="M297.804 62.105H254.031V71.084H297.804V62.105Z" fill="#27549A"/>
<path d="M287.328 64.7236H255.527V68.4649H287.328V64.7236Z" fill="#5BBAE9"/>
<path d="M297.804 83.4302H254.031V92.0351H297.804V83.4302Z" fill="#27549A"/>
<path d="M287.328 84.9268H255.527V89.4163H287.328V84.9268Z" fill="#5BBAE9"/>
<path d="M297.804 103.633H254.031V112.238H297.804V103.633Z" fill="#27549A"/>
<path d="M287.328 106.252H255.527V110.367H287.328V106.252Z" fill="#5BBAE9"/>
<path d="M297.804 123.835H254.031V132.44H297.804V123.835Z" fill="#27549A"/>
<path d="M287.328 126.455H255.527V129.822H287.328V126.455Z" fill="#5BBAE9"/>
<path d="M290.685 128.138C290.708 128.255 290.692 128.374 290.637 128.487C290.583 128.599 290.491 128.703 290.368 128.792C290.245 128.88 290.094 128.951 289.925 129C289.755 129.048 289.571 129.073 289.386 129.073C289.2 129.073 289.016 129.048 288.847 129C288.677 128.951 288.526 128.88 288.403 128.792C288.28 128.703 288.189 128.599 288.134 128.487C288.079 128.374 288.063 128.255 288.087 128.138C288.063 128.021 288.079 127.902 288.134 127.789C288.189 127.677 288.28 127.573 288.403 127.484C288.526 127.396 288.677 127.325 288.847 127.276C289.016 127.228 289.2 127.203 289.386 127.203C289.571 127.203 289.755 127.228 289.925 127.276C290.094 127.325 290.245 127.396 290.368 127.484C290.491 127.573 290.583 127.677 290.637 127.789C290.692 127.902 290.708 128.021 290.685 128.138Z" fill="#3E6AB3"/>
<path d="M294.437 128.539C294.425 128.649 294.338 128.755 294.187 128.843C294.035 128.932 293.827 129 293.587 129.038C293.346 129.077 293.085 129.084 292.835 129.059C292.585 129.035 292.358 128.979 292.181 128.9C292.004 128.82 291.885 128.72 291.839 128.612C291.794 128.504 291.823 128.393 291.924 128.292C292.024 128.191 292.192 128.105 292.406 128.044C292.62 127.984 292.871 127.951 293.127 127.951C293.482 127.956 293.818 128.02 294.063 128.13C294.308 128.24 294.443 128.387 294.437 128.539Z" fill="#5782C2"/>
<path d="M295.931 128.138C295.938 128.255 295.933 128.374 295.917 128.487C295.902 128.599 295.875 128.703 295.84 128.792C295.805 128.88 295.762 128.951 295.714 129C295.665 129.048 295.613 129.073 295.56 129.073C295.507 129.073 295.454 129.048 295.406 129C295.357 128.951 295.314 128.88 295.279 128.792C295.244 128.703 295.218 128.599 295.202 128.487C295.186 128.374 295.182 128.255 295.189 128.138C295.182 128.021 295.186 127.902 295.202 127.789C295.218 127.677 295.244 127.573 295.279 127.484C295.314 127.396 295.357 127.325 295.406 127.276C295.454 127.228 295.507 127.203 295.56 127.203C295.613 127.203 295.665 127.228 295.714 127.276C295.762 127.325 295.805 127.396 295.84 127.484C295.875 127.573 295.902 127.677 295.917 127.789C295.933 127.902 295.938 128.021 295.931 128.138Z" fill="#5782C2"/>
<path d="M297.804 144.787H254.031V153.392H297.804V144.787Z" fill="#27549A"/>
<path d="M287.328 146.657H255.527V150.773H287.328V146.657Z" fill="#5BBAE9"/>
<path d="M297.804 164.99H254.031V173.595H297.804V164.99Z" fill="#27549A"/>
<path d="M287.328 167.608H255.527V172.098H287.328V167.608Z" fill="#5BBAE9"/>
<path d="M290.685 169.666C290.708 169.83 290.692 169.996 290.637 170.154C290.583 170.312 290.491 170.457 290.368 170.581C290.245 170.705 290.094 170.804 289.925 170.872C289.755 170.94 289.571 170.975 289.386 170.975C289.2 170.975 289.016 170.94 288.847 170.872C288.677 170.804 288.526 170.705 288.403 170.581C288.28 170.457 288.189 170.312 288.134 170.154C288.079 169.996 288.063 169.83 288.087 169.666C288.063 169.502 288.079 169.336 288.134 169.178C288.189 169.02 288.28 168.874 288.403 168.751C288.526 168.627 288.677 168.528 288.847 168.46C289.016 168.392 289.2 168.356 289.386 168.356C289.571 168.356 289.755 168.392 289.925 168.46C290.094 168.528 290.245 168.627 290.368 168.751C290.491 168.874 290.583 169.02 290.637 169.178C290.692 169.336 290.708 169.502 290.685 169.666Z" fill="#3E6AB3"/>
<path d="M294.437 169.728C294.425 169.984 294.338 170.231 294.187 170.438C294.035 170.645 293.827 170.803 293.587 170.893C293.346 170.982 293.085 170.999 292.835 170.942C292.585 170.885 292.358 170.755 292.181 170.57C292.004 170.385 291.885 170.151 291.839 169.899C291.794 169.647 291.823 169.387 291.924 169.151C292.024 168.916 292.192 168.715 292.406 168.574C292.62 168.432 292.871 168.357 293.127 168.356C293.482 168.367 293.818 168.517 294.063 168.774C294.308 169.031 294.443 169.373 294.437 169.728Z" fill="#5782C2"/>
<path d="M295.931 169.666C295.938 169.83 295.933 169.996 295.917 170.154C295.902 170.312 295.875 170.457 295.84 170.581C295.805 170.705 295.762 170.804 295.714 170.872C295.665 170.94 295.613 170.975 295.56 170.975C295.507 170.975 295.454 170.94 295.406 170.872C295.357 170.804 295.314 170.705 295.279 170.581C295.244 170.457 295.218 170.312 295.202 170.154C295.186 169.996 295.182 169.83 295.189 169.666C295.182 169.502 295.186 169.336 295.202 169.178C295.218 169.02 295.244 168.874 295.279 168.751C295.314 168.627 295.357 168.528 295.406 168.46C295.454 168.392 295.507 168.356 295.56 168.356C295.613 168.356 295.665 168.392 295.714 168.46C295.762 168.528 295.805 168.627 295.84 168.751C295.875 168.874 295.902 169.02 295.917 169.178C295.933 169.336 295.938 169.502 295.931 169.666Z" fill="#5782C2"/>
<path d="M290.694 66.6301C290.682 66.7764 290.595 66.9174 290.444 67.0356C290.293 67.1539 290.084 67.2442 289.844 67.2954C289.604 67.3467 289.343 67.3565 289.093 67.3237C288.843 67.2909 288.616 67.217 288.439 67.1111C288.262 67.0052 288.143 66.8719 288.097 66.7278C288.051 66.5837 288.081 66.4351 288.181 66.3005C288.282 66.1658 288.45 66.051 288.664 65.9702C288.878 65.8895 289.128 65.8464 289.385 65.8462C289.561 65.8477 289.735 65.8693 289.897 65.9097C290.059 65.95 290.205 66.0084 290.327 66.0814C290.449 66.1543 290.544 66.2404 290.607 66.3346C290.67 66.4288 290.7 66.5293 290.694 66.6301Z" fill="#3E6AB3"/>
<path d="M294.437 66.6301C294.424 66.7764 294.337 66.9174 294.186 67.0356C294.035 67.1539 293.826 67.2442 293.586 67.2954C293.346 67.3467 293.085 67.3565 292.835 67.3237C292.585 67.2909 292.358 67.217 292.181 67.1111C292.004 67.0052 291.885 66.8719 291.839 66.7278C291.794 66.5837 291.823 66.4351 291.924 66.3005C292.024 66.1658 292.192 66.051 292.406 65.9702C292.62 65.8895 292.87 65.8464 293.127 65.8462C293.303 65.8477 293.478 65.8693 293.639 65.9097C293.801 65.95 293.947 66.0084 294.069 66.0814C294.191 66.1543 294.286 66.2404 294.349 66.3346C294.412 66.4288 294.442 66.5293 294.437 66.6301Z" fill="#5782C2"/>
<path d="M295.934 66.6301C295.93 66.7764 295.905 66.9174 295.862 67.0356C295.819 67.1539 295.759 67.2442 295.691 67.2954C295.622 67.3467 295.547 67.3565 295.476 67.3237C295.405 67.2909 295.34 67.217 295.289 67.1111C295.239 67.0052 295.205 66.8719 295.192 66.7278C295.178 66.5837 295.187 66.4351 295.216 66.3005C295.244 66.1658 295.292 66.051 295.353 65.9702C295.415 65.8895 295.486 65.8464 295.559 65.8462C295.61 65.8477 295.66 65.8693 295.706 65.9097C295.752 65.95 295.794 66.0084 295.829 66.0814C295.863 66.1543 295.891 66.2404 295.909 66.3346C295.927 66.4288 295.935 66.5293 295.934 66.6301Z" fill="#5782C2"/>
<path d="M290.685 87.3582C290.708 87.522 290.692 87.6884 290.637 87.8462C290.583 88.004 290.491 88.1497 290.368 88.2736C290.245 88.3974 290.094 88.4966 289.925 88.5646C289.755 88.6326 289.571 88.6677 289.386 88.6677C289.2 88.6677 289.016 88.6326 288.847 88.5646C288.677 88.4966 288.526 88.3974 288.403 88.2736C288.28 88.1497 288.189 88.004 288.134 87.8462C288.079 87.6884 288.063 87.522 288.087 87.3582C288.063 87.1945 288.079 87.0282 288.134 86.8703C288.189 86.7125 288.28 86.5668 288.403 86.443C288.526 86.3191 288.677 86.2199 288.847 86.1519C289.016 86.084 289.2 86.0488 289.386 86.0488C289.571 86.0488 289.755 86.084 289.925 86.1519C290.094 86.2199 290.245 86.3191 290.368 86.443C290.491 86.5668 290.583 86.7125 290.637 86.8703C290.692 87.0282 290.708 87.1945 290.685 87.3582Z" fill="#3E6AB3"/>
<path d="M294.437 87.4206C294.425 87.6766 294.338 87.9233 294.187 88.1303C294.035 88.3373 293.827 88.4954 293.587 88.585C293.346 88.6746 293.085 88.6918 292.835 88.6345C292.585 88.5772 292.358 88.4477 292.181 88.2624C292.004 88.077 291.885 87.8438 291.839 87.5917C291.794 87.3395 291.823 87.0795 291.924 86.8438C292.024 86.6082 292.192 86.4073 292.406 86.2659C292.62 86.1246 292.871 86.0491 293.127 86.0488C293.482 86.0597 293.818 86.2097 294.063 86.4664C294.308 86.7231 294.443 87.0658 294.437 87.4206Z" fill="#5782C2"/>
<path d="M295.931 87.3582C295.938 87.522 295.933 87.6884 295.917 87.8462C295.902 88.004 295.875 88.1497 295.84 88.2736C295.805 88.3974 295.762 88.4966 295.714 88.5646C295.665 88.6326 295.613 88.6677 295.56 88.6677C295.507 88.6677 295.454 88.6326 295.406 88.5646C295.357 88.4966 295.314 88.3974 295.279 88.2736C295.244 88.1497 295.218 88.004 295.202 87.8462C295.186 87.6884 295.182 87.522 295.189 87.3582C295.182 87.1945 295.186 87.0282 295.202 86.8703C295.218 86.7125 295.244 86.5668 295.279 86.443C295.314 86.3191 295.357 86.2199 295.406 86.1519C295.454 86.084 295.507 86.0488 295.56 86.0488C295.613 86.0488 295.665 86.084 295.714 86.1519C295.762 86.2199 295.805 86.3191 295.84 86.443C295.875 86.5668 295.902 86.7125 295.917 86.8703C295.933 87.0282 295.938 87.1945 295.931 87.3582Z" fill="#5782C2"/>
<path d="M289.386 109.619C290.109 109.619 290.695 109.033 290.695 108.309C290.695 107.586 290.109 107 289.386 107C288.662 107 288.076 107.586 288.076 108.309C288.076 109.033 288.662 109.619 289.386 109.619Z" fill="#3E6AB3"/>
<path d="M293.128 109.619C293.851 109.619 294.437 109.033 294.437 108.309C294.437 107.586 293.851 107 293.128 107C292.405 107 291.818 107.586 291.818 108.309C291.818 109.033 292.405 109.619 293.128 109.619Z" fill="#5782C2"/>
<path d="M295.56 109.619C295.766 109.619 295.934 109.033 295.934 108.309C295.934 107.586 295.766 107 295.56 107C295.353 107 295.186 107.586 295.186 108.309C295.186 109.033 295.353 109.619 295.56 109.619Z" fill="#5782C2"/>
<path d="M290.694 149.134C290.682 149.316 290.595 149.493 290.444 149.641C290.293 149.788 290.084 149.901 289.844 149.965C289.604 150.029 289.343 150.042 289.093 150.001C288.843 149.96 288.616 149.867 288.439 149.735C288.262 149.603 288.143 149.436 288.097 149.256C288.051 149.076 288.081 148.89 288.181 148.722C288.282 148.553 288.45 148.41 288.664 148.309C288.878 148.208 289.128 148.154 289.385 148.154C289.561 148.156 289.735 148.183 289.897 148.233C290.059 148.284 290.205 148.357 290.327 148.448C290.449 148.539 290.544 148.647 290.607 148.764C290.67 148.882 290.7 149.008 290.694 149.134Z" fill="#3E6AB3"/>
<path d="M294.437 149.134C294.424 149.316 294.337 149.493 294.186 149.641C294.035 149.788 293.826 149.901 293.586 149.965C293.346 150.029 293.085 150.042 292.835 150.001C292.585 149.96 292.358 149.867 292.181 149.735C292.004 149.603 291.885 149.436 291.839 149.256C291.794 149.076 291.823 148.89 291.924 148.722C292.024 148.553 292.192 148.41 292.406 148.309C292.62 148.208 292.87 148.154 293.127 148.154C293.303 148.156 293.478 148.183 293.639 148.233C293.801 148.284 293.947 148.357 294.069 148.448C294.191 148.539 294.286 148.647 294.349 148.764C294.412 148.882 294.442 149.008 294.437 149.134Z" fill="#5782C2"/>
<path d="M295.934 149.134C295.93 149.316 295.905 149.493 295.862 149.641C295.819 149.788 295.759 149.901 295.691 149.965C295.622 150.029 295.547 150.042 295.476 150.001C295.405 149.96 295.34 149.867 295.289 149.735C295.239 149.603 295.205 149.436 295.192 149.256C295.178 149.076 295.187 148.89 295.216 148.722C295.244 148.553 295.292 148.41 295.353 148.309C295.415 148.208 295.486 148.154 295.559 148.154C295.61 148.156 295.66 148.183 295.706 148.233C295.752 148.284 295.794 148.357 295.829 148.448C295.863 148.539 295.891 148.647 295.909 148.764C295.927 148.882 295.935 149.008 295.934 149.134Z" fill="#5782C2"/>
<path d="M310.899 8.60498H309.402V191.178H310.899V8.60498Z" fill="#4672B8"/>
<path d="M310.899 192.301H310.621V31.705H242.434V31.4268H310.899V192.301Z" fill="#14264D"/>
<path d="M309.402 97.2729H306.783V108.871H309.402V97.2729Z" fill="#27549A"/>
<path d="M274.235 20.2027H249.573L247.672 18.332H274.235V20.2027Z" fill="#27549A"/>
<path d="M274.235 22.8218H249.573L247.672 20.9512H274.235V22.8218Z" fill="#27549A"/>
<path d="M274.235 25.4405H249.573L247.672 23.5698H274.235V25.4405Z" fill="#27549A"/>
<path d="M274.235 28.8076H249.573L247.672 26.937H274.235V28.8076Z" fill="#27549A"/>
<path d="M304.913 20.2027H280.25L278.35 18.332H304.913V20.2027Z" fill="#27549A"/>
<path d="M304.913 22.8218H280.25L278.35 20.9512H304.913V22.8218Z" fill="#27549A"/>
<path d="M304.913 25.4405H280.25L278.35 23.5698H304.913V25.4405Z" fill="#27549A"/>
<path d="M304.913 28.8076H280.25L278.35 26.937H304.913V28.8076Z" fill="#27549A"/>
<path d="M330.354 35.168H314.641V46.3917H330.354V35.168Z" fill="#426EB6"/>
<path d="M330.354 49.7588H314.641V61.3567H330.354V49.7588Z" fill="#426EB6"/>
<path d="M330.354 66.5942H314.641V77.0698H330.354V66.5942Z" fill="#426EB6"/>
<path d="M330.354 82.3076H314.641V92.7831H330.354V82.3076Z" fill="#426EB6"/>
<path d="M330.354 99.1436H314.641V179.955H330.354V99.1436Z" fill="#426EB6"/>
<path d="M333.944 190.43H258.297C257.388 190.43 256.65 191.148 256.65 192.033V211.649C256.65 212.534 257.388 213.252 258.297 213.252H333.944C334.854 213.252 335.591 212.534 335.591 211.649V192.033C335.591 191.148 334.854 190.43 333.944 190.43Z" fill="#203B71"/>
<path d="M312.457 189.682L241.233 189.763C240.949 189.761 240.668 189.815 240.405 189.921C240.142 190.028 239.903 190.185 239.702 190.384C239.501 190.582 239.341 190.819 239.232 191.079C239.123 191.34 239.066 191.619 239.066 191.901V210.935C239.069 211.216 239.126 211.493 239.236 211.752C239.346 212.011 239.507 212.245 239.708 212.442C239.909 212.639 240.147 212.795 240.409 212.9C240.671 213.006 240.951 213.059 241.233 213.057L312.457 213.251C312.742 213.256 313.025 213.204 313.29 213.098C313.554 212.992 313.795 212.836 313.999 212.637C314.202 212.438 314.363 212.2 314.473 211.939C314.583 211.677 314.64 211.397 314.64 211.113V191.804C314.64 191.521 314.583 191.241 314.473 190.981C314.363 190.72 314.201 190.484 313.998 190.286C313.794 190.089 313.553 189.933 313.289 189.83C313.024 189.726 312.741 189.676 312.457 189.682Z" fill="#1D53A5"/>
<path d="M262.272 195.668H243.921C243.534 195.642 243.168 195.457 242.894 195.146C242.62 194.836 242.456 194.423 242.434 193.984C242.456 193.546 242.62 193.133 242.894 192.822C243.168 192.512 243.534 192.326 243.921 192.301H262.272C262.659 192.326 263.024 192.512 263.298 192.822C263.572 193.133 263.736 193.546 263.759 193.984C263.736 194.423 263.572 194.836 263.298 195.146C263.024 195.457 262.659 195.642 262.272 195.668Z" fill="#5782C2"/>
</g>
<defs>
<clipPath id="clip0_1419_4116">
<rect width="344.57" height="214" fill="white"/>
</clipPath>
</defs>
</svg>
