<svg width="200" height="202" viewBox="0 0 200 202" fill="none" xmlns="http://www.w3.org/2000/svg">
<g clip-path="url(#clip0_1413_1845)">
<path d="M189.242 138.182C170.675 182.701 121.217 207.641 78.329 200.913C71.35 199.818 52.2167 196.558 35.2765 181.174C2.66254 151.559 -4.31137 92.92 21.995 51.5915C41.1412 21.5137 75.4623 4.46344 108.075 5.31617C115.1 5.50014 142.021 6.63206 165.68 26.4988C169.155 29.4162 176.822 36.3506 183.728 47.348C199.948 73.181 201.342 109.169 189.242 138.182Z" fill="url(#paint0_linear_1413_1845)"/>
<path d="M1.10172 129.875C4.2724 116.295 14.6384 105.635 27.835 102.374C36.9079 100.133 45.6127 101.336 52.9704 104.972C55.4144 106.176 58.3105 104.813 58.9869 102.115C65.4907 76.1728 88.3806 57.0073 115.623 57.0073C147.925 57.0073 174.111 83.9548 174.111 117.195C174.111 118.078 174.094 119.283 174.079 120.442C174.193 122.928 175.247 123.983 176.822 124.248C189.478 125.604 199.424 136.341 199.976 149.583C200.61 164.788 188.584 177.386 173.794 177.386H36.9941C13.5753 177.38 -4.76019 154.988 1.10172 129.875Z" fill="url(#paint1_linear_1413_1845)"/>
<path opacity="0.21" d="M11.6967 134.964C14.5274 122.839 23.7828 113.321 35.5663 110.41C43.6673 108.408 51.4391 109.483 58.0083 112.725C60.187 113.801 62.7762 112.581 63.38 110.175C69.1873 87.0122 89.6253 69.8999 113.948 69.8999C142.79 69.8999 166.171 93.9603 166.171 123.64C166.171 124.428 166.156 125.504 166.142 126.536C166.244 128.756 167.186 129.698 168.592 129.935C179.892 131.146 188.772 140.732 189.265 152.555C189.831 166.132 179.094 177.38 165.888 177.38H43.7435C22.834 177.38 6.46233 157.387 11.6967 134.964Z" fill="#91B3FA"/>
<path d="M27.5801 193.647C27.5828 194.183 27.7964 194.696 28.1744 195.074C28.5523 195.453 29.064 195.666 29.5978 195.667H138.713C139.247 195.666 139.759 195.453 140.137 195.074C140.515 194.696 140.728 194.183 140.731 193.647L141.639 130.713C141.639 129.601 140.333 127.428 137.939 127.592L31.2993 124.822C30.6106 124.804 29.9254 124.926 29.2853 125.182C28.6452 125.438 28.0635 125.821 27.5756 126.309C27.0876 126.797 26.7036 127.38 26.4467 128.022C26.1899 128.663 26.0656 129.35 26.0814 130.042L27.5801 193.647Z" fill="url(#paint2_linear_1413_1845)"/>
<path d="M29.5733 191.706C29.5748 192.214 29.7765 192.7 30.1342 193.059C30.4919 193.418 30.9766 193.621 31.4825 193.622H136.085C136.591 193.621 137.076 193.418 137.434 193.059C137.791 192.7 137.993 192.214 137.995 191.706L138.851 134.575C138.751 131.136 135.748 129.901 133.927 129.973L31.7197 127.222C31.2356 127.209 30.754 127.295 30.3041 127.475C29.8542 127.655 29.4454 127.925 29.1025 128.268C28.7597 128.611 28.4899 129.021 28.3096 129.472C28.1293 129.923 28.0423 130.406 28.0537 130.892L29.5733 191.706Z" fill="#7D97F4"/>
<path d="M136.861 164.564C136.824 164.564 136.787 164.556 136.753 164.541C136.719 164.527 136.688 164.505 136.662 164.478C136.636 164.451 136.616 164.42 136.603 164.385C136.589 164.35 136.583 164.313 136.584 164.276L136.652 159.643C136.653 159.569 136.682 159.498 136.735 159.447C136.787 159.395 136.858 159.366 136.931 159.366C136.968 159.366 137.005 159.374 137.039 159.389C137.074 159.403 137.104 159.425 137.13 159.452C137.156 159.479 137.176 159.51 137.19 159.545C137.203 159.58 137.21 159.617 137.209 159.654L137.141 164.288C137.14 164.362 137.11 164.432 137.058 164.484C137.005 164.536 136.934 164.565 136.861 164.564Z" fill="white"/>
<path d="M137.027 153.21H137.023C136.986 153.21 136.95 153.202 136.916 153.187C136.882 153.173 136.852 153.152 136.826 153.125C136.801 153.099 136.781 153.067 136.767 153.033C136.754 152.999 136.747 152.962 136.748 152.925L137.007 135.178C137.002 134.124 136.684 133.282 136.059 132.683C134.895 131.562 133.046 131.62 132.968 131.624L100.302 130.744C100.228 130.742 100.157 130.711 100.106 130.657C100.055 130.602 100.027 130.53 100.029 130.456C100.029 130.418 100.036 130.381 100.05 130.347C100.065 130.312 100.086 130.281 100.113 130.256C100.14 130.23 100.172 130.21 100.207 130.197C100.242 130.185 100.28 130.18 100.317 130.182L132.964 131.062C133.167 131.049 135.136 131.016 136.447 132.277C137.185 132.986 137.561 133.963 137.567 135.18L137.307 152.934C137.306 153.008 137.276 153.078 137.224 153.13C137.171 153.181 137.101 153.21 137.027 153.21Z" fill="white"/>
<path d="M19.1351 200.895L146.965 200.895C147.189 200.895 147.371 200.712 147.371 200.487V195.772C147.371 195.547 147.189 195.365 146.965 195.365L19.1351 195.365C18.9108 195.365 18.729 195.547 18.729 195.772V200.487C18.729 200.712 18.9108 200.895 19.1351 200.895Z" fill="url(#paint3_linear_1413_1845)"/>
<path d="M74.9529 190.835H34.6793C33.9661 190.835 33.2821 190.551 32.7778 190.045C32.2735 189.539 31.9902 188.852 31.9902 188.136V135.375C31.9903 135.012 32.0633 134.653 32.2049 134.319C32.3466 133.985 32.5539 133.683 32.8146 133.431C33.0753 133.179 33.3839 132.983 33.7219 132.854C34.06 132.724 34.4206 132.665 34.7821 132.679L75.0571 134.226C75.7522 134.252 76.4102 134.548 76.8928 135.05C77.3754 135.553 77.645 136.224 77.6448 136.922V188.136C77.6449 188.491 77.5754 188.842 77.4401 189.17C77.3048 189.498 77.1064 189.795 76.8564 190.046C76.6064 190.297 76.3096 190.495 75.9829 190.631C75.6563 190.766 75.3063 190.836 74.9529 190.835Z" fill="#91B3FA"/>
<path opacity="0.51" d="M66.9432 153.376H40.2659C40.0543 153.376 39.8828 153.549 39.8828 153.761V156.55C39.8828 156.762 40.0543 156.935 40.2659 156.935H66.9432C67.1548 156.935 67.3263 156.762 67.3263 156.55V153.761C67.3263 153.549 67.1548 153.376 66.9432 153.376Z" fill="white"/>
<path opacity="0.51" d="M66.9959 159.059H40.3187C40.1071 159.059 39.9355 159.231 39.9355 159.443V162.232C39.9355 162.445 40.1071 162.617 40.3187 162.617H66.9959C67.2075 162.617 67.3791 162.445 67.3791 162.232V159.443C67.3791 159.231 67.2075 159.059 66.9959 159.059Z" fill="white"/>
<path opacity="0.51" d="M67.158 164.86H40.4808C40.2692 164.86 40.0977 165.033 40.0977 165.245V168.034C40.0977 168.246 40.2692 168.418 40.4808 168.418H67.158C67.3696 168.418 67.5412 168.246 67.5412 168.034V165.245C67.5412 165.033 67.3696 164.86 67.158 164.86Z" fill="white"/>
<path opacity="0.51" d="M67.2127 170.542H40.5355C40.3239 170.542 40.1523 170.714 40.1523 170.927V173.716C40.1523 173.928 40.3239 174.1 40.5355 174.1H67.2127C67.4243 174.1 67.5959 173.928 67.5959 173.716V170.927C67.5959 170.714 67.4243 170.542 67.2127 170.542Z" fill="white"/>
<path opacity="0.51" d="M125.447 153.372H86.7581C86.5465 153.372 86.375 153.544 86.375 153.757V156.546C86.375 156.758 86.5465 156.93 86.7581 156.93H125.447C125.659 156.93 125.831 156.758 125.831 156.546V153.757C125.831 153.544 125.659 153.372 125.447 153.372Z" fill="white"/>
<path opacity="0.51" d="M125.569 159.059H86.8792C86.6676 159.059 86.4961 159.231 86.4961 159.443V162.232C86.4961 162.445 86.6676 162.617 86.8792 162.617H125.569C125.78 162.617 125.952 162.445 125.952 162.232V159.443C125.952 159.231 125.78 159.059 125.569 159.059Z" fill="white"/>
<path opacity="0.51" d="M109.492 164.86H86.8792C86.6676 164.86 86.4961 165.033 86.4961 165.245V168.034C86.4961 168.246 86.6676 168.418 86.8792 168.418H109.492C109.704 168.418 109.875 168.246 109.875 168.034V165.245C109.875 165.033 109.704 164.86 109.492 164.86Z" fill="white"/>
<g opacity="0.51">
<path d="M107.321 140.111H106.72C106.577 140.111 106.439 140.054 106.338 139.952C106.237 139.85 106.18 139.712 106.18 139.568V137.504C106.18 137.15 106.039 136.81 105.79 136.56C105.54 136.309 105.201 136.168 104.848 136.168H101.125C100.771 136.168 100.433 136.309 100.183 136.56C99.9332 136.81 99.7928 137.15 99.7926 137.504V139.566C99.7926 139.71 99.7358 139.848 99.6346 139.95C99.5333 140.051 99.396 140.109 99.2528 140.109H98.6519C98.5085 140.109 98.371 140.052 98.2697 139.95C98.1683 139.848 98.1113 139.71 98.1113 139.566V137.504C98.1113 137.107 98.1893 136.714 98.3407 136.347C98.4922 135.98 98.7141 135.647 98.9939 135.366C99.2738 135.085 99.6059 134.863 99.9715 134.711C100.337 134.559 100.729 134.481 101.125 134.481H104.848C105.244 134.481 105.636 134.559 106.001 134.711C106.367 134.863 106.699 135.085 106.979 135.366C107.259 135.647 107.48 135.98 107.632 136.347C107.783 136.714 107.861 137.107 107.861 137.504V139.566C107.862 139.638 107.848 139.709 107.821 139.775C107.794 139.841 107.754 139.901 107.704 139.951C107.654 140.002 107.594 140.042 107.528 140.069C107.462 140.097 107.392 140.111 107.321 140.111Z" fill="white"/>
<path d="M108.066 140.597H97.9064C97.6074 140.597 97.3207 140.717 97.1094 140.929C96.898 141.141 96.7793 141.429 96.7793 141.729V149.552C96.7793 149.852 96.898 150.14 97.1094 150.352C97.3208 150.564 97.6075 150.683 97.9064 150.683H108.066C108.365 150.683 108.652 150.564 108.863 150.352C109.074 150.14 109.193 149.852 109.193 149.552V141.729C109.193 141.429 109.074 141.141 108.863 140.929C108.652 140.717 108.365 140.597 108.066 140.597ZM104.44 148.161C104.454 148.222 104.455 148.286 104.442 148.348C104.428 148.41 104.401 148.468 104.362 148.518C104.323 148.568 104.273 148.608 104.216 148.636C104.159 148.664 104.097 148.678 104.034 148.678H101.942C101.879 148.678 101.816 148.664 101.759 148.636C101.703 148.608 101.653 148.568 101.614 148.518C101.575 148.468 101.547 148.41 101.534 148.348C101.52 148.286 101.521 148.222 101.536 148.161L102.024 146.118C101.67 145.906 101.395 145.584 101.242 145.2C101.088 144.816 101.064 144.392 101.173 143.993C101.283 143.594 101.52 143.242 101.848 142.991C102.176 142.741 102.577 142.605 102.989 142.605C103.401 142.605 103.802 142.741 104.13 142.991C104.458 143.242 104.695 143.594 104.805 143.993C104.914 144.392 104.89 144.816 104.737 145.2C104.583 145.584 104.308 145.906 103.954 146.118L104.44 148.161Z" fill="white"/>
</g>
<path d="M136.894 48.7547C136.853 48.7549 136.813 48.7444 136.777 48.7244C136.721 48.693 136.679 48.6407 136.662 48.5787C136.644 48.5167 136.652 48.4503 136.683 48.3939C136.839 48.1126 136.99 47.8293 137.136 47.5441C137.166 47.4867 137.217 47.4434 137.278 47.4237C137.339 47.404 137.406 47.4096 137.463 47.4391C137.52 47.4687 137.563 47.5198 137.583 47.5813C137.603 47.6428 137.597 47.7096 137.568 47.767C137.419 48.0556 137.265 48.3442 137.107 48.6327C137.085 48.6703 137.054 48.7014 137.017 48.7229C136.98 48.7443 136.937 48.7553 136.894 48.7547Z" fill="#91B3FA"/>
<path d="M108.584 65.4774C108.44 65.4774 108.297 65.4774 108.153 65.4774C108.091 65.474 108.033 65.4469 107.99 65.4018C107.947 65.3566 107.924 65.2968 107.924 65.2346C107.924 65.1724 107.947 65.1126 107.99 65.0674C108.033 65.0223 108.091 64.9952 108.153 64.9919C108.779 65.0005 109.411 64.9918 110.035 64.9615C110.099 64.9594 110.162 64.9824 110.209 65.0256C110.256 65.0689 110.285 65.129 110.288 65.1931C110.291 65.2575 110.268 65.3203 110.225 65.3678C110.182 65.4154 110.122 65.4439 110.058 65.4471C109.575 65.4665 109.076 65.4774 108.584 65.4774ZM105.082 65.2891H105.055C104.424 65.2169 103.786 65.1318 103.162 65.0272C103.129 65.0233 103.098 65.0129 103.07 64.9965C103.041 64.9801 103.016 64.958 102.997 64.9317C102.977 64.9054 102.963 64.8753 102.955 64.8433C102.947 64.8114 102.946 64.7781 102.951 64.7457C102.957 64.7132 102.969 64.6822 102.987 64.6545C103.004 64.6268 103.027 64.603 103.055 64.5845C103.082 64.566 103.112 64.5533 103.144 64.547C103.177 64.5408 103.21 64.5412 103.242 64.5482C103.857 64.6513 104.485 64.7386 105.111 64.8057C105.172 64.8125 105.229 64.8426 105.269 64.8899C105.309 64.9372 105.33 64.998 105.326 65.0601C105.323 65.1221 105.296 65.1805 105.252 65.2233C105.207 65.2662 105.147 65.2902 105.086 65.2905L105.082 65.2891ZM113.126 65.1585C113.065 65.1577 113.007 65.134 112.962 65.0921C112.918 65.0502 112.891 64.9932 112.887 64.9324C112.883 64.8716 112.902 64.8114 112.939 64.7637C112.977 64.7161 113.032 64.6845 113.092 64.6751C113.711 64.5879 114.336 64.4804 114.948 64.357C114.98 64.349 115.013 64.3476 115.046 64.3528C115.078 64.358 115.109 64.3697 115.137 64.3873C115.164 64.4048 115.188 64.4278 115.207 64.4549C115.225 64.482 115.238 64.5126 115.245 64.5448C115.251 64.577 115.251 64.6102 115.244 64.6424C115.238 64.6746 115.225 64.7051 115.206 64.7321C115.187 64.759 115.163 64.7819 115.135 64.7993C115.107 64.8166 115.076 64.8282 115.044 64.8331C114.422 64.9587 113.788 65.0676 113.159 65.1563L113.126 65.1585ZM100.187 64.3736C100.166 64.3736 100.145 64.3706 100.124 64.3649C99.5105 64.2012 98.8945 64.0165 98.2928 63.8159C98.2627 63.8059 98.2348 63.7901 98.2107 63.7693C98.1867 63.7484 98.1669 63.7231 98.1526 63.6946C98.1384 63.6661 98.1298 63.6351 98.1275 63.6033C98.1251 63.5715 98.129 63.5396 98.139 63.5093C98.149 63.479 98.1648 63.451 98.1855 63.4269C98.2063 63.4028 98.2315 63.383 98.2599 63.3686C98.2883 63.3543 98.3192 63.3457 98.3508 63.3433C98.3825 63.341 98.4143 63.3449 98.4445 63.3549C99.0382 63.5519 99.6449 63.7344 100.249 63.896C100.305 63.9115 100.354 63.947 100.386 63.9958C100.419 64.0447 100.432 64.1036 100.425 64.1618C100.417 64.22 100.389 64.2735 100.345 64.3124C100.302 64.3513 100.245 64.3731 100.187 64.3736ZM117.983 64.085C117.925 64.0851 117.869 64.0643 117.825 64.0264C117.781 63.9885 117.752 63.9359 117.743 63.8784C117.735 63.8208 117.747 63.762 117.778 63.7127C117.808 63.6634 117.856 63.6268 117.911 63.6096C118.512 63.4278 119.112 63.2251 119.698 63.0086C119.757 62.9889 119.822 62.9933 119.879 63.0206C119.935 63.048 119.979 63.0964 120.001 63.1555C120.022 63.2146 120.02 63.2798 119.995 63.3375C119.97 63.3952 119.923 63.4407 119.865 63.4646C119.271 63.681 118.66 63.8895 118.052 64.0749C118.031 64.0804 118.008 64.0828 117.986 64.0821L117.983 64.085ZM95.4916 62.7194C95.458 62.7194 95.4247 62.7125 95.3939 62.6992C94.8123 62.4416 94.2315 62.1639 93.6687 61.8738C93.6115 61.8444 93.5683 61.7933 93.5487 61.7319C93.529 61.6705 93.5344 61.6037 93.5638 61.5463C93.5931 61.4889 93.644 61.4456 93.7052 61.4258C93.7664 61.4061 93.8329 61.4115 93.8901 61.441C94.4443 61.7296 95.0165 62.0001 95.5894 62.2533C95.6401 62.2759 95.6815 62.3153 95.7068 62.3648C95.732 62.4144 95.7395 62.4712 95.7281 62.5257C95.7167 62.5801 95.6869 62.629 95.6439 62.6642C95.6008 62.6993 95.5471 62.7185 95.4916 62.7186V62.7194ZM122.621 62.2713C122.566 62.2711 122.513 62.2523 122.471 62.218C122.428 62.1836 122.398 62.1358 122.386 62.0823C122.374 62.0288 122.38 61.9727 122.404 61.9232C122.427 61.8737 122.467 61.8337 122.516 61.8096C123.079 61.5377 123.641 61.2447 124.188 60.9389C124.244 60.9075 124.31 60.8998 124.372 60.9174C124.434 60.9351 124.486 60.9767 124.518 61.033C124.549 61.0894 124.557 61.1559 124.539 61.2179C124.521 61.2799 124.48 61.3324 124.424 61.3638C123.868 61.674 123.297 61.9712 122.725 62.2475C122.693 62.262 122.659 62.2691 122.624 62.2685L122.621 62.2713ZM91.1083 60.3581C91.0618 60.3583 91.0163 60.3447 90.9775 60.3192C90.4434 59.9758 89.9122 59.6114 89.3961 59.237C89.3704 59.2181 89.3486 59.1942 89.3321 59.1668C89.3155 59.1395 89.3045 59.1091 89.2997 59.0774C89.2949 59.0458 89.2963 59.0135 89.3039 58.9824C89.3115 58.9513 89.3251 58.922 89.344 58.8961C89.3629 58.8703 89.3866 58.8485 89.4139 58.8319C89.4412 58.8153 89.4715 58.8043 89.503 58.7994C89.5346 58.7945 89.5667 58.796 89.5977 58.8036C89.6287 58.8112 89.6579 58.8249 89.6836 58.8438C90.1868 59.2132 90.7108 59.5718 91.2377 59.9108C91.2815 59.9393 91.3151 59.9812 91.3332 60.0303C91.3514 60.0795 91.3533 60.1332 91.3386 60.1835C91.3239 60.2338 91.2934 60.2779 91.2516 60.3094C91.2099 60.3409 91.1591 60.358 91.1069 60.3581H91.1083ZM126.925 59.7608C126.873 59.7608 126.823 59.7442 126.781 59.7136C126.739 59.6829 126.709 59.6397 126.693 59.5902C126.678 59.5408 126.679 59.4877 126.695 59.4387C126.712 59.3897 126.744 59.3473 126.787 59.3178C127.301 58.9614 127.813 58.5848 128.306 58.1989C128.356 58.1586 128.421 58.14 128.485 58.1473C128.549 58.1545 128.607 58.187 128.647 58.2375C128.687 58.288 128.706 58.3524 128.699 58.4166C128.691 58.4808 128.659 58.5395 128.609 58.5798C128.106 58.9715 127.589 59.3539 127.067 59.716C127.026 59.7439 126.977 59.7585 126.927 59.7579L126.925 59.7608ZM87.1405 57.3462C87.0815 57.3461 87.0245 57.3246 86.9802 57.2856C86.5065 56.8642 86.0378 56.4198 85.5864 55.9726C85.562 55.9505 85.5424 55.9237 85.5286 55.8938C85.5149 55.8639 85.5073 55.8314 85.5064 55.7985C85.5055 55.7656 85.5113 55.7328 85.5235 55.7022C85.5356 55.6716 85.5538 55.6438 85.5769 55.6204C85.6001 55.5971 85.6277 55.5787 85.6582 55.5664C85.6887 55.5541 85.7213 55.5482 85.7541 55.5489C85.7869 55.5497 85.8192 55.5571 85.8491 55.5708C85.879 55.5844 85.9058 55.6041 85.9278 55.6284C86.3721 56.0714 86.8343 56.5071 87.3015 56.9212C87.3382 56.954 87.3642 56.9972 87.3759 57.0451C87.3876 57.093 87.3845 57.1433 87.3671 57.1895C87.3496 57.2356 87.3186 57.2752 87.2781 57.3032C87.2376 57.3312 87.1896 57.3462 87.1405 57.3462ZM130.796 56.6175C130.748 56.6176 130.7 56.6031 130.66 56.5758C130.62 56.5485 130.589 56.5097 130.571 56.4644C130.553 56.4192 130.549 56.3695 130.559 56.322C130.57 56.2744 130.594 56.2311 130.629 56.1976C131.085 55.7648 131.534 55.3168 131.962 54.8615C132.007 54.8176 132.067 54.7928 132.129 54.7922C132.192 54.7916 132.252 54.8153 132.298 54.8584C132.343 54.9015 132.37 54.9606 132.373 55.0233C132.376 55.086 132.355 55.1475 132.314 55.1948C131.879 55.6573 131.424 56.1132 130.962 56.5511C130.917 56.5918 130.859 56.6145 130.799 56.6146L130.796 56.6175ZM83.6751 53.7606C83.6395 53.7605 83.6044 53.7526 83.5723 53.7374C83.5401 53.7222 83.5116 53.7001 83.4889 53.6726C83.0835 53.1842 82.6867 52.6763 82.3086 52.1634C82.273 52.1114 82.2589 52.0476 82.2694 51.9854C82.2798 51.9232 82.3138 51.8675 82.3644 51.8301C82.415 51.7926 82.478 51.7764 82.5403 51.7847C82.6026 51.7931 82.6592 51.8254 82.6982 51.8748C83.0706 52.3798 83.4616 52.8805 83.8612 53.3624C83.8906 53.3979 83.9092 53.4411 83.915 53.4868C83.9208 53.5326 83.9135 53.5791 83.894 53.6208C83.8745 53.6626 83.8435 53.6979 83.8048 53.7226C83.766 53.7474 83.721 53.7606 83.6751 53.7606ZM134.145 52.9238C134.091 52.9239 134.039 52.9059 133.997 52.8726C133.972 52.853 133.951 52.8286 133.935 52.8008C133.919 52.7731 133.909 52.7425 133.905 52.7108C133.901 52.6791 133.904 52.6469 133.912 52.6161C133.921 52.5854 133.935 52.5565 133.955 52.5313C134.34 52.0343 134.714 51.5213 135.067 51.007C135.105 50.9573 135.16 50.9241 135.222 50.9142C135.283 50.9043 135.346 50.9184 135.397 50.9538C135.448 50.9891 135.484 51.0429 135.497 51.1039C135.51 51.165 135.499 51.2287 135.466 51.2818C135.107 51.8049 134.728 52.3257 134.336 52.83C134.314 52.8584 134.285 52.8812 134.252 52.897C134.22 52.9127 134.184 52.9209 134.148 52.9209L134.145 52.9238ZM80.7919 49.6889C80.7501 49.6888 80.709 49.6779 80.6726 49.6571C80.6362 49.6364 80.6057 49.6066 80.5842 49.5706C80.2564 49.0223 79.9416 48.4596 79.6497 47.8969C79.6201 47.8395 79.6144 47.7726 79.6339 47.711C79.6533 47.6494 79.6964 47.598 79.7536 47.5683C79.8108 47.5385 79.8774 47.5328 79.9388 47.5523C80.0002 47.5719 80.0514 47.6151 80.081 47.6725C80.3685 48.2259 80.6798 48.7806 81.0025 49.321C81.0247 49.3578 81.0368 49.3998 81.0374 49.4428C81.0381 49.4858 81.0273 49.5282 81.0062 49.5657C80.9852 49.6032 80.9545 49.6343 80.9175 49.656C80.8805 49.6776 80.8384 49.689 80.7955 49.6889H80.7919ZM78.5636 45.2204C78.5154 45.2203 78.4683 45.2058 78.4283 45.1787C78.3884 45.1515 78.3574 45.1131 78.3393 45.0682C78.1 44.4766 77.8757 43.872 77.6723 43.2704C77.6543 43.21 77.6603 43.145 77.6891 43.0891C77.7179 43.0331 77.7672 42.9906 77.8267 42.9704C77.8861 42.9502 77.951 42.9539 78.0078 42.9808C78.0645 43.0077 78.1087 43.0556 78.1309 43.1145C78.3307 43.7068 78.5521 44.3027 78.7879 44.8856C78.8028 44.9225 78.8085 44.9626 78.8045 45.0022C78.8004 45.0418 78.7867 45.0799 78.7645 45.1129C78.7424 45.146 78.7125 45.1731 78.6774 45.1918C78.6424 45.2106 78.6033 45.2204 78.5636 45.2204Z" fill="#91B3FA"/>
<path d="M77.0565 40.4449C77.002 40.4449 76.949 40.4265 76.9063 40.3926C76.8635 40.3587 76.8333 40.3113 76.8207 40.258C76.7469 39.9396 76.6774 39.621 76.6123 39.3021C76.5995 39.2391 76.6122 39.1735 76.6476 39.1199C76.683 39.0663 76.7381 39.0289 76.801 39.0161C76.8638 39.0033 76.9291 39.016 76.9825 39.0515C77.036 39.0871 77.0732 39.1424 77.086 39.2055C77.1497 39.52 77.2185 39.8326 77.2923 40.1433C77.3057 40.2055 77.2943 40.2706 77.2606 40.3245C77.2269 40.3784 77.1735 40.417 77.1118 40.4319C77.0938 40.438 77.0753 40.4424 77.0565 40.4449Z" fill="#91B3FA"/>
<path d="M81.1598 15.6772C81.1166 15.6771 81.0742 15.6654 81.0369 15.6434C80.9997 15.6213 80.9691 15.5896 80.9482 15.5516C80.9273 15.5136 80.9169 15.4707 80.9181 15.4273C80.9193 15.384 80.932 15.3417 80.955 15.3049C81.1284 15.0293 81.3057 14.7559 81.4869 14.4847C81.5236 14.4333 81.5788 14.3983 81.6408 14.3871C81.7028 14.376 81.7666 14.3894 81.8189 14.4247C81.8711 14.46 81.9077 14.5143 81.9207 14.5761C81.9337 14.6379 81.9222 14.7024 81.8887 14.7559C81.709 15.0229 81.5343 15.2922 81.3647 15.5639C81.3428 15.5986 81.3125 15.6271 81.2767 15.6469C81.2409 15.6667 81.2007 15.6771 81.1598 15.6772Z" fill="#91B3FA"/>
<path d="M139.646 23.8134C139.593 23.8135 139.543 23.7965 139.501 23.765C139.459 23.7336 139.428 23.6893 139.414 23.6389C139.229 23.0054 139.021 22.3706 138.798 21.7494C138.786 21.7192 138.78 21.6869 138.781 21.6544C138.782 21.6219 138.789 21.59 138.803 21.5604C138.816 21.5308 138.835 21.5042 138.859 21.4822C138.883 21.4602 138.911 21.4432 138.941 21.4322C138.972 21.4212 139.004 21.4165 139.036 21.4182C139.069 21.42 139.1 21.4282 139.129 21.4425C139.159 21.4567 139.184 21.4766 139.206 21.5011C139.227 21.5256 139.243 21.5541 139.253 21.585C139.48 22.214 139.69 22.859 139.878 23.5018C139.887 23.5324 139.89 23.5645 139.887 23.5962C139.883 23.628 139.874 23.6587 139.858 23.6867C139.843 23.7148 139.823 23.7395 139.798 23.7595C139.773 23.7795 139.745 23.7944 139.714 23.8033C139.692 23.8102 139.669 23.8136 139.646 23.8134ZM137.77 18.9077C137.725 18.9075 137.681 18.8945 137.643 18.8702C137.605 18.846 137.574 18.8115 137.555 18.7707C137.267 18.1748 136.962 17.581 136.641 17.0068C136.612 16.9507 136.605 16.8852 136.623 16.8244C136.641 16.7636 136.682 16.7123 136.737 16.6813C136.792 16.6503 136.857 16.6422 136.918 16.6587C136.979 16.6751 137.032 16.7149 137.064 16.7694C137.389 17.3523 137.701 17.9547 137.99 18.56C138.004 18.5887 138.012 18.6199 138.014 18.6517C138.016 18.6835 138.011 18.7154 138.001 18.7455C137.99 18.7755 137.974 18.8033 137.953 18.827C137.932 18.8508 137.906 18.8701 137.878 18.8839C137.844 18.9011 137.808 18.9103 137.77 18.9106V18.9077ZM135.128 14.3757C135.089 14.3758 135.05 14.3664 135.016 14.3483C134.981 14.3302 134.951 14.304 134.929 14.2718C134.553 13.7322 134.154 13.1962 133.744 12.6796C133.706 12.6291 133.688 12.5653 133.696 12.5021C133.704 12.4388 133.736 12.3811 133.786 12.3414C133.835 12.3017 133.898 12.2832 133.962 12.2897C134.025 12.2963 134.083 12.3275 134.123 12.3766C134.539 12.9018 134.944 13.4458 135.326 13.9934C135.351 14.0297 135.366 14.0724 135.369 14.1167C135.372 14.1609 135.363 14.2052 135.342 14.2446C135.322 14.284 135.291 14.317 135.253 14.3401C135.216 14.3632 135.172 14.3756 135.128 14.3757ZM83.6281 12.2554C83.5822 12.2554 83.5373 12.2423 83.4986 12.2175C83.4599 12.1928 83.429 12.1575 83.4095 12.1158C83.39 12.0741 83.3828 12.0277 83.3887 11.982C83.3946 11.9364 83.4133 11.8933 83.4426 11.8579C83.8667 11.3443 84.3146 10.8357 84.7724 10.3429C84.817 10.2988 84.8769 10.2737 84.9396 10.2729C85.0022 10.2722 85.0627 10.2958 85.1083 10.3388C85.154 10.3818 85.1813 10.4409 85.1844 10.5037C85.1876 10.5665 85.1664 10.6281 85.1254 10.6755C84.674 11.1581 84.2333 11.6595 83.815 12.1653C83.7927 12.1937 83.7643 12.2169 83.732 12.233C83.6997 12.2491 83.6642 12.2577 83.6281 12.2583V12.2554ZM131.793 10.3285C131.76 10.3287 131.728 10.3224 131.699 10.31C131.669 10.2976 131.642 10.2794 131.619 10.2564C131.163 9.78455 130.684 9.31851 130.198 8.8741C130.175 8.85265 130.156 8.82673 130.142 8.79784C130.128 8.76896 130.121 8.73765 130.119 8.70573C130.118 8.67381 130.122 8.6419 130.133 8.6118C130.144 8.58171 130.16 8.55403 130.182 8.53034C130.203 8.50666 130.229 8.48743 130.258 8.47376C130.286 8.46009 130.318 8.45224 130.349 8.45067C130.381 8.4491 130.413 8.45382 130.443 8.46459C130.473 8.47535 130.5 8.49193 130.524 8.51339C131.019 8.96573 131.504 9.43754 131.967 9.91657C132.011 9.96291 132.036 10.0251 132.035 10.0895C132.034 10.1538 132.007 10.2152 131.961 10.26C131.939 10.2824 131.913 10.3003 131.884 10.3125C131.855 10.3248 131.824 10.3312 131.793 10.3314V10.3285ZM87.2818 8.4968C87.2327 8.49656 87.1848 8.48134 87.1445 8.45315C87.1042 8.42496 87.0734 8.38513 87.0561 8.33896C87.0389 8.29279 87.0361 8.24244 87.048 8.19461C87.0599 8.14678 87.0861 8.10373 87.123 8.07115C87.6261 7.62964 88.1494 7.19895 88.6763 6.7899C88.7015 6.77038 88.7303 6.75604 88.761 6.74769C88.7917 6.73934 88.8238 6.73714 88.8554 6.74123C88.887 6.74531 88.9174 6.7556 88.945 6.7715C88.9726 6.78741 88.9969 6.80861 89.0163 6.8339C89.0357 6.8592 89.05 6.88809 89.0584 6.91893C89.0667 6.94977 89.0689 6.98195 89.0648 7.01363C89.0607 7.04532 89.0505 7.0759 89.0346 7.10361C89.0188 7.13132 88.9977 7.15563 88.9725 7.17514C88.4528 7.57698 87.9374 8.0019 87.4414 8.43692C87.3977 8.47677 87.3409 8.49911 87.2818 8.49968V8.4968ZM127.86 6.86781C127.808 6.86761 127.758 6.85094 127.716 6.8202C127.189 6.4263 126.642 6.04466 126.092 5.68539C126.041 5.64898 126.006 5.59421 125.994 5.53254C125.983 5.47087 125.995 5.40708 126.03 5.35451C126.064 5.30195 126.117 5.26469 126.178 5.25052C126.239 5.23635 126.303 5.24638 126.356 5.2785C126.915 5.64355 127.47 6.03095 128.005 6.43279C128.046 6.46329 128.076 6.50585 128.091 6.55445C128.107 6.60306 128.106 6.65525 128.09 6.70366C128.075 6.75207 128.044 6.79424 128.003 6.82421C127.962 6.85419 127.912 6.87045 127.862 6.8707L127.86 6.86781ZM91.4883 5.3694C91.4357 5.36936 91.3845 5.35214 91.3425 5.32033C91.3005 5.28851 91.27 5.24385 91.2556 5.19308C91.2411 5.14231 91.2435 5.08819 91.2624 5.03892C91.2813 4.98964 91.3157 4.94788 91.3604 4.91996C91.9268 4.56646 92.5104 4.22522 93.0992 3.90996C93.1272 3.89316 93.1583 3.88223 93.1907 3.87782C93.223 3.8734 93.2559 3.8756 93.2874 3.88428C93.3189 3.89295 93.3483 3.90793 93.3739 3.9283C93.3995 3.94868 93.4207 3.97403 93.4362 4.00284C93.4518 4.03164 93.4614 4.06331 93.4645 4.09594C93.4675 4.12856 93.464 4.16148 93.454 4.19269C93.4441 4.22391 93.428 4.25279 93.4067 4.27759C93.3853 4.3024 93.3592 4.32262 93.3299 4.33704C92.7505 4.65086 92.174 4.98633 91.6162 5.3355C91.5774 5.3597 91.5326 5.37245 91.4869 5.37229L91.4883 5.3694ZM123.424 4.09031C123.385 4.09031 123.347 4.08091 123.313 4.0629C122.729 3.76134 122.128 3.47349 121.527 3.208C121.468 3.18208 121.422 3.13381 121.399 3.0738C121.375 3.0138 121.377 2.94698 121.403 2.88805C121.429 2.82912 121.477 2.7829 121.536 2.75956C121.596 2.73622 121.663 2.73768 121.722 2.7636C122.333 3.0327 122.943 3.32488 123.535 3.62932C123.583 3.65442 123.622 3.69499 123.644 3.74453C123.666 3.79407 123.672 3.84973 123.659 3.90259C123.646 3.95546 123.616 4.00247 123.573 4.03611C123.53 4.06975 123.478 4.08807 123.424 4.08815V4.09031ZM96.1397 2.96705C96.0836 2.96735 96.0292 2.94806 95.9857 2.91248C95.9423 2.8769 95.9125 2.82725 95.9016 2.77205C95.8906 2.71685 95.8991 2.65953 95.9256 2.60995C95.9522 2.56036 95.9951 2.52159 96.047 2.50028C96.6616 2.24345 97.2941 2.0025 97.926 1.78391C97.956 1.77348 97.9878 1.7691 98.0195 1.771C98.0512 1.7729 98.0822 1.78105 98.1108 1.79498C98.1393 1.80892 98.1649 1.82836 98.186 1.85221C98.207 1.87605 98.2232 1.90383 98.2336 1.93396C98.244 1.96409 98.2484 1.99597 98.2465 2.02779C98.2446 2.05962 98.2365 2.09075 98.2226 2.11942C98.2087 2.1481 98.1893 2.17374 98.1656 2.1949C98.1418 2.21606 98.1141 2.23231 98.0841 2.24273C97.4609 2.45916 96.8384 2.69579 96.2325 2.94901C96.203 2.96095 96.1715 2.96707 96.1397 2.96705ZM118.594 2.0732C118.57 2.07291 118.545 2.06902 118.522 2.06165C117.897 1.85821 117.258 1.67208 116.622 1.5076C116.591 1.49969 116.562 1.48576 116.536 1.46662C116.511 1.44747 116.489 1.42348 116.473 1.39601C116.457 1.36855 116.446 1.33814 116.442 1.30654C116.437 1.27493 116.439 1.24274 116.447 1.21181C116.455 1.18088 116.469 1.15181 116.488 1.12626C116.507 1.10071 116.531 1.07918 116.558 1.0629C116.585 1.04662 116.616 1.03591 116.647 1.03138C116.679 1.02685 116.711 1.02859 116.742 1.0365C117.389 1.20388 118.035 1.39361 118.672 1.59994C118.726 1.61752 118.773 1.65409 118.803 1.7031C118.834 1.7521 118.845 1.81033 118.837 1.86733C118.828 1.92433 118.799 1.97637 118.756 2.0141C118.713 2.05183 118.657 2.07278 118.6 2.0732H118.594ZM101.118 1.35177C101.059 1.351 101.003 1.32875 100.959 1.28916C100.915 1.24957 100.888 1.19537 100.881 1.13667C100.874 1.07798 100.889 1.01882 100.922 0.970242C100.956 0.921668 101.006 0.887008 101.063 0.872741C101.714 0.719076 102.377 0.584169 103.033 0.470904C103.096 0.459998 103.161 0.474736 103.214 0.511874C103.266 0.549013 103.302 0.605509 103.312 0.668936C103.323 0.732364 103.309 0.797526 103.272 0.850088C103.235 0.90265 103.178 0.938306 103.115 0.949212C102.468 1.06031 101.815 1.19378 101.174 1.34528C101.156 1.34957 101.137 1.35175 101.118 1.35177ZM113.504 0.865526C113.492 0.86657 113.48 0.86657 113.467 0.865526C112.82 0.765247 112.156 0.684448 111.501 0.624569C111.438 0.618733 111.379 0.587674 111.338 0.538224C111.297 0.488774 111.277 0.424984 111.283 0.360887C111.288 0.29679 111.319 0.237636 111.369 0.196439C111.418 0.155242 111.481 0.135375 111.545 0.141211C112.21 0.201811 112.882 0.285498 113.541 0.385776C113.602 0.393942 113.658 0.425298 113.696 0.473408C113.735 0.521517 113.754 0.58273 113.75 0.644485C113.745 0.70624 113.717 0.763851 113.671 0.805492C113.626 0.847133 113.566 0.869647 113.504 0.868412V0.865526ZM106.292 0.567576C106.227 0.569776 106.165 0.546348 106.118 0.502445C106.071 0.458542 106.044 0.397761 106.042 0.333472C106.04 0.269184 106.063 0.206653 106.107 0.159639C106.15 0.112624 106.211 0.0849759 106.275 0.0827755C106.939 0.0358827 107.615 0.0106323 108.283 0.00341797C108.345 0.00680431 108.403 0.033858 108.446 0.079013C108.489 0.124168 108.512 0.183992 108.512 0.24618C108.512 0.308368 108.489 0.36819 108.446 0.413345C108.403 0.4585 108.345 0.485554 108.283 0.48894C107.625 0.494712 106.959 0.520682 106.304 0.566853L106.292 0.567576Z" fill="#91B3FA"/>
<path d="M140.566 27.9487C140.508 27.9485 140.452 27.9277 140.409 27.89C140.365 27.8523 140.336 27.8002 140.327 27.7431C140.279 27.4256 140.225 27.1089 140.165 26.7929C140.156 26.7307 140.171 26.6674 140.207 26.6162C140.243 26.565 140.298 26.5299 140.36 26.5183C140.421 26.5067 140.485 26.5196 140.537 26.5541C140.59 26.5886 140.627 26.6422 140.641 26.7035C140.7 27.0247 140.755 27.3463 140.805 27.668C140.81 27.6996 140.809 27.7318 140.801 27.7628C140.794 27.7938 140.78 27.8231 140.762 27.8489C140.743 27.8747 140.719 27.8965 140.692 27.9131C140.665 27.9298 140.635 27.9408 140.603 27.9458C140.591 27.9474 140.578 27.9484 140.566 27.9487Z" fill="#91B3FA"/>
<path d="M133.439 32.0128C133.446 31.9318 133.427 31.8509 133.385 31.7813C133.343 31.7117 133.281 31.6569 133.207 31.6247L128.869 29.7331C128.53 27.5108 127.832 25.3589 126.803 23.3621L129.197 19.2716C129.238 19.2016 129.256 19.1206 129.249 19.0397C129.242 18.9589 129.209 18.8823 129.157 18.8208L125.469 14.4922C125.417 14.4305 125.346 14.3869 125.268 14.3674C125.189 14.3478 125.107 14.3534 125.031 14.3832L120.631 16.1248C118.825 14.795 116.815 13.7698 114.68 13.0897L113.49 8.49567C113.469 8.41755 113.425 8.34783 113.363 8.29614C113.301 8.24444 113.225 8.21333 113.145 8.20709L107.488 7.76486C107.408 7.75854 107.327 7.77758 107.258 7.81934C107.188 7.86111 107.134 7.92351 107.101 7.99788L105.217 12.3517C103.003 12.6923 100.859 13.3926 98.8696 14.4251L94.794 12.022C94.724 11.9811 94.6432 11.963 94.5626 11.9702C94.4819 11.9775 94.4056 12.0097 94.344 12.0624L90.0311 15.7633C89.9694 15.8161 89.9257 15.8869 89.9061 15.9658C89.8865 16.0447 89.892 16.1278 89.9219 16.2034L91.6628 20.6142C90.3381 22.4268 89.3169 24.4442 88.6395 26.5869L84.0614 27.7809C83.9835 27.8019 83.914 27.8466 83.8625 27.9089C83.811 27.9711 83.78 28.0479 83.7739 28.1286L83.3332 33.8048C83.3269 33.8858 83.3459 33.9668 83.3877 34.0364C83.4294 34.106 83.4918 34.1607 83.5661 34.193L87.9041 36.0845C88.2431 38.3067 88.9406 40.4586 89.9693 42.4555L87.5757 46.546C87.5346 46.6159 87.5164 46.6969 87.5235 46.7778C87.5306 46.8586 87.5626 46.9352 87.6152 46.9969L91.3034 51.3254C91.356 51.3871 91.4264 51.4307 91.5049 51.4503C91.5834 51.4698 91.666 51.4642 91.7412 51.4344L96.1381 49.6943C97.9443 51.0238 99.9543 52.049 102.089 52.7293L103.28 57.3234C103.3 57.4016 103.344 57.4715 103.406 57.5232C103.468 57.5749 103.545 57.6059 103.625 57.612L109.282 58.0542C109.362 58.0605 109.443 58.0415 109.512 57.9997C109.581 57.958 109.636 57.8955 109.668 57.8212L111.552 53.4674C113.766 53.1277 115.91 52.4276 117.899 51.3947L121.975 53.7978C122.045 53.8386 122.126 53.8567 122.206 53.8495C122.287 53.8422 122.363 53.81 122.424 53.7574L126.737 50.0564C126.799 50.0036 126.842 49.933 126.862 49.8543C126.881 49.7755 126.876 49.6927 126.846 49.6171L125.113 45.2034C126.437 43.3905 127.458 41.3732 128.136 39.2307L132.707 38.0367C132.785 38.0158 132.854 37.971 132.906 37.9088C132.957 37.8465 132.988 37.7697 132.994 37.689L133.439 32.0128Z" fill="#91B3FA"/>
<path opacity="0.7" d="M108.372 38.3301C106.977 38.3287 105.637 37.7867 104.63 36.8172C103.624 35.8477 103.03 34.5257 102.972 33.127C102.913 31.7284 103.395 30.3611 104.317 29.3106C105.239 28.2602 106.53 27.6076 107.92 27.4892C109.309 27.3708 110.691 27.7956 111.776 28.6751C112.862 29.5546 113.566 30.8207 113.744 32.2092C113.921 33.5978 113.558 35.0014 112.729 36.1273C111.9 37.2531 110.669 38.0141 109.295 38.2515C108.99 38.3037 108.681 38.33 108.372 38.3301ZM108.393 28.2157C108.126 28.216 107.859 28.2389 107.595 28.2842C106.528 28.4676 105.559 29.0164 104.85 29.8371C104.142 30.6578 103.739 31.6996 103.71 32.785C103.682 33.8704 104.029 34.9322 104.693 35.7895C105.356 36.6468 106.296 37.2466 107.351 37.4865C108.406 37.7265 109.512 37.5919 110.479 37.1056C111.446 36.6193 112.215 35.8114 112.656 34.8196C113.096 33.8278 113.18 32.7134 112.893 31.6665C112.607 30.6195 111.967 29.7046 111.084 29.0778C110.298 28.5169 109.358 28.2156 108.393 28.2157Z" fill="white"/>
<path opacity="0.7" d="M108.285 47.0138C107.915 47.0138 107.544 46.9994 107.171 46.9706C103.648 46.6945 100.358 45.0966 97.9554 42.495C95.5532 39.8934 94.2156 36.4792 94.209 32.9323C94.209 32.561 94.2236 32.188 94.2528 31.8133C94.4925 28.7787 95.7035 25.9033 97.7052 23.6162C99.707 21.3292 102.392 19.7532 105.359 19.1235C108.327 18.4938 111.418 18.8443 114.171 20.1225C116.923 21.4007 119.19 23.5382 120.633 26.2158L119.995 26.5621C119.543 25.7248 119.005 24.9379 118.388 24.2145C116.674 22.2049 114.405 20.7503 111.868 20.0346C109.331 19.3189 106.64 19.3743 104.134 20.1937C101.628 21.0131 99.4206 22.5598 97.7905 24.6382C96.1605 26.7165 95.181 29.2333 94.976 31.8703C94.9486 32.2253 94.935 32.5788 94.935 32.9308C94.9413 36.102 96.0698 39.1678 98.1193 41.5814C100.169 43.995 103.006 45.5994 106.125 46.1083C109.243 46.6173 112.441 45.9977 115.147 44.3602C117.853 42.7226 119.891 40.1736 120.898 37.1678L121.586 37.3994C120.649 40.1959 118.862 42.6274 116.477 44.3519C114.092 46.0765 111.228 47.0074 108.288 47.0138H108.285Z" fill="white"/>
<path d="M164.19 56.7274C164.148 56.7272 164.106 56.7158 164.069 56.6942C164.032 56.6726 164.002 56.6417 163.981 56.6045C163.96 56.5673 163.949 56.5252 163.949 56.4825C163.95 56.4397 163.961 56.3978 163.983 56.3609C164.145 56.0853 164.301 55.804 164.445 55.5241C164.46 55.4957 164.48 55.4704 164.504 55.4497C164.528 55.4291 164.556 55.4134 164.587 55.4037C164.617 55.3939 164.649 55.3903 164.681 55.3929C164.712 55.3956 164.743 55.4045 164.772 55.4191C164.8 55.4337 164.825 55.4538 164.846 55.4782C164.866 55.5026 164.882 55.5309 164.892 55.5613C164.901 55.5918 164.905 55.6238 164.902 55.6557C164.9 55.6875 164.891 55.7186 164.876 55.747C164.728 56.0356 164.569 56.3241 164.4 56.6084C164.379 56.6451 164.348 56.6755 164.311 56.6965C164.275 56.7174 164.233 56.7281 164.19 56.7274Z" fill="#91B3FA"/>
<path d="M148.571 64.8566H148.552C147.894 64.8045 147.24 64.7141 146.592 64.586C146.531 64.5719 146.477 64.5344 146.443 64.4814C146.409 64.4284 146.397 64.3641 146.409 64.3022C146.421 64.2402 146.457 64.1854 146.508 64.1494C146.56 64.1134 146.623 64.0989 146.686 64.1092C147.315 64.2338 147.95 64.3217 148.59 64.3725C148.651 64.379 148.707 64.4085 148.747 64.4552C148.788 64.5018 148.809 64.562 148.806 64.6237C148.804 64.6853 148.778 64.7437 148.735 64.7871C148.691 64.8305 148.632 64.8556 148.571 64.8573V64.8566ZM151.734 64.8053C151.672 64.8054 151.612 64.7816 151.567 64.7389C151.522 64.6961 151.495 64.6377 151.492 64.5756C151.488 64.5135 151.509 64.4524 151.549 64.405C151.589 64.3575 151.646 64.3273 151.707 64.3205C152.345 64.249 152.977 64.1403 153.602 63.9952C153.633 63.988 153.665 63.987 153.696 63.9922C153.728 63.9974 153.758 64.0088 153.784 64.0256C153.811 64.0425 153.835 64.0645 153.853 64.0904C153.872 64.1163 153.885 64.1456 153.892 64.1766C153.899 64.2076 153.9 64.2398 153.895 64.2712C153.89 64.3026 153.879 64.3327 153.862 64.3597C153.845 64.3868 153.823 64.4102 153.797 64.4287C153.771 64.4473 153.742 64.4605 153.711 64.4677C153.068 64.6176 152.417 64.7298 151.761 64.8039L151.734 64.8053ZM143.603 63.6799C143.572 63.6799 143.541 63.674 143.512 63.6626C142.901 63.413 142.304 63.1275 141.727 62.8077C141.699 62.7924 141.674 62.7717 141.654 62.7468C141.635 62.722 141.62 62.6934 141.611 62.6628C141.602 62.6323 141.599 62.6002 141.603 62.5686C141.606 62.5369 141.616 62.5063 141.631 62.4784C141.647 62.4505 141.667 62.4259 141.692 62.406C141.717 62.3861 141.745 62.3712 141.776 62.3624C141.806 62.3535 141.838 62.3507 141.87 62.3542C141.901 62.3577 141.932 62.3674 141.959 62.3828C142.521 62.6929 143.101 62.9699 143.695 63.2124C143.747 63.2334 143.79 63.272 143.817 63.3216C143.844 63.3712 143.853 63.4287 143.842 63.4841C143.831 63.5396 143.801 63.5895 143.758 63.6252C143.714 63.661 143.66 63.6803 143.603 63.6799ZM156.658 63.4635C156.603 63.4633 156.549 63.4442 156.507 63.4092C156.464 63.3742 156.434 63.3256 156.422 63.2713C156.411 63.217 156.418 63.1604 156.443 63.1109C156.468 63.0613 156.509 63.0218 156.559 62.9989C157.145 62.7361 157.714 62.4391 158.265 62.1094C158.32 62.0802 158.384 62.0732 158.444 62.09C158.503 62.1068 158.555 62.146 158.586 62.1996C158.618 62.2531 158.628 62.3169 158.615 62.3777C158.601 62.4385 158.565 62.4917 158.513 62.5263C157.946 62.8658 157.36 63.1718 156.757 63.4426C156.726 63.4556 156.694 63.4622 156.661 63.462L156.658 63.4635ZM139.231 61.046C139.174 61.0459 139.12 61.026 139.076 60.9897C138.57 60.5652 138.088 60.1113 137.634 59.6305C137.59 59.5839 137.566 59.5215 137.568 59.4571C137.57 59.3928 137.597 59.3318 137.643 59.2875C137.69 59.2432 137.752 59.2193 137.816 59.221C137.88 59.2226 137.941 59.2498 137.985 59.2965C138.426 59.7633 138.894 60.204 139.386 60.6167C139.425 60.6484 139.454 60.6917 139.468 60.7405C139.481 60.7893 139.48 60.8411 139.463 60.8888C139.445 60.9365 139.414 60.9777 139.372 61.0065C139.331 61.0353 139.281 61.0504 139.231 61.0496V61.046ZM160.939 60.6795C160.89 60.6796 160.842 60.6647 160.802 60.6369C160.761 60.609 160.73 60.5695 160.713 60.5235C160.695 60.4776 160.692 60.4274 160.704 60.3796C160.715 60.3318 160.741 60.2887 160.778 60.256L160.922 60.1269C161.348 59.7364 161.754 59.3239 162.138 58.8911C162.182 58.8478 162.24 58.8228 162.302 58.8213C162.363 58.8198 162.423 58.8418 162.468 58.8829C162.514 58.924 162.543 58.9811 162.548 59.0425C162.553 59.1039 162.535 59.1651 162.497 59.2136C162.102 59.6592 161.685 60.0839 161.246 60.4862L161.102 60.6182C161.058 60.657 161.001 60.6783 160.943 60.678L160.939 60.6795ZM135.856 57.2051C135.815 57.2053 135.775 57.1951 135.74 57.1756C135.704 57.156 135.674 57.1277 135.652 57.0933C135.296 56.5357 134.973 55.9576 134.684 55.3618C134.67 55.3332 134.662 55.3021 134.661 55.2703C134.659 55.2385 134.663 55.2067 134.674 55.1766C134.684 55.1465 134.7 55.1188 134.721 55.095C134.742 55.0712 134.768 55.0518 134.796 55.0379C134.825 55.024 134.856 55.0159 134.888 55.0141C134.919 55.0122 134.951 55.0167 134.981 55.0271C135.011 55.0376 135.039 55.0538 135.062 55.075C135.086 55.0962 135.105 55.1218 135.119 55.1505C135.4 55.729 135.714 56.2908 136.059 56.8328C136.083 56.8695 136.096 56.9118 136.098 56.9554C136.099 56.9989 136.089 57.0421 136.068 57.0804C136.047 57.1186 136.017 57.1505 135.979 57.1727C135.942 57.1949 135.899 57.2066 135.856 57.2065V57.2051Z" fill="#91B3FA"/>
<path d="M133.8 52.5079C133.747 52.5078 133.695 52.49 133.652 52.4572C133.61 52.4245 133.58 52.3786 133.566 52.3268C133.483 52.0116 133.407 51.6884 133.343 51.3681C133.336 51.3368 133.336 51.3047 133.342 51.2734C133.348 51.2421 133.361 51.2124 133.378 51.1858C133.396 51.1593 133.418 51.1364 133.444 51.1186C133.471 51.1008 133.5 51.0884 133.531 51.082C133.563 51.0757 133.595 51.0755 133.626 51.0816C133.657 51.0877 133.687 51.0999 133.713 51.1175C133.739 51.135 133.762 51.1577 133.78 51.1841C133.798 51.2105 133.81 51.2402 133.816 51.2714C133.88 51.5823 133.953 51.8954 134.032 52.2028C134.048 52.265 134.039 52.3312 134.007 52.3868C133.975 52.4424 133.922 52.4828 133.86 52.4993C133.84 52.5048 133.82 52.5077 133.8 52.5079Z" fill="#91B3FA"/>
<path d="M135.798 39.3267C135.755 39.3265 135.712 39.3147 135.675 39.2926C135.638 39.2704 135.607 39.2388 135.587 39.2008C135.566 39.1628 135.556 39.12 135.557 39.0767C135.558 39.0333 135.571 38.9911 135.594 38.9544C135.767 38.6774 135.953 38.4025 136.141 38.1363C136.179 38.0874 136.235 38.0551 136.297 38.0464C136.358 38.0376 136.421 38.0529 136.471 38.0892C136.522 38.1254 136.557 38.1798 136.569 38.2411C136.58 38.3024 136.568 38.3659 136.535 38.4184C136.351 38.6767 136.175 38.9443 136.003 39.212C135.981 39.247 135.951 39.276 135.915 39.2961C135.879 39.3161 135.839 39.3267 135.798 39.3267Z" fill="#91B3FA"/>
<path d="M165.19 41.6887C165.143 41.6892 165.097 41.6758 165.057 41.6501C165.017 41.6245 164.986 41.5877 164.967 41.5444C164.72 40.9619 164.44 40.3942 164.128 39.844C164.1 39.7883 164.095 39.724 164.113 39.6643C164.131 39.6046 164.171 39.5541 164.225 39.5233C164.279 39.4924 164.342 39.4836 164.403 39.4986C164.463 39.5136 164.515 39.5512 164.549 39.6038C164.87 40.1702 165.158 40.7548 165.411 41.3547C165.436 41.4141 165.437 41.481 165.413 41.5408C165.389 41.6005 165.342 41.6483 165.283 41.6735C165.253 41.6847 165.222 41.6898 165.19 41.6887ZM162.549 37.4041C162.514 37.4042 162.479 37.3966 162.448 37.3819C162.416 37.3672 162.388 37.3457 162.365 37.319C162.241 37.1747 162.115 37.0304 161.986 36.8861C161.69 36.5608 161.379 36.2448 161.06 35.9483C161.035 35.9269 161.015 35.9007 161.001 35.8713C160.987 35.8419 160.978 35.81 160.977 35.7774C160.975 35.7447 160.98 35.7121 160.991 35.6814C161.002 35.6507 161.019 35.6226 161.042 35.5987C161.064 35.5748 161.091 35.5557 161.12 35.5425C161.15 35.5292 161.182 35.5221 161.215 35.5216C161.247 35.5211 161.28 35.5272 161.31 35.5395C161.34 35.5519 161.367 35.5702 161.39 35.5933C161.719 35.9021 162.037 36.2282 162.343 36.5622C162.476 36.7065 162.607 36.8546 162.734 37.0066C162.764 37.0419 162.783 37.0852 162.79 37.1312C162.796 37.1773 162.789 37.2243 162.77 37.2665C162.75 37.3087 162.719 37.3444 162.68 37.3693C162.641 37.3942 162.595 37.4073 162.549 37.407V37.4041ZM138.374 36.1582C138.326 36.158 138.279 36.1434 138.239 36.1161C138.199 36.0889 138.168 36.0503 138.15 36.0054C138.132 35.9605 138.128 35.9112 138.138 35.8638C138.148 35.8165 138.172 35.7733 138.207 35.7398C138.303 35.646 138.402 35.5532 138.504 35.4613C138.883 35.115 139.28 34.7817 139.687 34.4722C139.712 34.4509 139.742 34.4349 139.773 34.4252C139.804 34.4155 139.838 34.4124 139.87 34.4159C139.903 34.4195 139.935 34.4298 139.963 34.4461C139.992 34.4623 140.017 34.4843 140.037 34.5106C140.057 34.5369 140.071 34.567 140.079 34.5991C140.087 34.6311 140.088 34.6645 140.083 34.6971C140.078 34.7297 140.066 34.7609 140.048 34.7887C140.03 34.8165 140.007 34.8404 139.98 34.8589C139.585 35.1598 139.198 35.4837 138.83 35.8199C138.733 35.9093 138.636 36.0002 138.542 36.0911C138.497 36.1344 138.437 36.1584 138.374 36.1582ZM158.761 34.0986C158.715 34.0985 158.67 34.0855 158.632 34.061C158.099 33.7233 157.546 33.4166 156.978 33.1427C156.923 33.1134 156.881 33.0636 156.861 33.0038C156.841 32.9439 156.845 32.8788 156.873 32.822C156.9 32.7652 156.948 32.7213 157.007 32.6994C157.066 32.6775 157.131 32.6795 157.188 32.7047C157.773 32.9869 158.342 33.3027 158.89 33.6505C158.935 33.6785 158.969 33.7203 158.988 33.7696C159.007 33.8189 159.009 33.873 158.994 33.9236C158.98 33.9743 158.949 34.0188 158.907 34.0504C158.865 34.082 158.813 34.0989 158.761 34.0986ZM142.482 33.2581C142.428 33.258 142.375 33.2395 142.332 33.2055C142.289 33.1716 142.259 33.1242 142.247 33.071C142.234 33.0178 142.24 32.9619 142.263 32.9123C142.286 32.8627 142.325 32.8224 142.373 32.7978C142.955 32.5083 143.553 32.2525 144.163 32.0317C144.223 32.0119 144.289 32.0163 144.345 32.0441C144.402 32.0718 144.446 32.1207 144.467 32.1803C144.488 32.2399 144.486 32.3055 144.46 32.3632C144.433 32.4208 144.386 32.466 144.327 32.489C143.734 32.7035 143.153 32.9521 142.588 33.2336C142.555 33.2498 142.519 33.2582 142.482 33.2581ZM154.163 32.0829C154.142 32.0828 154.121 32.0799 154.101 32.0742C153.491 31.9122 152.873 31.7852 152.249 31.694C152.218 31.6894 152.187 31.6787 152.16 31.6623C152.133 31.646 152.109 31.6244 152.09 31.5988C152.071 31.5732 152.057 31.5441 152.049 31.5132C152.041 31.4822 152.04 31.45 152.044 31.4184C152.048 31.3867 152.059 31.3562 152.075 31.3286C152.091 31.301 152.113 31.2769 152.138 31.2578C152.164 31.2387 152.193 31.225 152.224 31.2174C152.255 31.2098 152.287 31.2085 152.318 31.2136C152.961 31.3073 153.598 31.4378 154.225 31.6046C154.282 31.6196 154.332 31.6549 154.365 31.7039C154.398 31.753 154.412 31.8124 154.404 31.871C154.396 31.9297 154.368 31.9835 154.324 32.0225C154.279 32.0615 154.222 32.083 154.163 32.0829ZM147.263 31.7272C147.203 31.7262 147.145 31.7027 147.101 31.6612C147.057 31.6197 147.03 31.5633 147.025 31.503C147.021 31.4426 147.039 31.3827 147.076 31.3349C147.113 31.2871 147.166 31.2549 147.225 31.2446C147.867 31.143 148.513 31.0782 149.162 31.0505C149.194 31.048 149.227 31.0521 149.258 31.0625C149.288 31.0729 149.317 31.0894 149.341 31.1111C149.365 31.1327 149.385 31.159 149.399 31.1885C149.413 31.2179 149.421 31.2499 149.422 31.2825C149.424 31.315 149.419 31.3476 149.407 31.3781C149.396 31.4087 149.379 31.4366 149.356 31.4602C149.334 31.4839 149.307 31.5028 149.277 31.5158C149.247 31.5288 149.215 31.5357 149.183 31.536C148.552 31.5629 147.924 31.6257 147.301 31.7243C147.288 31.7269 147.275 31.7283 147.262 31.7287L147.263 31.7272Z" fill="#91B3FA"/>
<path d="M166.31 45.6305C166.253 45.6303 166.197 45.6095 166.153 45.5718C166.109 45.5341 166.081 45.482 166.072 45.4248C166.023 45.111 165.964 44.7943 165.898 44.487C165.888 44.4254 165.902 44.3624 165.937 44.3108C165.972 44.2593 166.025 44.2232 166.086 44.2101C166.146 44.1969 166.21 44.2077 166.263 44.2402C166.316 44.2726 166.355 44.3243 166.371 44.3845C166.443 44.7041 166.499 45.0338 166.55 45.3527C166.555 45.3843 166.553 45.4165 166.546 45.4475C166.538 45.4785 166.525 45.5078 166.506 45.5336C166.487 45.5594 166.464 45.5812 166.436 45.5978C166.409 45.6144 166.379 45.6255 166.348 45.6305C166.335 45.6312 166.323 45.6312 166.31 45.6305Z" fill="#91B3FA"/>
<path d="M162.648 47.5996C162.651 47.5579 162.641 47.5163 162.62 47.4805C162.598 47.4448 162.566 47.4165 162.528 47.3998L160.3 46.4287C160.126 45.287 159.768 44.1814 159.239 43.1556L160.469 41.0548C160.49 41.0188 160.499 40.9772 160.495 40.9357C160.491 40.8942 160.475 40.8549 160.448 40.8232L158.554 38.6005C158.527 38.5687 158.491 38.5462 158.45 38.5361C158.41 38.526 158.367 38.5289 158.329 38.5442L156.07 39.4381C155.142 38.7551 154.11 38.2286 153.013 37.8791L152.402 35.5193C152.392 35.4788 152.369 35.4426 152.337 35.4159C152.305 35.3891 152.266 35.373 152.224 35.37L149.319 35.1427C149.277 35.1394 149.236 35.1492 149.2 35.1707C149.165 35.1921 149.137 35.2242 149.12 35.2625L148.152 37.4989C147.015 37.674 145.913 38.0337 144.891 38.5637L142.797 37.3294C142.762 37.3084 142.72 37.2991 142.679 37.3028C142.637 37.3066 142.598 37.3232 142.567 37.3503L140.352 39.2512C140.321 39.2784 140.298 39.3147 140.288 39.3552C140.278 39.3957 140.281 39.4383 140.297 39.4771L141.187 41.7445C140.507 42.6754 139.982 43.7115 139.634 44.812L137.282 45.426C137.242 45.4367 137.206 45.4595 137.18 45.4914C137.153 45.5233 137.137 45.5627 137.133 45.6041L136.907 48.5202C136.904 48.5618 136.914 48.6033 136.935 48.639C136.957 48.6747 136.989 48.7027 137.027 48.7193L139.255 49.691C139.429 50.8326 139.787 51.9379 140.316 52.9634L139.086 55.065C139.065 55.1009 139.056 55.1425 139.059 55.184C139.063 55.2255 139.079 55.2649 139.106 55.2965L141.001 57.5193C141.028 57.5509 141.064 57.5733 141.105 57.5833C141.145 57.5934 141.187 57.5907 141.226 57.5755L143.485 56.6817C144.413 57.3644 145.445 57.8909 146.542 58.2407L147.153 60.5998C147.164 60.6402 147.187 60.6763 147.219 60.7031C147.251 60.7299 147.29 60.7459 147.332 60.7491L150.237 60.9763C150.279 60.9795 150.32 60.9697 150.355 60.9482C150.391 60.9268 150.419 60.8948 150.436 60.8566L151.404 58.6202C152.541 58.4451 153.642 58.0852 154.664 57.5546L156.758 58.789C156.794 58.8102 156.835 58.8196 156.877 58.816C156.918 58.8124 156.957 58.7959 156.989 58.7688L159.204 56.8671C159.235 56.84 159.258 56.8037 159.268 56.7631C159.277 56.7226 159.274 56.68 159.259 56.6413L158.367 54.3753C159.048 53.4441 159.572 52.4078 159.92 51.307L162.272 50.6938C162.312 50.6831 162.348 50.6603 162.375 50.6284C162.401 50.5965 162.418 50.5571 162.421 50.5156L162.648 47.5996Z" fill="#91B3FA"/>
<path opacity="0.7" d="M149.773 51.0223C149.01 51.0223 148.276 50.7266 147.725 50.1967C147.174 49.6668 146.848 48.9438 146.815 48.1785C146.783 47.4133 147.046 46.6649 147.55 46.0897C148.054 45.5145 148.759 45.1568 149.52 45.0914C150.28 45.026 151.036 45.2579 151.63 45.7387C152.225 46.2194 152.611 46.9119 152.708 47.6716C152.806 48.4312 152.607 49.1994 152.154 49.8157C151.701 50.4319 151.028 50.8487 150.276 50.979C150.11 51.0076 149.941 51.0221 149.773 51.0223ZM149.782 45.828C149.252 45.8276 148.739 46.0177 148.336 46.3639C147.933 46.71 147.666 47.1894 147.585 47.7155C147.503 48.2415 147.612 48.7795 147.891 49.2323C148.17 49.685 148.601 50.0226 149.106 50.1842C149.612 50.3457 150.158 50.3204 150.647 50.113C151.135 49.9055 151.534 49.5296 151.77 49.053C152.007 48.5764 152.066 48.0307 151.936 47.5144C151.807 46.9981 151.498 46.5453 151.065 46.2378C150.69 45.9707 150.242 45.8275 149.782 45.828Z" fill="white"/>
<path opacity="0.7" d="M149.728 55.483C149.533 55.483 149.338 55.4758 149.141 55.4599C147.929 55.3651 146.758 54.9717 145.734 54.3145C144.709 53.6572 143.861 52.7565 143.266 51.692C142.671 50.6275 142.347 49.4321 142.322 48.2118C142.297 46.9914 142.572 45.7838 143.124 44.6958C143.675 43.6078 144.485 42.6731 145.482 41.9744C146.48 41.2757 147.633 40.8346 148.841 40.6903C150.048 40.5459 151.273 40.7027 152.406 41.1468C153.539 41.5908 154.545 42.3084 155.335 43.236C155.356 43.2598 155.377 43.2844 155.397 43.3082C155.684 43.6534 155.939 44.024 156.159 44.4156V44.4199L156.169 44.4372C156.174 44.4473 156.18 44.4574 156.186 44.4675L156.195 44.4841L156.224 44.5375L155.586 44.8838C155.359 44.4647 155.09 44.0708 154.781 43.7086C153.824 42.5856 152.523 41.8121 151.082 41.5089C149.641 41.2056 148.14 41.3896 146.814 42.032C145.488 42.6745 144.411 43.7394 143.751 45.0606C143.092 46.3818 142.886 47.885 143.167 49.3358C143.447 50.7866 144.199 52.1033 145.303 53.0806C146.408 54.058 147.803 54.6409 149.273 54.7386C150.742 54.8363 152.202 54.4432 153.426 53.6206C154.649 52.798 155.567 51.5922 156.035 50.1913L156.725 50.4229C156.231 51.8945 155.29 53.1739 154.035 54.0814C152.779 54.9888 151.272 55.4787 149.725 55.4823L149.728 55.483Z" fill="white"/>
<path d="M102.606 81.54C102.901 81.2628 103.251 81.0513 103.633 80.9193C104.015 80.7873 104.421 80.7377 104.823 80.7738C113.533 81.5602 129.784 77.3492 140.405 66.4427C141.142 65.6852 142.489 66.1137 143.332 66.7471C155.144 75.6077 174.724 77.4423 181.52 77.8174C182.201 77.856 182.846 78.1366 183.339 78.6091C183.833 79.0816 184.142 79.715 184.213 80.3958C190.394 140.313 151.523 162.025 143.461 165.858C143.026 166.064 142.547 166.158 142.067 166.13C141.588 166.102 141.122 165.954 140.714 165.699C100.533 140.58 102.254 107.913 101.698 83.7108C101.689 83.3052 101.765 82.9023 101.921 82.5283C102.078 82.1542 102.311 81.8175 102.606 81.54Z" fill="url(#paint4_linear_1413_1845)"/>
<path opacity="0.61" d="M142.374 161.506C142.192 161.506 142.013 161.454 141.859 161.356C126.455 151.472 116.413 139.658 111.166 125.236C106.478 112.355 106.248 99.2384 106.046 87.6659L106.018 86.1235C106.016 85.9965 106.039 85.8703 106.086 85.7524C106.133 85.6345 106.203 85.5272 106.292 85.4367C106.381 85.3463 106.487 85.2746 106.604 85.2258C106.721 85.177 106.846 85.1521 106.973 85.1525C116.512 85.1525 130.831 80.9249 141.332 71.4807C141.489 71.3395 141.688 71.2546 141.899 71.2393C142.109 71.224 142.318 71.2792 142.494 71.3963C154.032 79.0802 170.492 81.3181 179.276 81.9681C179.501 81.9839 179.713 82.0797 179.874 82.2384C180.035 82.3971 180.134 82.6082 180.154 82.8338C182.196 106.213 177.35 125.982 165.753 141.593C157.091 153.252 146.82 159.328 142.806 161.398C142.673 161.468 142.525 161.505 142.374 161.506ZM142.629 161.053L142.718 161.227L142.629 161.053C146.619 158.994 156.828 152.956 165.441 141.363C176.979 125.831 181.798 106.152 179.766 82.872C179.755 82.7388 179.697 82.6139 179.602 82.5199C179.507 82.4258 179.382 82.3688 179.25 82.3591C170.427 81.7098 153.892 79.4568 142.279 71.7231C142.175 71.6543 142.052 71.6218 141.928 71.6308C141.804 71.6398 141.687 71.6898 141.595 71.7728C131.016 81.2863 116.588 85.5449 106.982 85.5449C106.905 85.5437 106.829 85.558 106.758 85.5872C106.687 85.6163 106.623 85.6596 106.569 85.7145C106.517 85.7672 106.476 85.83 106.448 85.899C106.421 85.9681 106.408 86.042 106.409 86.1163L106.437 87.6587C106.639 99.2016 106.869 112.282 111.534 125.101C116.752 139.439 126.74 151.19 142.07 161.028C142.152 161.08 142.247 161.11 142.345 161.114C142.442 161.118 142.539 161.097 142.626 161.053H142.629Z" fill="white"/>
<path opacity="0.61" d="M156.42 104.158H154.603C154.17 104.158 153.754 103.986 153.448 103.678C153.141 103.371 152.969 102.954 152.969 102.519V96.2862C152.969 95.2147 152.545 94.1872 151.79 93.4295C151.035 92.6719 150.011 92.2462 148.944 92.2462H137.686C136.618 92.2462 135.594 92.6719 134.839 93.4295C134.084 94.1872 133.66 95.2147 133.66 96.2862V102.519C133.66 102.734 133.618 102.947 133.536 103.146C133.454 103.345 133.334 103.526 133.182 103.678C133.031 103.83 132.851 103.951 132.652 104.034C132.454 104.116 132.242 104.158 132.027 104.158H130.21C129.995 104.158 129.783 104.116 129.585 104.034C129.387 103.951 129.206 103.83 129.055 103.678C128.903 103.526 128.783 103.345 128.701 103.146C128.618 102.947 128.576 102.734 128.576 102.519V96.2862C128.576 93.8614 129.536 91.536 131.244 89.8214C132.953 88.1068 135.27 87.1436 137.686 87.1436H148.944C150.141 87.1436 151.325 87.38 152.43 87.8395C153.536 88.299 154.54 88.9724 155.386 89.8214C156.231 90.6704 156.902 91.6783 157.36 92.7875C157.818 93.8968 158.053 95.0856 158.053 96.2862V102.519C158.053 102.734 158.011 102.947 157.929 103.146C157.847 103.345 157.727 103.526 157.575 103.678C157.423 103.83 157.243 103.951 157.045 104.034C156.847 104.116 156.635 104.158 156.42 104.158Z" fill="white"/>
<path opacity="0.61" d="M158.671 105.629H127.957C127.053 105.629 126.186 105.99 125.547 106.631C124.908 107.273 124.549 108.143 124.549 109.05V132.707C124.549 133.615 124.908 134.485 125.547 135.126C126.186 135.767 127.053 136.128 127.957 136.128H158.671C159.575 136.128 160.441 135.767 161.081 135.126C161.72 134.485 162.079 133.615 162.079 132.707V109.05C162.079 108.143 161.72 107.273 161.081 106.631C160.441 105.99 159.575 105.629 158.671 105.629ZM147.708 128.495C147.753 128.681 147.755 128.875 147.714 129.062C147.673 129.25 147.59 129.425 147.472 129.575C147.354 129.726 147.203 129.847 147.031 129.931C146.86 130.014 146.671 130.058 146.48 130.058H140.147C139.956 130.058 139.768 130.014 139.596 129.931C139.424 129.847 139.273 129.726 139.155 129.575C139.037 129.425 138.954 129.249 138.913 129.062C138.873 128.875 138.875 128.681 138.919 128.494L140.397 122.32C139.505 121.787 138.776 121.019 138.288 120.099C137.8 119.18 137.572 118.143 137.628 117.103C137.779 114.236 140.095 111.889 142.948 111.711C144.222 111.629 145.488 111.98 146.54 112.707C147.592 113.434 148.37 114.495 148.749 115.72C149.127 116.944 149.085 118.261 148.627 119.458C148.17 120.656 147.325 121.664 146.227 122.32L147.708 128.495Z" fill="white"/>
<path d="M25.5813 97.8979C25.5813 97.8979 28.0684 98.03 28.3739 103.164C28.3739 103.164 22.6054 108.354 14.8135 109.589C14.2284 109.682 15.6315 105.582 15.8421 105.026C16.8456 102.384 20.0055 100.682 25.5813 97.8979Z" fill="url(#paint5_linear_1413_1845)"/>
<path d="M53.5961 91.8564H48.3488C48.3488 91.8564 32.2373 73.9974 21.6701 72.1953C21.6701 72.1953 14.3138 81.6193 22.0618 99.228C22.6851 100.644 24.4282 101.273 25.7278 100.44C26.1056 100.203 26.3989 99.8525 26.5652 99.4379L25.9406 84.4069C25.9406 84.4069 39.6842 96.4707 42.0736 98.7987C44.4629 101.127 56.6051 99.7012 53.5961 91.8564Z" fill="#7D97F4"/>
<path d="M2.84524 129.352C5.04553 127.417 8.55045 125.247 13.6102 124.624L15.3238 125.673C15.3238 125.673 14.2327 127.289 12.2387 128.995C10.4071 130.063 7.5779 131.509 5.23242 131.823C2.95019 132.129 2.61379 130.746 2.84524 129.352Z" fill="url(#paint6_linear_1413_1845)"/>
<path d="M15.8418 105.026C17.1968 105.466 17.7934 107.393 21.2329 106.119C23.744 105.19 26.1219 103.933 28.3053 102.379C28.3334 102.628 28.3578 102.888 28.3772 103.164C28.3772 103.164 22.2946 108.97 14.5041 110.206C14.3701 110.226 14.2333 110.21 14.1072 110.161C13.9812 110.111 13.8703 110.029 13.7856 109.923C13.7009 109.817 13.6453 109.69 13.6245 109.556C13.6036 109.422 13.6182 109.284 13.6667 109.157C14.2251 107.698 14.9553 106.311 15.8418 105.026Z" fill="#91B3FA"/>
<path d="M1.18803 131.004C1.70319 130.419 2.25542 129.867 2.84129 129.352C2.60984 130.746 2.94624 132.129 5.22631 131.825C7.5718 131.511 10.4018 130.064 12.2326 128.997C9.93668 130.962 6.44254 133.048 2.03335 132.925C1.0572 132.898 0.540379 131.742 1.18803 131.004Z" fill="#91B3FA"/>
<path d="M53.4039 95.6685L28.8205 95.9354C28.8205 95.9354 14.7821 107.592 12.2354 125.37C12.2354 125.37 11.8127 126.678 14.3508 126.901C14.3508 126.901 22.8378 121.338 28.3727 111.501C35.1626 99.4379 48.6044 104.867 48.6044 104.867C55.0629 106.297 60.2031 105.765 63.9654 99.9552L53.4039 95.6685Z" fill="#7D97F4"/>
<path d="M52.8252 75.7935C52.8252 75.7935 50.1785 89.1045 37.2119 94.3702L32.6 93.8248L31.5117 95.5664L42.3305 95.9127C42.3305 95.9127 51.5781 92.2334 56.4782 82.2192C56.6399 81.8881 59.3384 76.2963 52.8252 75.7935Z" fill="url(#paint7_linear_1413_1845)"/>
<path d="M51.4093 95.4509C51.4093 95.4509 54.4183 87.241 55.0652 79.2635C55.0652 79.2635 52.8635 77.3647 51.4877 76.5451C51.272 76.4174 51.1123 76.2129 51.0402 75.9722C50.9681 75.7315 50.989 75.4724 51.0988 75.2466C52.1109 73.1429 58.2287 64.884 58.6873 64.7693C61.178 64.1452 71.3945 59.2698 78.5898 69.1476C81.6806 73.3867 77.9773 86.4366 63.9677 99.9526C59.46 100.692 55.2428 99.3884 51.4093 95.4509Z" fill="url(#paint8_linear_1413_1845)"/>
<path d="M63.0016 81.062C63.0016 81.062 54.6403 90.9982 43.9531 92.4505C43.9531 92.4505 41.1907 89.9255 39.137 90.8251C37.0834 91.7247 34.2656 95.7113 34.2656 95.7113H47.9949C47.9949 95.7113 60.9724 95.2525 67.4575 87.3543C66.9291 84.5905 65.3665 82.9392 63.0016 81.062Z" fill="url(#paint9_linear_1413_1845)"/>
<path d="M67.8796 57.8037L69.709 63.9272C69.7506 64.0637 69.7478 64.2099 69.701 64.3447C69.6542 64.4795 69.5659 64.5958 69.4488 64.6768C68.5682 65.2828 66.2659 66.4868 63.1081 65.3167C62.9314 65.2494 62.7773 65.133 62.664 64.9811C62.5507 64.8292 62.4829 64.6481 62.4684 64.4589L62.0371 59.1203L67.8796 57.8037Z" fill="url(#paint10_linear_1413_1845)"/>
<path d="M57.168 52.8439C57.168 52.8439 58.0672 59.1925 60.4968 61.1404C62.9264 63.0882 67.6605 61.623 69.2591 56.837L66.0726 48.6582L57.168 52.8439Z" fill="url(#paint11_linear_1413_1845)"/>
<path d="M66.4326 53.9537C66.3893 53.9679 66.3435 53.9725 66.2983 53.9672C66.2531 53.9618 66.2096 53.9466 66.1709 53.9227C66.1321 53.8987 66.0991 53.8665 66.074 53.8284C66.0489 53.7902 66.0324 53.7471 66.0257 53.7019C65.938 53.1161 65.7188 51.956 65.276 51.1661C65.276 51.1661 65.5075 50.3335 63.1785 51.5917C60.8496 52.8499 57.3518 54.6939 55.2917 53.5973C53.2841 52.5245 51.2498 47.1246 56.5568 48.1245C56.6039 48.1338 56.6524 48.1321 56.6987 48.1196C56.745 48.107 56.7878 48.084 56.8238 48.0522C56.8598 48.0204 56.888 47.9807 56.9063 47.9362C56.9246 47.8917 56.9324 47.8436 56.9292 47.7956C56.8645 46.9082 56.9522 44.8666 59.0137 44.2108C60.9416 43.5976 61.9968 44.4712 62.4317 44.9986C62.4614 45.0349 62.4989 45.0641 62.5415 45.0838C62.584 45.1036 62.6304 45.1134 62.6773 45.1127C62.7241 45.1119 62.7702 45.1005 62.812 45.0794C62.8539 45.0583 62.8905 45.0279 62.919 44.9906C63.4941 44.2339 65.0647 42.6229 67.3757 43.6445C69.2769 44.4856 69.5731 45.6645 69.5414 46.3938C69.5387 46.4479 69.5501 46.5017 69.5743 46.5501C69.5985 46.5984 69.6348 46.6396 69.6796 46.6697C69.7244 46.6998 69.7762 46.7177 69.83 46.7217C69.8838 46.7257 69.9376 46.7156 69.9864 46.6925C70.5686 46.4234 71.5052 46.2834 72.403 47.4139C73.6437 48.9744 71.8704 50.3271 71.3385 50.682C71.2951 50.7101 71.2593 50.7485 71.2342 50.7938C71.2091 50.8391 71.1955 50.8899 71.1947 50.9417C71.1897 51.7526 71.0639 55.2919 69.2963 57.2903C69.2606 57.3297 69.2156 57.3595 69.1654 57.3768C69.1152 57.3941 69.0614 57.3985 69.0091 57.3894C68.9568 57.3803 68.9076 57.3582 68.8661 57.325C68.8245 57.2917 68.7921 57.2486 68.7716 57.1994L67.4109 53.945C67.3803 53.8721 67.3237 53.8134 67.2521 53.7804C67.1805 53.7474 67.0991 53.7426 67.0242 53.7668L66.4326 53.9537Z" fill="url(#paint12_linear_1413_1845)"/>
<path d="M66.4023 54.6121C66.4023 54.6121 67.2333 51.2149 68.4955 52.318C69.7578 53.4211 68.167 55.848 66.7208 56.3111L66.4023 54.6121Z" fill="url(#paint13_linear_1413_1845)"/>
<path d="M34.9539 96.4823L28.7915 75.8552C28.6687 75.4444 28.4241 75.0809 28.0901 74.8132C27.7562 74.5455 27.349 74.3863 26.9226 74.3568L18.6023 73.7855C18.4074 73.7721 18.2122 73.8076 18.0343 73.8886C17.8564 73.9697 17.7013 74.0938 17.5829 74.2498C17.4646 74.4058 17.3867 74.5889 17.3562 74.7826C17.3258 74.9763 17.3437 75.1746 17.4084 75.3596L24.2975 95.0582C24.4064 95.3689 24.6012 95.6421 24.8591 95.8459C25.117 96.0496 25.4273 96.1755 25.7538 96.2089L33.9483 97.1215L34.9539 96.4823Z" fill="url(#paint14_linear_1413_1845)"/>
<path d="M23.5915 82.8467C24.0515 83.7787 24.8458 84.3249 25.3662 84.0659C25.8866 83.8069 25.9348 82.8394 25.4748 81.9102C25.0147 80.981 24.2197 80.432 23.7 80.6903C23.1803 80.9486 23.13 81.9146 23.5915 82.8467Z" fill="#91B3FA"/>
<path d="M33.948 97.1214H33.9883L51.4468 96.2383C51.654 96.2278 51.8486 96.1351 51.9877 95.9806C52.1268 95.8261 52.1991 95.6224 52.1886 95.4145C52.1781 95.2065 52.0857 95.0112 51.9318 94.8716C51.7778 94.732 51.5749 94.6594 51.3677 94.6699L33.9092 95.5559C33.7043 95.5646 33.5111 95.6537 33.371 95.804C33.2309 95.9543 33.1553 96.1538 33.1604 96.3596C33.1655 96.5653 33.2509 96.7608 33.3982 96.904C33.5455 97.0471 33.743 97.1265 33.948 97.125V97.1214Z" fill="url(#paint15_linear_1413_1845)"/>
<path d="M55.0622 79.3846C55.0464 79.3846 55.0307 79.3814 55.016 79.3753C55.0014 79.3692 54.9881 79.3603 54.9769 79.3491C54.9656 79.3378 54.9567 79.3244 54.9507 79.3097C54.9446 79.295 54.9415 79.2793 54.9415 79.2634C54.9293 75.5646 56.3475 70.6697 56.3619 70.6206C56.3708 70.5897 56.3916 70.5637 56.4197 70.5482C56.4478 70.5327 56.4809 70.529 56.5117 70.538C56.5425 70.547 56.5685 70.5679 56.5839 70.5961C56.5994 70.6243 56.603 70.6576 56.594 70.6885C56.5797 70.7375 55.1708 75.5999 55.183 79.2626C55.1831 79.2786 55.18 79.2944 55.174 79.3092C55.168 79.324 55.1591 79.3375 55.1479 79.3488C55.1367 79.3601 55.1233 79.3691 55.1086 79.3753C55.0939 79.3814 55.0782 79.3846 55.0622 79.3846Z" fill="url(#paint16_linear_1413_1845)"/>
<path d="M63.0023 81.1837C62.9762 81.1829 62.951 81.1738 62.9304 81.1577C62.9053 81.1376 62.8892 81.1083 62.8855 81.0762C62.8819 81.0442 62.8911 81.012 62.911 80.9867C62.9491 80.9384 66.7437 76.0969 68.0426 72.7935C68.0479 72.7782 68.0562 72.7641 68.067 72.7521C68.0778 72.7402 68.091 72.7305 68.1056 72.7238C68.1203 72.717 68.1361 72.7134 68.1522 72.7129C68.1683 72.7125 68.1843 72.7154 68.1993 72.7213C68.2144 72.7268 68.2283 72.7353 68.2402 72.7463C68.252 72.7573 68.2615 72.7705 68.2682 72.7852C68.2749 72.7999 68.2786 72.8158 68.2791 72.832C68.2796 72.8481 68.2769 72.8642 68.2712 72.8793C66.9594 76.2152 63.1425 81.0848 63.1044 81.1339C63.0927 81.1499 63.0773 81.1628 63.0595 81.1715C63.0417 81.1801 63.0221 81.1843 63.0023 81.1837Z" fill="url(#paint17_linear_1413_1845)"/>
<path d="M68.3814 88.6284L67.6913 87.6487C67.6723 87.6224 67.6644 87.5896 67.6695 87.5574C67.6745 87.5253 67.6921 87.4965 67.7183 87.4774C67.7445 87.4582 67.7772 87.4503 67.8092 87.4554C67.8413 87.4605 67.87 87.4781 67.889 87.5044L68.4641 88.324C73.8487 85.9548 77.1818 79.4894 77.2156 79.4237C77.2302 79.395 77.2555 79.3733 77.2861 79.3634C77.3166 79.3534 77.3498 79.356 77.3784 79.3707C77.407 79.3853 77.4286 79.4108 77.4385 79.4414C77.4485 79.472 77.4458 79.5054 77.4312 79.5341C77.3975 79.6012 73.9889 86.2145 68.4698 88.5859L68.3814 88.6284Z" fill="url(#paint18_linear_1413_1845)"/>
</g>
<defs>
<linearGradient id="paint0_linear_1413_1845" x1="214.352" y1="203.834" x2="69.3305" y2="77.3999" gradientUnits="userSpaceOnUse">
<stop stop-color="#DAE3FE"/>
<stop offset="1" stop-color="#E9EFFD"/>
</linearGradient>
<linearGradient id="paint1_linear_1413_1845" x1="16.0925" y1="14.4091" x2="171.667" y2="254.943" gradientUnits="userSpaceOnUse">
<stop stop-color="#4F52FF"/>
<stop offset="1" stop-color="#4042E2"/>
</linearGradient>
<linearGradient id="paint2_linear_1413_1845" x1="94.122" y1="190.832" x2="68.1828" y2="113.295" gradientUnits="userSpaceOnUse">
<stop stop-color="#09005D"/>
<stop offset="1" stop-color="#1A0F91"/>
</linearGradient>
<linearGradient id="paint3_linear_1413_1845" x1="34.1619" y1="186.195" x2="148.955" y2="214.016" gradientUnits="userSpaceOnUse">
<stop stop-color="#09005D"/>
<stop offset="1" stop-color="#1A0F91"/>
</linearGradient>
<linearGradient id="paint4_linear_1413_1845" x1="230.375" y1="20.7142" x2="196.863" y2="53.3792" gradientUnits="userSpaceOnUse">
<stop stop-color="#FF928E"/>
<stop offset="1" stop-color="#FE7062"/>
</linearGradient>
<linearGradient id="paint5_linear_1413_1845" x1="23.0676" y1="102.778" x2="14.0152" y2="112.198" gradientUnits="userSpaceOnUse">
<stop stop-color="#09005D"/>
<stop offset="1" stop-color="#1A0F91"/>
</linearGradient>
<linearGradient id="paint6_linear_1413_1845" x1="11.1044" y1="126.506" x2="-5.99709" y2="139.011" gradientUnits="userSpaceOnUse">
<stop stop-color="#09005D"/>
<stop offset="1" stop-color="#1A0F91"/>
</linearGradient>
<linearGradient id="paint7_linear_1413_1845" x1="38.6646" y1="80.0672" x2="50.2947" y2="93.8474" gradientUnits="userSpaceOnUse">
<stop stop-color="#FEBBBA"/>
<stop offset="1" stop-color="#FF928E"/>
</linearGradient>
<linearGradient id="paint8_linear_1413_1845" x1="96.0863" y1="46.0475" x2="61.1065" y2="82.3519" gradientUnits="userSpaceOnUse">
<stop stop-color="#FF928E"/>
<stop offset="1" stop-color="#FE7062"/>
</linearGradient>
<linearGradient id="paint9_linear_1413_1845" x1="52.1669" y1="92.6431" x2="28.9093" y2="60.9411" gradientUnits="userSpaceOnUse">
<stop stop-color="#FEBBBA"/>
<stop offset="1" stop-color="#FF928E"/>
</linearGradient>
<linearGradient id="paint10_linear_1413_1845" x1="66.3284" y1="66.305" x2="65.469" y2="58.6037" gradientUnits="userSpaceOnUse">
<stop stop-color="#FEBBBA"/>
<stop offset="1" stop-color="#FF928E"/>
</linearGradient>
<linearGradient id="paint11_linear_1413_1845" x1="61.7806" y1="59.5864" x2="65.5636" y2="47.1537" gradientUnits="userSpaceOnUse">
<stop stop-color="#FEBBBA"/>
<stop offset="1" stop-color="#FF928E"/>
</linearGradient>
<linearGradient id="paint12_linear_1413_1845" x1="65.1725" y1="36.744" x2="61.6536" y2="56.7413" gradientUnits="userSpaceOnUse">
<stop stop-color="#09005D"/>
<stop offset="1" stop-color="#1A0F91"/>
</linearGradient>
<linearGradient id="paint13_linear_1413_1845" x1="65.672" y1="60.771" x2="69.4558" y2="48.3383" gradientUnits="userSpaceOnUse">
<stop stop-color="#FEBBBA"/>
<stop offset="1" stop-color="#FF928E"/>
</linearGradient>
<linearGradient id="paint14_linear_1413_1845" x1="34.9546" y1="85.4524" x2="17.3401" y2="85.4524" gradientUnits="userSpaceOnUse">
<stop stop-color="#09005D"/>
<stop offset="1" stop-color="#1A0F91"/>
</linearGradient>
<linearGradient id="paint15_linear_1413_1845" x1="32.8173" y1="93.1802" x2="46.9096" y2="97.0282" gradientUnits="userSpaceOnUse">
<stop stop-color="#09005D"/>
<stop offset="1" stop-color="#1A0F91"/>
</linearGradient>
<linearGradient id="paint16_linear_1413_1845" x1="58.8892" y1="26.4642" x2="53.4046" y2="110.614" gradientUnits="userSpaceOnUse">
<stop stop-color="#E1473D"/>
<stop offset="1" stop-color="#E9605A"/>
</linearGradient>
<linearGradient id="paint17_linear_1413_1845" x1="68.8017" y1="27.1105" x2="63.3171" y2="111.26" gradientUnits="userSpaceOnUse">
<stop stop-color="#E1473D"/>
<stop offset="1" stop-color="#E9605A"/>
</linearGradient>
<linearGradient id="paint18_linear_1413_1845" x1="76.1769" y1="27.5912" x2="70.6924" y2="111.741" gradientUnits="userSpaceOnUse">
<stop stop-color="#E1473D"/>
<stop offset="1" stop-color="#E9605A"/>
</linearGradient>
<clipPath id="clip0_1413_1845">
<rect width="200" height="202" fill="white"/>
</clipPath>
</defs>
</svg>
