<svg width="199" height="131" viewBox="0 0 199 131" fill="none" xmlns="http://www.w3.org/2000/svg">
<g clip-path="url(#clip0_1413_1755)">
<path d="M197.15 130.999H0.629287C0.46239 130.999 0.302328 130.932 0.184313 130.813C0.0662991 130.694 0 130.533 0 130.365C0 130.197 0.0662991 130.036 0.184313 129.917C0.302328 129.798 0.46239 129.731 0.629287 129.731H197.15C197.317 129.731 197.477 129.798 197.595 129.917C197.713 130.036 197.78 130.197 197.78 130.365C197.78 130.533 197.713 130.694 197.595 130.813C197.477 130.932 197.317 130.999 197.15 130.999Z" fill="#2E5B99"/>
<path d="M135.849 62.6768L199 62.6768V3.18122L135.849 3.18122V62.6768Z" fill="#E6F6FF"/>
<path d="M31.1705 108.916H73.6914V70.4178H31.1705L31.1705 108.916Z" fill="#E6F6FF"/>
<path d="M127.677 40.3037V34.9597C127.677 33.7946 128.137 32.6771 128.955 31.8532C129.772 31.0293 130.882 30.5664 132.038 30.5664H178.461C179.618 30.5664 180.727 31.0293 181.544 31.8532C182.362 32.6771 182.822 33.7946 182.822 34.9597V129.416H62.7383V40.3037H127.677Z" fill="white"/>
<path d="M127.292 40.3037V34.9597C127.292 33.7946 127.752 32.6771 128.57 31.8532C129.387 31.0293 130.497 30.5664 131.653 30.5664H178.077C179.233 30.5664 180.342 31.0293 181.16 31.8532C181.978 32.6771 182.437 33.7946 182.437 34.9597V129.416H62.3555V40.3037H127.292Z" fill="#0F4599"/>
<path d="M178.414 43.9963V129.419H67.1738V43.5767L178.414 43.9963Z" fill="#BAE2FF"/>
<path d="M172.307 43.9963V129.419H61.0664V43.5767L172.307 43.9963Z" fill="#1480CC"/>
<path d="M56.5825 40.3042H166.48C168.735 40.3042 170.397 41.8419 170.721 43.9681V129.418H50.7775V46.136C50.752 43.0675 53.5007 40.3042 56.5825 40.3042Z" fill="white"/>
<path d="M96.8924 72.0268L161.123 72.2075L161.259 23.0282L97.0287 22.8475L96.8924 72.0268Z" fill="#EBF3FF"/>
<path d="M98.5744 69.6679L159.52 69.8394L159.645 24.6276L98.6997 24.4562L98.5744 69.6679Z" fill="#3397FF"/>
<path d="M154.384 66.1957L115.219 66.0851L136.633 45.3872L154.384 66.1957Z" fill="#E3EEFF"/>
<path d="M136.574 66.1457L103.666 66.0525L121.523 48.9458L136.574 66.1457Z" fill="#E3EEFF"/>
<path d="M127.608 44.0141C129.38 42.2294 129.38 39.336 127.608 37.5514C125.837 35.7667 122.965 35.7667 121.194 37.5514C119.422 39.336 119.422 42.2294 121.194 44.0141C122.965 45.7987 125.837 45.7987 127.608 44.0141Z" fill="#E3EEFF"/>
<path d="M88.3334 66.1455L147.881 66.334L148.044 14.1612L88.4961 13.9727L88.3334 66.1455Z" fill="#EBF3FF"/>
<path d="M90.0648 63.6464L146.23 63.8242L146.38 15.8614L90.2143 15.6836L90.0648 63.6464Z" fill="#3397FF"/>
<path d="M140.873 22.4727H118.504V24.4527H140.873V22.4727Z" fill="#CCE5FF"/>
<path d="M95.3609 29.7988L140.871 29.7988V27.8188L95.3609 27.8188V29.7988Z" fill="#CCE5FF"/>
<path d="M95.3609 35.2437L140.871 35.2437V33.2636L95.3609 33.2636V35.2437Z" fill="#CCE5FF"/>
<path d="M56.0529 40.3042H165.95C168.205 40.3042 169.867 41.8419 170.191 43.9681V129.725H50.2502V46.136C50.2217 43.0675 52.9711 40.3042 56.0529 40.3042Z" fill="#66B8FF"/>
<path d="M170.72 129.418H182.822V128.927H170.72V129.418Z" fill="white"/>
<g style="mix-blend-mode:darken" opacity="0.5">
<path d="M182.822 76.4473L178.413 79.3446H172.588L170.719 80.7936V79.4173H50.7773V76.4473H182.822Z" fill="black"/>
</g>
<path d="M48.3339 77.7725L184.525 77.7725V62.2693L48.3339 62.2693V77.7725Z" fill="#61B3F2"/>
<path d="M48.3343 77.7725L172.266 77.7725V62.2693L48.3343 62.2693V77.7725Z" fill="#2E97E6"/>
<path d="M138.005 62.2695V77.7674H127.236L134.786 62.2695H138.005Z" fill="#0E0E0E"/>
<path d="M134.283 70.0032C134.283 72.1483 134.655 74.089 135.28 75.4857C135.89 76.9158 136.739 77.7672 137.676 77.7672H140.532V62.2739H137.676C135.8 62.2739 134.283 65.7469 134.283 70.0032ZM136.99 72.5573C136.455 72.3869 136.037 71.3318 136.037 70.0032C136.037 68.7102 136.455 67.655 136.99 67.4838C137.526 67.6542 137.942 68.7102 137.942 70.0032C137.944 71.3318 137.527 72.3869 136.991 72.5573H136.99Z" fill="#2475B3"/>
<path d="M135.74 70.0032C135.74 72.1483 136.13 74.089 136.784 75.4857C137.422 76.9158 138.309 77.7672 139.29 77.7672H140.536V62.2739H139.29C137.329 62.2739 135.74 65.7469 135.74 70.0032ZM137.111 70.0032C137.111 68.7102 137.921 67.655 138.481 67.4838C139.042 67.6542 139.477 68.7102 139.477 70.0032C139.477 71.3318 139.042 72.3869 138.481 72.5573C137.921 72.3869 137.111 71.3318 137.111 70.0032Z" fill="#3F9EE6"/>
<path d="M135.652 70.0032C135.652 72.1483 136.025 74.089 136.649 75.4857C137.259 76.9158 138.108 77.7672 139.045 77.7672H141.902V62.2739H139.045C137.17 62.2739 135.652 65.7469 135.652 70.0032ZM138.359 72.5573C137.824 72.3869 137.407 71.3318 137.407 70.0032C137.407 68.7102 137.824 67.655 138.359 67.4838C138.895 67.6542 139.312 68.7102 139.312 70.0032C139.313 71.3318 138.897 72.3869 138.36 72.5573H138.359Z" fill="#2475B3"/>
<path d="M137.109 70.0032C137.109 72.1483 137.499 74.089 138.153 75.4857C138.791 76.9158 139.678 77.7672 140.66 77.7672H141.905V62.2739H140.66C138.698 62.2739 137.109 65.7469 137.109 70.0032ZM138.48 70.0032C138.48 68.7102 138.916 67.655 139.476 67.4838C140.037 67.6542 140.473 68.7102 140.473 70.0032C140.473 71.3318 140.037 72.3869 139.476 72.5573C138.916 72.3869 138.48 71.3318 138.48 70.0032Z" fill="#61B3F2"/>
<path d="M139.032 77.8681C138.911 77.8681 138.214 77.8356 137.478 77.1228C136.641 76.3138 135.645 74.4868 135.645 70.3752C135.645 66.4584 136.554 64.4427 137.316 63.4406C138.156 62.3377 138.994 62.1809 139.029 62.1749C139.055 62.1702 139.082 62.1763 139.104 62.1916C139.126 62.2069 139.141 62.2303 139.145 62.2567C139.15 62.283 139.144 62.3101 139.128 62.3319C139.113 62.3538 139.09 62.3687 139.064 62.3733C139.056 62.3733 138.254 62.5301 137.461 63.5815C136.723 64.5594 135.845 66.5356 135.845 70.3752C135.845 74.4057 136.804 76.1865 137.608 76.9698C138.34 77.6818 139.037 77.6674 139.043 77.6659C139.068 77.6669 139.092 77.6776 139.11 77.6956C139.128 77.7137 139.138 77.738 139.139 77.7635C139.14 77.789 139.132 77.814 139.115 77.8334C139.099 77.8528 139.076 77.8652 139.05 77.8681H139.032Z" fill="#1A5380"/>
<path d="M139.475 72.3498C139.61 72.3838 139.711 72.4179 139.845 72.452C139.812 72.4861 139.812 72.4861 139.845 72.4861C145.287 74.12 149.309 79.1594 149.309 85.1866V98.1288H153.635V85.1866C153.635 76.8105 147.789 69.7956 139.981 68.0254C139.817 67.964 139.647 67.9186 139.475 67.8898C138.224 67.6171 138.122 72.146 139.475 72.3498Z" fill="#E6E6E6"/>
<path d="M134.355 67.6582V71.9924C128.778 72.7158 124.276 76.8834 123.077 82.3304C123.041 82.4406 123.018 82.5548 123.01 82.6705C122.948 82.9626 122.903 83.258 122.874 83.5552C122.807 84.0975 122.773 84.6434 122.773 85.1899V98.132H118.48V85.1899C118.482 76.0366 125.464 68.5369 134.355 67.6582Z" fill="#E6E6E6"/>
<path d="M139.375 71.0745C149.519 72.8667 150.825 83.9932 150.825 83.9932V98.1352H149.304V85.19C149.304 79.0355 145.116 73.8916 139.479 72.3592C139.048 72.2183 138.779 70.9473 138.779 70.9473C138.779 70.9473 139.042 71.0079 139.375 71.0745Z" fill="#999999"/>
<path d="M134.354 71.0742V71.9953C128.777 72.7187 124.275 76.8863 123.076 82.3333C123.321 79.1511 125.937 72.2036 134.354 71.0742Z" fill="#808080"/>
<path d="M139.475 72.3498C139.61 72.3838 139.711 72.4179 139.845 72.452C139.745 72.1793 139.194 71.5605 139.127 70.2667C139.059 68.9389 139.507 68.0405 139.981 68.0254C139.817 67.964 139.647 67.9186 139.475 67.8898C138.224 67.6171 138.122 72.146 139.475 72.3498Z" fill="#666666"/>
<path d="M157.348 94.6006H114.73V129.699H157.348V94.6006Z" fill="#F7AF0C"/>
<path d="M136.68 103.271C136.547 103.242 136.41 103.23 136.274 103.236C135.58 103.236 134.894 103.374 134.253 103.642C133.613 103.911 133.031 104.303 132.541 104.798C132.051 105.293 131.663 105.88 131.399 106.527C131.135 107.173 131 107.865 131.002 108.564C131.006 109.591 131.3 110.596 131.851 111.461C132.402 112.325 133.186 113.013 134.112 113.444V122.485C134.112 123.687 135.089 124.681 136.274 124.681C136.388 124.687 136.502 124.675 136.612 124.647H136.711C137.201 124.539 137.64 124.266 137.954 123.871C138.267 123.477 138.438 122.987 138.436 122.482V113.444C139.364 113.017 140.151 112.329 140.702 111.464C141.253 110.599 141.546 109.592 141.545 108.564C141.552 107.224 141.053 105.932 140.149 104.95C139.246 103.967 138.006 103.367 136.68 103.271Z" fill="#CC840A"/>
<path d="M136.681 103.271C133.943 103.442 131.779 105.745 131.779 108.564C131.783 109.591 132.078 110.596 132.629 111.46C133.18 112.325 133.964 113.013 134.89 113.444V122.485C134.888 122.99 135.058 123.48 135.371 123.874C135.685 124.268 136.123 124.542 136.613 124.65H136.712C137.202 124.542 137.64 124.268 137.954 123.874C138.268 123.48 138.438 122.99 138.437 122.485V113.444C139.365 113.017 140.151 112.329 140.703 111.464C141.254 110.599 141.546 109.592 141.546 108.564C141.552 107.224 141.053 105.932 140.15 104.95C139.247 103.967 138.007 103.367 136.681 103.271Z" fill="#803D00"/>
<path d="M128.254 129.698H114.73V94.6006H118.482C118.482 94.6006 117.486 120.497 128.254 129.698Z" fill="#E6950B"/>
<path d="M148.197 129.698C151.43 122.735 150.825 104.02 150.825 94.6006H155.117V129.698H148.197Z" fill="#F7E4AD"/>
<path d="M104.241 97.1553C104.241 97.1553 99.8681 97.0122 95.56 97.2197C91.0844 97.4401 86.6726 98.0362 87.3034 99.5913C87.4399 99.9146 87.4704 100.273 87.3906 100.615C86.4884 104.775 70.1735 107.887 66.5692 105.332C63.8814 103.427 56.4728 105.876 53.4376 107.198C47.6575 68.2161 47.4981 28.3656 52.6151 25.5925C57.7336 22.833 71.9193 26.3318 71.9193 26.3318C71.9193 26.3318 79.1083 28.249 82.0405 48.0606C84.9847 67.8586 104.241 97.1553 104.241 97.1553Z" fill="#4582E6"/>
<path d="M87.3038 99.5914C87.4403 99.9147 87.4709 100.274 87.391 100.616C82.9672 87.0235 72.5498 48.1902 76.3308 58.7766C79.9576 68.9866 91.3397 89.6663 95.5582 97.2205C91.0848 97.4402 86.673 98.0401 87.3038 99.5914Z" fill="#3D73CC"/>
<path d="M52.0836 35.8994C47.8778 41.082 47.1064 42.3379 43.1706 42.6113C44.4953 43.4536 45.2802 44.5936 45.82 45.8245H45.8328C46.9906 48.3772 47.1575 51.354 49.177 53.0288L46.7591 55.4254L46.1418 56.0473C46.1418 56.0473 46.0516 55.9716 45.8975 55.8276C44.8449 54.8429 40.6504 50.8647 38.1535 47.2107C36.6875 45.0897 35.8003 43.0771 36.4176 41.8205C37.4205 38.1665 39.9925 30.6645 46.5388 28.4224C50.8348 23.7192 55.0398 26.2461 56.5322 28.2027C58.5268 30.8198 56.5202 36.4175 52.0836 35.8994Z" fill="#002E73"/>
<path d="M49.1777 53.029L46.7598 55.4256L45.8982 55.8279C44.908 54.8947 41.1271 51.3186 38.6054 47.8456C38.4505 47.6388 38.2964 47.4184 38.1543 47.2109C39.4016 47.198 43.4172 47.0942 45.823 45.8247H45.8358C45.9391 46.0449 46.0293 46.265 46.1065 46.4852C47.0297 48.8697 47.326 51.4997 49.1777 53.029Z" fill="#231F20"/>
<path d="M46.1035 46.4851C43.4412 48.1182 40.3895 48.066 38.6054 47.8486C38.4505 47.6418 38.2964 47.4214 38.1543 47.2138C39.4016 47.2009 43.4172 47.0972 45.823 45.8276H45.8358C45.9371 46.0448 46.0263 46.2639 46.1035 46.4851Z" fill="#66B8FF"/>
<path d="M47.3657 50.8164C47.3657 50.8164 50.1204 51.0747 50.9542 51.8011C51.6504 52.4116 51.2249 53.1737 51.2249 53.1737C52.7075 54.0137 51.2249 57.2716 48.637 58.0752C46.0492 58.8789 44.3516 53.9675 44.3516 53.9675C44.3516 53.9675 44.7463 50.9914 47.3657 50.8164Z" fill="#231F20"/>
<path d="M82.1201 129.871H72.7748C72.6054 129.783 72.4613 129.653 72.356 129.493C71.8748 122.49 71.1816 119.115 71.1816 119.115L77.6903 118.849L79.1639 124.058C81.3442 125.563 83.9433 128.784 82.1201 129.871Z" fill="#231F20"/>
<path d="M72.0657 129.998H83.1455C83.426 129.998 83.332 128.445 83.0508 128.445L72.0379 128.508C71.7522 128.508 71.777 129.998 72.0657 129.998Z" fill="#231F20"/>
<path d="M68.2067 55.2916C69.7187 59.3903 76.1537 78.1672 74.3169 91.6926C76.8438 100.684 76.0499 108.3 78.3287 121.432L71.696 121.784C68.9999 105.762 66.0332 108.819 65.1746 92.9523C59.7095 80.5108 56.8751 68.7238 55.4203 56.5937C54.006 47.4412 65.1535 42.6381 68.2067 55.2916Z" fill="#002E73"/>
<path d="M71.7629 122.467C71.7629 122.467 71.2667 117.695 68.1458 108.589C67.1775 105.787 66.6519 103.938 66.379 102.798C66.1061 101.644 66.0723 101.207 66.0723 101.207C67.7173 99.2892 69.8051 96.3995 71.6592 92.9272C73.6891 96.1276 76.104 99.3286 76.104 99.3286C76.104 99.3286 76.1657 100.08 76.2755 101.311C76.7649 106.468 78.0799 120.096 78.8745 122.988C79.8542 126.561 73.6876 128.596 71.7629 122.467Z" fill="#231F20"/>
<path d="M76.2753 101.308C75.216 100.116 73.3085 97.8743 71.7131 95.4246C70.9899 98.0682 67.954 101.269 66.3751 102.798C66.1022 101.644 66.0684 101.207 66.0684 101.207C67.7134 99.2892 69.8012 96.3995 71.6553 92.9272C73.6852 96.1276 76.1001 99.3286 76.1001 99.3286C76.1001 99.3286 76.1655 100.077 76.2753 101.308Z" fill="#66B8FF"/>
<path d="M60.3629 57.0293C59.8945 74.8837 56.7353 90.049 56.7353 90.049C58.0728 102.23 55.0309 104.5 53.6573 121.927L47.6621 121.847C47.6471 114.774 47.2396 106.016 46.8133 91.8321C43.0391 77.0099 44.8585 66.0932 46.2645 57.2323C47.7659 47.1686 61.3207 43.838 60.3629 57.0293Z" fill="#002E73"/>
<path d="M53.6562 121.927C54.1908 124.812 54.5742 127.063 54.3502 129.674L39.8307 129.959C39.8307 129.959 38.3939 128.549 40.2006 126.434C42.0072 124.319 45.4386 125.542 47.6611 121.847L53.6562 121.927Z" fill="#231F20"/>
<path d="M39.1721 129.998H54.5975C54.8787 129.998 54.805 128.445 54.5223 128.445L39.1623 128.508C38.8751 128.508 38.8834 129.998 39.1721 129.998Z" fill="#231F20"/>
<path d="M56.5406 102.227C56.5406 102.227 56.4368 102.746 56.2602 103.627C55.5294 107.475 53.5708 118.217 53.8001 123.049C51.0747 126.328 47.5321 122.687 47.5321 122.687L46.1036 96.1372L46.0059 94.3496C48.9559 97.6626 52.5389 100.342 56.5406 102.227Z" fill="#231F20"/>
<path d="M56.5399 102.227C56.5399 102.227 56.4361 102.746 56.2594 103.627C50.9642 102.072 47.7035 98.418 46.1036 96.1372L46.0059 94.3496C48.9556 97.6625 52.5384 100.342 56.5399 102.227Z" fill="#66B8FF"/>
<path d="M46.711 56.1855C46.711 59.273 68.4744 58.3822 68.4744 55.2917C68.3993 50.1977 69.0985 46.0059 70.0495 42.5397C76.5747 36.1012 76.1853 31.1019 74.532 28.3886C71.681 23.712 57.2781 23.9771 52.0927 25.9875C50.0334 26.7858 47.2681 30.0377 46.384 35.2218C45.9329 37.8873 47.8771 40.9914 48.1884 43.1457C48.8981 48.1321 46.8561 55.4705 46.711 56.1855Z" fill="#002E73"/>
<path d="M60.2768 28.1084C61.3504 27.2494 65.6337 25.9238 66.7727 24.9838L66.5156 17.4932L62.3053 17.0796C61.1079 17.1809 59.9312 17.4554 58.8115 17.8946L57.8642 22.8273L57.6544 23.8968C57.177 24.9497 58.122 26.2192 60.2768 28.1084Z" fill="#F7A594"/>
<path d="M65.0982 19.1874C64.4381 20.2115 61.6721 22.8346 57.8633 22.8233L58.6828 18.5557L65.0982 19.1874Z" fill="#E6836F"/>
<path d="M55.777 9.32083C55.447 10.7964 54.7666 14.0368 54.8748 15.5321C55.044 17.8045 57.1499 20.3239 58.9866 20.6541C61.1128 20.8723 63.9796 20.2345 65.5359 18.8877C66.4012 17.8651 68.0778 15.4389 68.8492 13.3157C70.4589 8.88604 67.3523 5.00249 63.4112 4.10489C59.4701 3.20729 56.807 4.71996 55.777 9.32083Z" fill="#F7A594"/>
<path d="M67.5335 16.2386C68.3552 14.7812 67.2628 14.1934 66.0659 15.322C66.2704 14.2222 67.5147 11.0006 66.4125 9.93185C65.1674 8.69187 59.6895 9.23195 56.7461 6.13996C56.7461 6.13996 58.94 1.29214 66.1403 4.15614C74.2722 8.50023 67.5335 16.2386 67.5335 16.2386Z" fill="#73382A"/>
<path d="M68.6415 16.6143C69.2679 15.8545 69.3007 14.841 68.7146 14.3504C68.1286 13.8599 67.1456 14.0781 66.5191 14.8378C65.8926 15.5975 65.8599 16.6111 66.4459 17.1016C67.032 17.5922 68.015 17.374 68.6415 16.6143Z" fill="#F7A594"/>
<path d="M57.895 22.3953C58.6153 23.6898 66.0194 23.0164 66.6878 21.9287L67.099 26.0728L60.2092 30.0117L56.6094 26.0228L57.895 22.3953Z" fill="#002E73"/>
<path d="M70.063 8.64192C69.86 5.01439 62.8912 -0.104595 57.8923 1.7959C54.521 3.07754 55.312 6.68386 58.2479 7.36482C60.8365 7.9655 68.006 4.83866 70.063 8.64192Z" fill="#231F20"/>
<path d="M57.2697 1.80732C57.2697 1.80732 57.4201 0.773378 57.9719 0C54.0624 2.5807 56.0074 5.66815 56.0533 5.7992C57.6043 1.0544 61.3056 1.27179 62.6198 1.28846C59.2388 -0.31435 57.3036 1.66568 57.2697 1.80732Z" fill="#231F20"/>
<path d="M46.4383 57.2324C52.1154 59.6995 65.2342 59.1564 69.1513 57.2665L70.1535 60.6123C61.6254 62.637 53.4627 62.6938 45.7188 60.5486L46.4383 57.2324Z" fill="#66B8FF"/>
<path d="M84.4285 49.388C80.6731 53.4435 72.751 58.0694 72.751 58.0694L70.3203 54.5449C72.8412 53.1458 74.2298 49.5175 76.6357 47.03C77.4627 46.1748 78.398 45.462 79.5295 44.9954C75.6952 43.9978 73.7674 43.0389 70.5781 37.1692C66.1152 36.8579 65.1514 30.9762 67.5813 28.7855C69.4083 27.1403 74.0118 25.4171 77.3815 30.8307C83.4007 34.2393 85.9728 41.6762 86.2946 45.4597C86.5893 46.5376 85.7788 47.9238 84.4285 49.388Z" fill="#002E73"/>
<path d="M72.499 52.7002C72.499 52.7002 69.7435 52.4457 68.7917 53.0108C67.9962 53.4827 68.2759 54.3106 68.2759 54.3106C66.6662 54.8628 67.5323 58.3388 69.9299 59.6061C72.3275 60.8733 74.8875 56.3558 74.8875 56.3558C74.8875 56.3558 75.0417 53.3547 72.499 52.7002Z" fill="#231F20"/>
<path d="M84.4285 49.3878C84.197 49.634 83.9526 49.893 83.6955 50.1392C79.7348 54.0023 72.751 58.0692 72.751 58.0692L70.3203 54.5447C72.4939 53.3395 73.8186 50.4892 75.6832 48.1312C75.9798 47.7464 76.2976 47.3787 76.635 47.0298C77.574 47.5865 80.3776 49.0765 84.4285 49.3878Z" fill="#231F20"/>
<path d="M84.429 49.3878C84.1974 49.634 83.953 49.893 83.6959 50.1392C80.3006 49.971 77.1113 48.7402 75.6836 48.1312C75.9802 47.7464 76.298 47.3787 76.6354 47.0298C77.5745 47.5865 80.3781 49.0765 84.429 49.3878Z" fill="#66B8FF"/>
<path d="M59.2131 31.7041C59.8897 32.7759 61.0588 33.7493 62.3708 34.2795C62.3595 34.381 62.2956 34.9438 61.9948 37.5366C61.5911 40.9975 58.4612 42.2496 57.974 42.4412C57.5613 42.1473 54.8005 40.0173 55.2043 36.5549C55.505 33.9606 55.5727 33.3978 55.5847 33.2978C56.9711 33.1562 58.3131 32.5487 59.2131 31.7041Z" fill="white"/>
<path d="M58.856 33.5425H58.8508C58.1974 34.0629 57.3343 34.4234 56.4156 34.5575L56.157 36.7708C56.0389 37.7836 56.2938 38.7501 56.9141 39.6439C57.2121 40.0723 57.5702 40.4551 57.9772 40.7801L58.0087 40.8051C58.4892 40.606 58.9359 40.3325 59.3327 39.9946C60.1379 39.3068 60.6056 38.4448 60.7236 37.4321L60.9822 35.2188C60.1465 34.8463 59.4158 34.2703 58.856 33.5425Z" fill="#F7AF0C"/>
<path d="M56.9924 24.9141C57.3615 25.8707 58.5938 26.7131 59.9832 27.5342C62.8048 27.0683 64.9694 26.1881 67.0865 24.9398C69.1699 24.9307 70.669 25.7382 72.2111 26.3343L59.9095 28.353L52.6836 25.6049C53.6444 25.2473 55.0203 25.0118 56.9924 24.9141Z" fill="#66B8FF"/>
<path d="M80.9692 40.9214C85.2291 45.4367 92.0024 49.1157 99.2343 50.6541C99.2396 51.1382 99.2689 53.8181 99.4058 66.1702C99.587 82.6474 84.0029 90.8023 81.5872 92.0544C79.228 90.9841 63.3409 83.0489 63.1589 66.5716C63.0229 54.2203 62.9935 51.5404 62.9883 51.0563C70.1811 49.3581 76.8108 45.5298 80.9692 40.9214Z" fill="white"/>
<path d="M81.034 43.8994C85.2007 47.6822 90.9582 50.6409 97.2789 52.2316L97.4293 66.1918C97.4992 72.5803 95.0069 78.3757 90.0199 83.4189C87.5146 85.9301 84.6558 88.0557 81.5355 89.7271L81.2949 89.6037L80.9941 43.9335C81.0099 43.9214 81.0227 43.9108 81.034 43.8994Z" fill="#007880"/>
<path d="M81.0014 43.9316L81.3021 89.6018C78.2383 88.0177 75.416 85.9989 72.9214 83.6072C67.8254 78.6753 65.2053 72.9367 65.1346 66.5482L64.9805 52.5872C71.2425 50.8625 76.9181 47.791 81.0014 43.9316Z" fill="#008F99"/>
<path d="M73.7988 64.1053L73.874 74.9212C73.8815 76.1248 88.5446 76.0278 88.5348 74.8242L88.4597 64.0083L73.7988 64.1053ZM79.3459 68.1517C79.3418 67.8231 79.4259 67.4995 79.5892 67.215C79.7526 66.9306 79.9892 66.6958 80.274 66.5356C80.5588 66.3754 80.8812 66.2957 81.2073 66.3048C81.5333 66.314 81.8509 66.4117 82.1264 66.5876C82.4019 66.7635 82.6252 67.0111 82.7726 67.3042C82.92 67.5974 82.9861 67.9252 82.9639 68.2531C82.9417 68.5809 82.832 68.8967 82.6465 69.167C82.4609 69.4372 82.2063 69.652 81.9096 69.7886L81.9299 72.8609C81.9252 73.0551 81.8456 73.2398 81.7081 73.3759C81.5705 73.512 81.3858 73.5888 81.193 73.5901C81.0002 73.5914 80.8145 73.517 80.6751 73.3827C80.5358 73.2485 80.4538 73.0648 80.4466 72.8707L80.4263 69.8052C80.1062 69.6647 79.8337 69.4332 79.6421 69.1391C79.4505 68.8451 79.3481 68.5012 79.3474 68.1494L79.3459 68.1517Z" fill="white"/>
<path d="M75.076 63.3238L76.5601 63.3139L76.5556 62.586C76.5609 61.3754 77.04 60.2157 77.8888 59.3587C78.7375 58.5017 79.8875 58.0166 81.0892 58.0086C82.2908 58.0006 83.447 58.4704 84.3069 59.3161C85.1669 60.1617 85.661 61.3149 85.6822 62.5254L85.6867 63.2541L87.1708 63.2442L87.1656 62.5148C87.1437 59.1706 84.4131 56.4679 81.0757 56.4899C77.7383 56.5118 75.0467 59.2509 75.0685 62.5951L75.076 63.3238Z" fill="white"/>
</g>
<defs>
<clipPath id="clip0_1413_1755">
<rect width="199" height="131" fill="white"/>
</clipPath>
</defs>
</svg>
