<svg width="344" height="215" viewBox="0 0 344 215" fill="none" xmlns="http://www.w3.org/2000/svg">
<g clip-path="url(#clip0_1413_1906)">
<path d="M327.828 214.504C308.154 214.504 21.5636 214.574 21.3975 214.062L21.3699 213.997C21.3554 213.967 21.3457 213.934 21.3409 213.901C21.2315 213.646 -22.8154 141.659 45.6623 91.5471C72.4557 71.9407 43.9849 58.9957 65.2916 37.1737C89.7764 12.0895 116.499 39.8383 143.727 28.4639C148.538 26.4562 153.364 23.2243 158.197 18.2651C160.89 15.5089 163.871 13.0501 167.09 10.931C167.58 10.6071 168.074 10.2911 168.573 9.98309C170.487 8.80613 172.467 7.73809 174.502 6.78404C175.874 6.14247 177.271 5.54874 178.692 5.00284C180.966 4.13246 183.285 3.38278 185.638 2.75692C189.042 1.85402 192.502 1.17979 195.996 0.738749C197.536 0.540399 199.089 0.382858 200.654 0.26613C231.081 -2.01007 265.326 10.7677 282.983 29.4446C286.541 33.2045 302.715 52.6648 289.967 79.4117C281.916 96.2983 315.641 112.426 327.625 131.71C358.099 180.739 328.105 213.865 327.828 214.504Z" fill="#EBF3FA"/>
<g opacity="0.8">
<path d="M151.445 84.2669C151.446 86.8717 151.212 89.4713 150.746 92.0342C149.666 97.9633 147.346 103.598 143.938 108.571C136.164 119.923 123.107 127.373 108.303 127.373C90.6939 127.373 75.5486 116.833 68.8444 101.721C67.9525 99.7144 67.2181 97.6417 66.6478 95.5215C64.8536 88.8515 64.6797 81.8497 66.1405 75.0989C66.1405 75.0647 66.155 75.0318 66.1616 74.9976C68.4475 64.6799 74.4378 55.5566 83 49.3525C83.8873 48.7101 84.8 48.101 85.7381 47.5252C92.5226 43.3522 100.336 41.1491 108.303 41.1627C109.4 41.1627 110.487 41.2035 111.564 41.2851C119.239 41.852 126.619 44.4731 132.93 48.8733V48.8733C137.657 52.1613 141.68 56.358 144.764 61.218C145.424 62.2606 146.039 63.3322 146.609 64.4328C149.792 70.5598 151.448 77.3637 151.437 84.2669H151.445Z" fill="#D7E5FF"/>
<path d="M93.6469 64.9727C91.9208 67.6965 94.365 72.4267 89.2011 71.1391C84.0372 69.8516 80.8787 69.2724 80.5889 72.1383C80.299 75.0043 84.4628 75.007 84.4628 78.0164C84.4628 81.0259 82.597 82.0225 79.7284 80.5928C76.8599 79.1631 76.039 77.0844 72.6974 78.3745C69.3558 79.6647 67.4267 78.8037 66.6717 76.2234C66.5575 75.8202 66.3767 75.4388 66.1367 75.0952C66.1367 75.0609 66.1512 75.028 66.1578 74.9938C68.4456 64.677 74.4373 55.5551 83.0002 49.3527C83.8874 48.7102 84.8001 48.1011 85.7383 47.5254C87.0836 47.5741 88.6912 48.0836 90.0616 49.7779C93.0737 53.5062 95.0818 51.642 94.365 55.943C93.6482 60.2439 94.7959 60.814 97.2336 60.6731C99.6713 60.5322 102.542 60.5283 102.83 62.3924C103.117 64.2566 95.3678 62.2489 93.6469 64.9727Z" fill="#AEC3FF"/>
<path d="M93.9479 84.8778C93.9479 84.8778 91.3455 87.9057 89.1015 86.1653C86.8575 84.4249 87.5361 83.3415 84.2499 84.4355C80.9636 85.5295 79.5181 83.7193 77.8342 85.0871C76.1502 86.4549 77.5166 86.6261 76.3518 89.5263C75.187 92.4265 72.7796 92.8912 74.6388 95.7862C76.4981 98.6811 79.9609 97.1922 81.7845 98.7232C83.6082 100.254 83.0126 101.751 85.2882 102.376C87.5638 103.002 89.7393 100.786 89.7841 103.532C89.8289 106.279 88.95 108.962 91.7803 111.516C94.6107 114.069 94.0797 114.646 96.9891 115.89C99.8985 117.134 103.376 116.013 102.934 114.266C102.493 112.519 98.7429 112.167 98.6691 110.195C98.5953 108.223 100.589 108.388 99.7904 105.851C98.9919 103.314 101.223 101.946 100.469 100.306C99.7153 98.6653 95.4158 98.1058 95.9165 96.4536C96.4172 94.8014 100.306 96.2022 100.518 92.7095C100.73 89.2169 98.3687 87.9702 98.7178 84.5658C99.067 81.1614 94.3471 82.7846 93.9479 84.8778Z" fill="#AEC3FF"/>
<path d="M151.445 84.2668C151.446 86.8716 151.212 89.4712 150.747 92.034C149.666 97.9631 147.346 103.598 143.938 108.57C142.815 108.956 141.59 108.924 140.489 108.478C135.109 106.328 139.089 100.523 141.242 97.6199C143.395 94.717 137.906 96.0085 133.925 93.3202C129.945 90.632 134.355 83.4295 130.266 84.613C126.177 85.7965 121.228 87.3 118.862 83.3229C116.495 79.3458 121.013 78.6994 118.968 75.3674C116.923 72.0354 120.154 70.1014 124.239 69.7776C128.324 69.4537 127.789 66.5522 132.846 66.1217C137.903 65.6912 137.797 72.142 143.387 71.7128C148.978 71.2836 148.731 72.5725 148.731 72.5725C149.134 72.5626 149.534 72.6464 149.899 72.8173C150.925 76.5474 151.445 80.3984 151.445 84.2668V84.2668Z" fill="#AEC3FF"/>
<path d="M146.617 64.433C141.964 66.6948 140.097 60.5442 136.12 62.3925C132.111 64.2566 132.813 60.6732 129.664 58.3785C126.514 56.0839 120.195 60.2427 120.482 56.6579C120.769 53.0731 125.502 54.0789 126.506 51.2129C127.511 48.3469 132.103 49.0618 132.103 49.0618C132.371 48.9606 132.651 48.8972 132.937 48.8735C137.663 52.1615 141.687 56.3583 144.771 61.2182C145.428 62.2608 146.043 63.3325 146.617 64.433Z" fill="#AEC3FF"/>
<path d="M107.419 52.0723C107.419 52.0723 109.858 48.556 105.985 47.5186C102.113 46.4812 102.183 47.8398 99.1705 47.5186C96.1583 47.1974 94.9737 49.5275 97.2335 52.0723C99.4933 54.617 101.318 59.4986 103.367 56.8959C105.416 54.2932 105.017 52.3224 107.419 52.0723Z" fill="#AEC3FF"/>
</g>
<path d="M160.22 130.715L153.611 209.213C153.611 209.213 152.918 213.972 156.462 213.98C162.287 213.993 185.45 213.98 185.45 213.98C185.45 213.98 181.066 212.99 181.119 210.761C181.181 208.128 188.842 129.972 188.842 129.972L160.22 130.715Z" fill="#7599EA"/>
<path d="M187.633 212.587C186.487 212.587 164.059 212.628 158.381 212.555C155.909 212.525 155.476 210.359 155.455 208.959C155.447 208.568 155.472 208.176 155.53 207.79L155.702 205.749L156.14 200.549L156.527 195.954L157.024 190.051L157.443 185.068L162.138 129.289L190.764 128.548C190.764 128.548 187.538 161.257 185.256 185.068C185 187.721 184.758 190.265 184.534 192.639C184.461 193.398 184.391 194.138 184.325 194.86C184.112 197.113 183.919 199.181 183.751 201.008C183.662 201.971 183.58 202.866 183.506 203.685C183.215 206.896 183.044 208.951 183.042 209.336C183.04 209.55 183.058 209.763 183.098 209.972C183.573 212.474 187.202 212.587 187.633 212.587Z" fill="#90AFF4"/>
<path d="M90.6973 87.999L106.793 152.594L108.996 161.44L116.492 191.526H255.765L228.135 87.999H90.6973Z" fill="#AEC3FF"/>
<path d="M90.6956 87.999L88.4648 88.7415L113.527 193.773L116.493 191.526L90.6956 87.999Z" fill="#90AFF4"/>
<path d="M113.527 193.773H251.943L255.765 191.526H116.493L113.527 193.773Z" fill="#7599EA"/>
<path d="M162.135 214.01H192.104V212.587H162.135V214.01Z" fill="#AEC3FF"/>
<path d="M184.485 193.771L184.331 194.86L156.146 200.549L156.534 195.954L156.718 193.771H184.485Z" fill="#5888DD"/>
<path opacity="0.4" d="M187.634 212.587C186.487 212.587 164.059 212.628 158.382 212.556C155.91 212.525 155.476 210.36 155.455 208.959L183.507 203.685C183.216 206.896 183.044 208.951 183.043 209.337C183.04 209.55 183.059 209.763 183.098 209.973C183.574 212.474 187.203 212.587 187.634 212.587Z" fill="#5888DD"/>
<path d="M90.6953 87.999H228.134L250.433 171.202H111.427L90.6953 87.999Z" fill="#C2D5FF"/>
<path d="M243.953 167.596H115.269L110.67 149.294L108.891 142.212L108.165 139.324L103.44 120.516L103.195 119.536L100.697 109.594L99.5794 105.146L98.6254 101.351L96.3906 92.4551H223.218L225.673 101.351L226.721 105.146L227.948 109.594L236.034 138.901V138.902L236.719 141.385L237.038 142.538L242.621 162.77L243.953 167.596Z" fill="#739AF0"/>
<path d="M225.673 101.352H98.6254L96.3906 92.4551H223.22L225.673 101.352Z" fill="#607CF4"/>
<path d="M101.636 96.4757C101.482 95.8622 101.856 95.3633 102.472 95.3633C102.791 95.3793 103.097 95.4954 103.347 95.6951C103.596 95.8948 103.776 96.1679 103.862 96.4757C104.015 97.0905 103.642 97.5881 103.026 97.5881C102.707 97.5725 102.401 97.4565 102.151 97.2568C101.901 97.0571 101.721 96.7837 101.636 96.4757V96.4757Z" fill="#E9F3FE"/>
<path d="M105.335 96.4757C105.182 95.8622 105.556 95.3633 106.172 95.3633C106.491 95.3793 106.797 95.4954 107.047 95.6951C107.296 95.8948 107.476 96.1679 107.562 96.4757C107.715 97.0905 107.34 97.5881 106.726 97.5881C106.407 97.5724 106.1 97.4564 105.851 97.2567C105.601 97.057 105.42 96.7837 105.335 96.4757V96.4757Z" fill="#E9F3FE"/>
<path d="M109.314 96.4757C109.16 95.8622 109.534 95.3633 110.149 95.3633C110.469 95.3793 110.775 95.4954 111.024 95.6951C111.274 95.8948 111.454 96.1679 111.54 96.4757C111.694 97.0905 111.319 97.5881 110.704 97.5881C110.385 97.5725 110.078 97.4565 109.829 97.2568C109.579 97.0571 109.399 96.7837 109.314 96.4757Z" fill="#E9F3FE"/>
<path opacity="0.5" d="M163.644 171.202L116.539 191.768L111.428 171.202H163.644Z" fill="#90AFF4"/>
<path d="M122.685 66.4469C120.414 67.2947 118.949 69.2562 118.949 71.4192V119.404C118.949 129.221 123.614 138.415 131.433 144.011L159.649 162.076C160.596 162.665 161.688 162.977 162.803 162.977C163.918 162.977 165.011 162.665 165.957 162.076L194.172 144.011C201.99 138.415 206.654 129.221 206.654 119.404V71.5469C206.654 69.3207 205.097 67.3171 202.734 66.5074C168.462 54.7907 154.722 54.4721 122.69 66.4469H122.685Z" fill="#F99746"/>
<path d="M202.73 66.5075C186.047 60.8018 174.23 57.8068 162.805 57.6094V162.977C163.92 162.982 165.014 162.669 165.958 162.076L194.173 144.011C201.991 138.415 206.655 129.221 206.655 119.404V71.5457C206.655 69.3208 205.098 67.3171 202.735 66.5075H202.73Z" fill="#F78248"/>
<path d="M165.672 109.228H159.254C156.487 109.225 153.834 108.126 151.877 106.171C149.921 104.217 148.82 101.566 148.816 98.8019V97.5551C148.819 94.7902 149.92 92.1394 151.876 90.1842C153.833 88.2289 156.486 87.1291 159.254 87.126H165.671C168.438 87.1291 171.091 88.2289 173.048 90.1842C175.005 92.1394 176.105 94.7902 176.108 97.5551V98.8019C176.105 101.566 175.004 104.216 173.048 106.171C171.091 108.126 168.439 109.225 165.672 109.228V109.228ZM159.254 91.2953C157.593 91.2974 156 91.9576 154.826 93.1311C153.652 94.3047 152.991 95.8957 152.989 97.5551V98.8019C152.992 100.461 153.652 102.052 154.827 103.225C156.001 104.398 157.593 105.057 159.254 105.059H165.671C167.331 105.058 168.924 104.398 170.098 103.225C171.273 102.052 171.933 100.461 171.935 98.8019V97.5551C171.933 95.8956 171.273 94.3044 170.099 93.1308C168.924 91.9571 167.332 91.297 165.671 91.2953H159.254Z" fill="#FFDAA4"/>
<path d="M144.923 100.628H179.597C180.902 100.628 182.153 101.146 183.076 102.067C183.998 102.989 184.516 104.239 184.516 105.542V122.241C184.516 124.357 184.099 126.452 183.288 128.408C182.478 130.363 181.29 132.139 179.792 133.636C178.294 135.132 176.516 136.319 174.559 137.129C172.602 137.939 170.505 138.356 168.387 138.356H158.251C153.698 138.356 149.331 136.548 146.111 133.331C142.891 130.115 141.082 125.751 141.082 121.202V104.464C141.082 103.96 141.181 103.461 141.374 102.996C141.567 102.53 141.85 102.107 142.207 101.751C142.564 101.395 142.987 101.112 143.453 100.92C143.919 100.727 144.419 100.628 144.923 100.628V100.628Z" fill="#FFDAA4"/>
<path d="M164.675 117.287C167.627 116.253 169.18 113.024 168.145 110.075C167.109 107.126 163.878 105.574 160.926 106.609C157.975 107.643 156.421 110.872 157.457 113.821C158.492 116.77 161.724 118.321 164.675 117.287Z" fill="#F78248"/>
<path d="M162.8 114.589C163.125 114.59 163.437 114.72 163.667 114.949C163.896 115.179 164.026 115.49 164.027 115.815V125.246C164.026 125.571 163.896 125.882 163.667 126.112C163.437 126.341 163.125 126.471 162.8 126.472V126.472C162.475 126.471 162.164 126.341 161.934 126.112C161.704 125.882 161.574 125.571 161.572 125.246V115.815C161.574 115.49 161.704 115.179 161.934 114.949C162.164 114.72 162.475 114.59 162.8 114.589V114.589Z" fill="#F78248"/>
<path d="M227.193 37.6461C226.572 37.8778 226.17 38.4149 226.17 39.0073V52.1406C226.164 53.4535 226.471 54.7489 227.065 55.92C227.659 57.091 228.524 58.1041 229.587 58.8757L237.31 63.8191C237.568 63.9804 237.867 64.0659 238.173 64.0659C238.478 64.0659 238.777 63.9804 239.036 63.8191L246.757 58.8757C247.82 58.1041 248.685 57.091 249.279 55.92C249.873 54.7489 250.18 53.4535 250.174 52.1406V39.0416C250.174 38.432 249.747 37.8844 249.1 37.6632C239.721 34.4536 235.96 34.372 227.193 37.6461V37.6461Z" fill="#AEC3FF"/>
<path opacity="0.4" d="M249.099 37.663C244.534 36.1004 241.3 35.2815 238.172 35.2275V64.0664C238.477 64.0673 238.777 63.9815 239.035 63.8189L246.756 58.8755C247.82 58.1039 248.684 57.0908 249.278 55.9198C249.872 54.7487 250.179 53.4533 250.173 52.1404V39.0414C250.173 38.4319 249.746 37.8842 249.099 37.663Z" fill="#5888DD"/>
<path d="M239.518 21.3154L242.55 21.7143L240.389 23.876L240.948 26.8802L238.222 25.4952L235.535 26.9539L236.011 23.9352L233.793 21.8328L236.812 21.3523L238.128 18.5942L239.518 21.3154Z" fill="#F99746"/>
<path d="M239.518 73.5112L242.55 73.9101L240.389 76.0718L240.948 79.076L238.222 77.691L235.535 79.1497L236.011 76.131L233.793 74.0286L236.812 73.5481L238.128 70.79L239.518 73.5112Z" fill="#F99746"/>
<path d="M217.193 34.1323L220.225 34.5312L218.064 36.6929L218.622 39.6971L215.897 38.3121L213.21 39.7708L213.686 36.7521L211.467 34.6497L214.487 34.1692L215.802 31.4111L217.193 34.1323Z" fill="#F99746"/>
<path d="M262.154 34.1323L265.186 34.5312L263.025 36.6929L263.583 39.6971L260.858 38.3121L258.171 39.7708L258.647 36.7521L256.428 34.6497L259.448 34.1692L260.763 31.4111L262.154 34.1323Z" fill="#F99746"/>
<path d="M217.193 60.8478L220.225 61.2467L218.064 63.4083L218.622 66.4126L215.897 65.0276L213.21 66.4863L213.686 63.4689L211.467 61.3652L214.487 60.886L215.802 58.1279L217.193 60.8478Z" fill="#F99746"/>
<path d="M262.154 60.8478L265.186 61.2467L263.025 63.4083L263.583 66.4126L260.858 65.0276L258.171 66.4863L258.647 63.4689L256.428 61.3652L259.448 60.886L260.763 58.1279L262.154 60.8478Z" fill="#F99746"/>
<path d="M226.871 24.7641L229.903 25.1617L227.742 27.3247L228.301 30.3289L225.575 28.944L222.888 30.4013L223.363 27.3839L221.145 25.2815L224.165 24.801L225.481 22.043L226.871 24.7641Z" fill="#F99746"/>
<path d="M252.826 24.7641L255.858 25.1617L253.697 27.3247L254.256 30.3289L251.53 28.944L248.843 30.4013L249.319 27.3839L247.1 25.2815L250.12 24.801L251.436 22.043L252.826 24.7641Z" fill="#F99746"/>
<path d="M226.871 70.1567L229.903 70.5556L227.742 72.7173L228.301 75.7215L225.575 74.3365L222.888 75.7952L223.363 72.7765L221.145 70.6741L224.165 70.1936L225.481 67.4355L226.871 70.1567Z" fill="#F99746"/>
<path d="M252.826 70.1567L255.858 70.5556L253.697 72.7173L254.256 75.7215L251.53 74.3365L248.843 75.7952L249.319 72.7765L247.1 70.6741L250.12 70.1936L251.436 67.4355L252.826 70.1567Z" fill="#F99746"/>
<path d="M213.621 48.186L216.652 48.5836L214.492 50.7466L215.049 53.7495L212.325 52.3645L209.636 53.8232L210.113 50.8058L207.895 48.7034L210.915 48.2229L212.23 45.4648L213.621 48.186Z" fill="#F99746"/>
<path d="M266.533 48.186L269.565 48.5836L267.404 50.7466L267.963 53.7495L265.237 52.3645L262.55 53.8232L263.026 50.8058L260.807 48.7034L263.827 48.2229L265.143 45.4648L266.533 48.186Z" fill="#F99746"/>
<path d="M50.7467 121.151C50.7865 121.191 50.8135 121.242 50.8243 121.297C50.8352 121.352 50.8294 121.41 50.8077 121.462C50.786 121.514 50.7494 121.558 50.7024 121.59C50.6554 121.621 50.6002 121.638 50.5437 121.638C50.4873 121.638 50.4321 121.621 50.3851 121.59C50.3381 121.558 50.3015 121.514 50.2798 121.462C50.2581 121.41 50.2523 121.352 50.2632 121.297C50.274 121.242 50.301 121.191 50.3408 121.151C50.3674 121.124 50.399 121.103 50.4338 121.088C50.4687 121.074 50.506 121.066 50.5437 121.066C50.5815 121.066 50.6188 121.074 50.6537 121.088C50.6885 121.103 50.7201 121.124 50.7467 121.151Z" fill="#D5E5FB"/>
<path d="M49.815 122.087C49.8548 122.127 49.8818 122.178 49.8927 122.233C49.9036 122.288 49.8978 122.346 49.8761 122.398C49.8544 122.45 49.8177 122.494 49.7707 122.526C49.7238 122.557 49.6686 122.574 49.6121 122.574C49.5556 122.574 49.5004 122.557 49.4535 122.526C49.4065 122.494 49.3698 122.45 49.3481 122.398C49.3264 122.346 49.3207 122.288 49.3315 122.233C49.3424 122.178 49.3694 122.127 49.4092 122.087C49.463 122.033 49.536 122.003 49.6121 122.003C49.6882 122.003 49.7612 122.033 49.815 122.087V122.087Z" fill="#D5E5FB"/>
<path d="M48.4634 123.046C48.5035 123.007 48.5544 122.98 48.6098 122.969C48.6652 122.958 48.7226 122.964 48.7747 122.985C48.8269 123.007 48.8714 123.044 48.9027 123.091C48.9341 123.137 48.9508 123.193 48.9508 123.249C48.9508 123.305 48.9341 123.361 48.9027 123.408C48.8714 123.454 48.8269 123.491 48.7747 123.513C48.7226 123.534 48.6652 123.54 48.6098 123.529C48.5544 123.519 48.5035 123.492 48.4634 123.452C48.4366 123.425 48.4154 123.394 48.4009 123.359C48.3864 123.324 48.3789 123.287 48.3789 123.249C48.3789 123.211 48.3864 123.174 48.4009 123.139C48.4154 123.104 48.4366 123.073 48.4634 123.046Z" fill="#D5E5FB"/>
<path d="M47.9244 123.998C47.9642 124.038 47.9912 124.089 48.0021 124.144C48.0129 124.2 48.0072 124.257 47.9854 124.309C47.9637 124.361 47.9271 124.406 47.8801 124.437C47.8331 124.468 47.7779 124.485 47.7215 124.485C47.665 124.485 47.6098 124.468 47.5628 124.437C47.5159 124.406 47.4792 124.361 47.4575 124.309C47.4358 124.257 47.43 124.2 47.4409 124.144C47.4518 124.089 47.4788 124.038 47.5186 123.998C47.5451 123.971 47.5768 123.95 47.6116 123.936C47.6464 123.921 47.6838 123.914 47.7215 123.914C47.7592 123.914 47.7966 123.921 47.8314 123.936C47.8662 123.95 47.8978 123.971 47.9244 123.998V123.998Z" fill="#D5E5FB"/>
<path d="M46.9889 124.939C47.0286 124.979 47.0557 125.03 47.0665 125.086C47.0774 125.141 47.0716 125.198 47.0499 125.25C47.0282 125.303 46.9915 125.347 46.9446 125.378C46.8976 125.41 46.8424 125.426 46.7859 125.426C46.7295 125.426 46.6743 125.41 46.6273 125.378C46.5803 125.347 46.5437 125.303 46.522 125.25C46.5003 125.198 46.4945 125.141 46.5053 125.086C46.5162 125.03 46.5432 124.979 46.583 124.939C46.6096 124.913 46.6412 124.891 46.676 124.877C46.7109 124.862 46.7482 124.855 46.7859 124.855C46.8237 124.855 46.861 124.862 46.8958 124.877C46.9307 124.891 46.9623 124.913 46.9889 124.939V124.939Z" fill="#D5E5FB"/>
<path d="M45.6392 125.894C45.6792 125.854 45.7302 125.827 45.7856 125.816C45.841 125.806 45.8984 125.811 45.9505 125.833C46.0027 125.855 46.0472 125.891 46.0785 125.938C46.1098 125.985 46.1265 126.04 46.1265 126.097C46.1265 126.153 46.1098 126.208 46.0785 126.255C46.0472 126.302 46.0027 126.339 45.9505 126.36C45.8984 126.382 45.841 126.388 45.7856 126.377C45.7302 126.366 45.6792 126.339 45.6392 126.299C45.6124 126.273 45.5912 126.241 45.5767 126.207C45.5622 126.172 45.5547 126.134 45.5547 126.097C45.5547 126.059 45.5622 126.022 45.5767 125.987C45.5912 125.952 45.6124 125.921 45.6392 125.894V125.894Z" fill="#D5E5FB"/>
<path d="M45.1366 126.807C45.1766 126.847 45.2038 126.898 45.2148 126.954C45.2258 127.009 45.2202 127.066 45.1985 127.119C45.1769 127.171 45.1402 127.215 45.0932 127.247C45.0462 127.278 44.9909 127.295 44.9344 127.295C44.8778 127.295 44.8226 127.278 44.7755 127.247C44.7285 127.215 44.6919 127.171 44.6702 127.119C44.6486 127.066 44.6429 127.009 44.6539 126.954C44.6649 126.898 44.6921 126.847 44.7321 126.807C44.7859 126.754 44.8586 126.724 44.9344 126.724C45.0101 126.724 45.0828 126.754 45.1366 126.807Z" fill="#D5E5FB"/>
<path d="M44.203 127.747C44.243 127.787 44.2702 127.838 44.2812 127.894C44.2922 127.949 44.2866 128.006 44.2649 128.059C44.2433 128.111 44.2066 128.155 44.1596 128.187C44.1126 128.218 44.0573 128.235 44.0008 128.235C43.9442 128.235 43.889 128.218 43.8419 128.187C43.7949 128.155 43.7583 128.111 43.7366 128.059C43.715 128.006 43.7093 127.949 43.7203 127.894C43.7313 127.838 43.7585 127.787 43.7985 127.747C43.8251 127.721 43.8566 127.7 43.8913 127.685C43.926 127.671 43.9632 127.664 44.0008 127.664C44.0383 127.664 44.0755 127.671 44.1103 127.685C44.145 127.7 44.1765 127.721 44.203 127.747V127.747Z" fill="#D5E5FB"/>
<path d="M42.8529 128.703C42.8931 128.663 42.9443 128.636 43 128.625C43.0557 128.614 43.1135 128.619 43.166 128.641C43.2186 128.663 43.2635 128.699 43.295 128.747C43.3266 128.794 43.3435 128.849 43.3435 128.906C43.3435 128.963 43.3266 129.018 43.295 129.066C43.2635 129.113 43.2186 129.15 43.166 129.171C43.1135 129.193 43.0557 129.199 43 129.188C42.9443 129.176 42.8931 129.149 42.8529 129.109C42.7995 129.055 42.7695 128.982 42.7695 128.906C42.7695 128.83 42.7995 128.757 42.8529 128.703Z" fill="#D5E5FB"/>
<path d="M42.3124 129.655C42.3524 129.695 42.3796 129.746 42.3906 129.801C42.4016 129.857 42.3959 129.914 42.3743 129.966C42.3527 130.018 42.316 130.063 42.269 130.094C42.222 130.126 42.1667 130.143 42.1102 130.143C42.0536 130.143 41.9983 130.126 41.9513 130.094C41.9043 130.063 41.8677 130.018 41.846 129.966C41.8244 129.914 41.8187 129.857 41.8297 129.801C41.8407 129.746 41.8679 129.695 41.9079 129.655C41.9617 129.602 42.0344 129.572 42.1102 129.572C42.1859 129.572 42.2586 129.602 42.3124 129.655V129.655Z" fill="#D5E5FB"/>
<path d="M41.3808 130.596C41.4207 130.636 41.448 130.687 41.459 130.743C41.47 130.798 41.4643 130.856 41.4427 130.908C41.421 130.96 41.3844 131.005 41.3373 131.036C41.2903 131.067 41.2351 131.084 41.1785 131.084C41.122 131.084 41.0667 131.067 41.0197 131.036C40.9727 131.005 40.936 130.96 40.9144 130.908C40.8927 130.856 40.887 130.798 40.8981 130.743C40.9091 130.687 40.9363 130.636 40.9762 130.596C41.0028 130.57 41.0343 130.549 41.069 130.534C41.1037 130.52 41.1409 130.513 41.1785 130.513C41.2161 130.513 41.2533 130.52 41.288 130.534C41.3227 130.549 41.3542 130.57 41.3808 130.596V130.596Z" fill="#D5E5FB"/>
<path d="M40.0286 131.552C40.0686 131.512 40.1195 131.485 40.175 131.474C40.2305 131.463 40.2879 131.469 40.3402 131.491C40.3924 131.512 40.4371 131.549 40.4685 131.596C40.4999 131.643 40.5166 131.698 40.5166 131.754C40.5166 131.811 40.4999 131.866 40.4685 131.913C40.4371 131.96 40.3924 131.997 40.3402 132.018C40.2879 132.04 40.2305 132.046 40.175 132.035C40.1195 132.024 40.0686 131.996 40.0286 131.957C39.9752 131.903 39.9453 131.83 39.9453 131.754C39.9453 131.679 39.9752 131.606 40.0286 131.552V131.552Z" fill="#D5E5FB"/>
<path d="M63.9008 115.203C64.4529 111.789 62.131 108.575 58.7147 108.023C55.2983 107.472 52.0812 109.792 51.529 113.205C50.9769 116.618 53.2988 119.832 56.7152 120.384C60.1315 120.936 63.3487 118.616 63.9008 115.203Z" fill="#C6DCF7"/>
<path d="M55.4746 112.321C55.4736 111.924 55.5903 111.537 55.81 111.206C56.0298 110.876 56.3426 110.619 56.709 110.466C57.0753 110.314 57.4787 110.273 57.8681 110.35C58.2575 110.427 58.6153 110.617 58.8963 110.897C59.1773 111.177 59.3688 111.534 59.4467 111.923C59.5245 112.312 59.4851 112.715 59.3334 113.081C59.1818 113.448 58.9248 113.761 58.5948 113.981C58.2649 114.202 57.877 114.319 57.4801 114.319C56.9491 114.319 56.4398 114.109 56.0639 113.734C55.6879 113.36 55.476 112.851 55.4746 112.321V112.321Z" fill="#EBF3FA"/>
<path d="M57.479 114.319C57.0179 114.32 56.5615 114.411 56.1357 114.587C55.71 114.764 55.3232 115.023 54.9976 115.349C54.672 115.675 54.4139 116.062 54.238 116.488C54.0621 116.914 53.972 117.37 53.9727 117.83H60.9905C60.9912 117.369 60.9009 116.913 60.7247 116.487C60.5485 116.06 60.2899 115.673 59.9637 115.347C59.6375 115.021 59.2502 114.762 58.8238 114.586C58.3974 114.41 57.9404 114.319 57.479 114.319Z" fill="#EBF3FA"/>
<path d="M34.8575 134.089L34.6269 133.516C34.5051 133.216 34.2965 132.959 34.0277 132.778C33.759 132.597 33.4423 132.5 33.1182 132.5H28.8477V146.769H46.5162V135.208H36.5178C36.1609 135.208 35.8123 135.101 35.5164 134.902C35.2206 134.703 34.9912 134.42 34.8575 134.089V134.089Z" fill="#C6DCF7"/>
<path d="M40.325 139.014H39.7347C39.7522 138.916 39.7611 138.818 39.761 138.719V138.517C39.7603 138.07 39.5823 137.642 39.2659 137.326C38.9495 137.01 38.5205 136.832 38.0731 136.831H37.0348C36.5874 136.832 36.1587 137.01 35.8425 137.326C35.5263 137.642 35.3485 138.071 35.3482 138.517V138.719C35.3477 138.818 35.3561 138.916 35.3732 139.014H34.7144C34.5496 139.014 34.3918 139.08 34.2754 139.196C34.1591 139.313 34.0937 139.471 34.0938 139.635V142.342C34.0938 143.078 34.3863 143.783 34.9069 144.303C35.4276 144.823 36.1337 145.116 36.8701 145.116H38.5092C38.8519 145.116 39.1912 145.049 39.5079 144.918C39.8245 144.787 40.1122 144.595 40.3545 144.353C40.5968 144.111 40.7889 143.823 40.92 143.507C41.051 143.19 41.1184 142.851 41.1182 142.509V139.809C41.1189 139.705 41.0989 139.601 41.0593 139.504C41.0197 139.408 40.9614 139.32 40.8876 139.246C40.8138 139.172 40.7261 139.114 40.6296 139.074C40.533 139.034 40.4295 139.013 40.325 139.014V139.014ZM37.8069 141.739V142.996C37.8013 143.045 37.7781 143.089 37.7416 143.122C37.7052 143.154 37.6581 143.172 37.6093 143.172C37.5605 143.172 37.5134 143.154 37.4769 143.122C37.4405 143.089 37.4172 143.045 37.4116 142.996V141.739C37.1895 141.69 36.9932 141.561 36.8604 141.377C36.7277 141.192 36.6678 140.965 36.6923 140.739C36.7168 140.514 36.824 140.305 36.9932 140.153C37.1625 140.001 37.3819 139.917 37.6093 139.917C37.8367 139.917 38.0561 140.001 38.2253 140.153C38.3946 140.305 38.5018 140.514 38.5263 140.739C38.5508 140.965 38.4909 141.192 38.3581 141.377C38.2254 141.561 38.0291 141.69 37.8069 141.739V141.739ZM39.0864 138.719C39.0864 138.819 39.0713 138.918 39.0416 139.014H36.0663C36.0366 138.918 36.0215 138.819 36.0215 138.719V138.517C36.0218 138.249 36.1287 137.992 36.3187 137.802C36.5086 137.612 36.7661 137.505 37.0348 137.505H38.0731C38.3417 137.505 38.5993 137.612 38.7892 137.802C38.9792 137.992 39.086 138.249 39.0864 138.517V138.719Z" fill="#EBF3FA"/>
<path d="M86.6305 132.981C86.6305 132.981 86.9639 129.347 82.9015 129.347C82.9015 129.347 84.1322 129.68 84.7687 130.348C84.7687 130.348 82.1781 128.828 79.3583 131.164C76.5385 133.499 78.2897 139.356 77.4332 140.467C76.5767 141.579 73.2365 141.802 73.6436 145.398C74.0508 148.993 84.2416 153.497 83.588 156.472C83.588 156.472 87.5806 150.607 84.7252 147.931C84.7252 147.931 86.1166 149.247 86.259 150.798C86.259 150.798 86.6371 147.758 84.7002 146.785C82.9872 145.926 81.5839 142.779 81.7328 142.217C81.8817 141.655 86.6305 132.981 86.6305 132.981Z" fill="#2C3A64"/>
<path d="M82.6316 150.421C82.6316 150.421 85.6622 162.966 88.6468 165.474C90.4375 166.981 95.7621 170.441 95.7621 170.441L93.5472 171.244C93.5472 171.244 86.1616 168.752 84.508 166.809C82.8543 164.866 78.3281 155.136 78.3281 155.136L82.6316 150.421Z" fill="#FFB27D"/>
<path d="M100.155 175.025L99.4422 173.261C99.0686 172.336 98.4268 171.544 97.5991 170.986C96.7715 170.428 95.7958 170.13 94.7975 170.13H81.6445V214.082H136.064V178.472H105.268C104.169 178.471 103.095 178.143 102.184 177.529C101.273 176.915 100.567 176.043 100.155 175.025V175.025Z" fill="#F99746"/>
<path d="M54.1055 172.46C54.1318 172.508 54.1595 172.558 54.1885 172.608C54.8473 173.761 56.3758 176.588 58.0545 179.68C58.8451 181.147 59.6792 182.674 60.4671 184.111C61.8257 186.592 63.0616 188.801 63.7824 189.968C64.5031 191.136 65.0566 191.989 65.274 192.322C65.3342 192.427 65.3591 192.547 65.3451 192.667C65.2712 193.703 65.287 194.743 65.3926 195.777C66.4045 205.839 73.1958 211.23 73.1958 211.23L75.2144 211.528C75.2144 211.528 72.3577 200.952 71.5158 194.974C71.3735 193.96 71.3115 193.138 71.3616 192.604C71.5105 191.047 71.2298 188.76 70.7028 186.133C69.7699 181.468 68.0674 175.741 66.5745 171.157C66.4796 170.864 63.6401 160.602 63.6401 160.602C61.2577 162.683 52.5651 163.541 52.5651 163.541C52.5651 163.541 51.1025 167.122 54.1055 172.46Z" fill="#2F539B"/>
<path d="M79.4556 214.082H71.0291C71.0291 214.082 70.8262 212.799 71.2663 211.825C71.6893 210.891 72.2901 210.861 71.3441 209.397C71.879 209.949 73.5999 210.176 74.8187 210.012C74.9676 210.254 75.7806 211.876 76.28 212.234C76.8308 212.629 79.2856 212.488 79.4556 214.082Z" fill="#233862"/>
<path d="M54.1055 172.461C54.1318 172.508 54.1595 172.558 54.1885 172.608C54.8473 173.761 58.4445 180.39 60.118 183.482C58.1744 175.488 59.5263 167.496 59.5263 167.496L54.1055 172.461Z" fill="#233862"/>
<path d="M85.4808 132.47C85.5361 132.247 80.6687 134.667 80.4223 134.941C78.1387 137.471 78.7897 140.773 80.0955 140.804C80.9335 140.824 80.7714 142.217 80.7714 142.217L90.1045 138.268C90.1045 138.268 88.9818 131.725 85.4808 132.47Z" fill="#2C3A64"/>
<path d="M82.3445 148.538C82.3445 148.538 83.765 151.373 83.5871 153.672C83.5871 153.672 81.8741 156.373 77.4336 157.057C77.4336 157.058 81.2482 148.536 82.3445 148.538Z" fill="#739AF0"/>
<path d="M60.6753 164.169L60.7043 162.589C57.5643 162.984 49.8771 158.841 49.8771 158.841C49.8771 158.841 46.5921 161.024 46.1428 167.258C45.9228 170.301 44.5339 183.17 44.3811 187.013C44.3244 188.406 44.306 189.399 44.2994 189.796C44.2929 189.915 44.2465 190.029 44.1676 190.12C43.5261 190.938 42.9569 191.81 42.4665 192.726C37.6742 201.632 40.1804 213.736 40.1804 213.736L41.2938 213.453C41.2938 213.453 45.3443 200.907 47.9928 195.479C48.4421 194.557 48.8506 193.843 49.1919 193.428C50.188 192.221 51.2369 190.168 52.2726 187.7C54.2267 183.04 60.6753 164.169 60.6753 164.169Z" fill="#2F539B"/>
<path d="M46.8814 214.082H38.4549C38.4549 214.082 38.252 212.799 38.6921 211.825C39.1137 210.891 39.7752 210.466 39.6145 209.336C40.1494 209.887 41.0217 210.504 42.2406 210.341C42.3895 210.582 43.2038 211.876 43.7018 212.234C44.2553 212.629 46.7114 212.488 46.8814 214.082Z" fill="#233862"/>
<path d="M76.8647 158.867C75.7329 159.059 77.0492 159.958 75.4931 160.126C73.2767 160.369 70.9893 160.533 69.7902 161.011C69.354 161.186 69.0615 161.406 68.9706 161.669C68.4435 163.229 65.1612 165.911 65.1612 165.911C50.4877 165.244 49.543 158.71 49.543 158.71C59.0657 149.47 67.1667 144.433 73.8631 143.809C75.4931 143.657 77.6843 143.861 78.72 144.319C81.0615 145.361 82.3449 148.532 82.3449 148.532C82.3449 148.532 81.1656 158.133 76.8647 158.867Z" fill="#739AF0"/>
<path d="M75.4924 160.133C73.2761 160.375 70.9887 160.54 69.7896 161.018C69.3007 153.706 72.7543 148.207 72.7543 148.207C72.7543 148.207 75.0062 157.361 75.4924 160.133Z" fill="#5A7DE0"/>
<path d="M77.4054 146.968C77.4054 146.968 71.833 146.664 70.8421 150.159C69.8513 153.655 72.7 167.605 73.3141 169.046C74.4315 171.667 80.0645 179.475 80.0645 179.475L81.8697 178.54C81.8697 178.54 78.2435 167.11 77.4344 165.979C76.1629 164.198 79.0723 148.483 77.4054 146.968Z" fill="#FFB27D"/>
<path d="M81.8699 178.535C82.1711 178.802 82.4525 179.09 82.7119 179.397C83.0861 179.855 82.7567 180.02 83.8332 182.092C83.8332 182.092 83.7779 182.379 83.5433 182.326C83.3088 182.274 82.4984 181.471 82.0807 181.529C82.0807 181.529 81.7829 181.773 81.7513 182.582C81.721 183.341 81.7184 185.021 81.5853 185.337C81.4522 185.653 80.4864 184.021 80.0107 182.836C79.593 181.797 80.0001 178.294 80.0001 178.294L81.8699 178.535Z" fill="#FFB27D"/>
<path d="M69.7422 154.827C69.7567 154.909 75.0128 155.794 78.307 154.126C78.307 154.126 81.0543 145.526 77.129 145.937C73.2037 146.348 70.8767 147.585 70.7779 149.463C70.679 151.34 69.7422 154.827 69.7422 154.827Z" fill="#739AF0"/>
<path d="M78.5942 144.929C78.6509 145.624 78.7405 146.44 79.6484 147.378C80.3467 148.097 81.3613 148.657 82.065 147.949C82.4788 147.553 82.847 147.111 83.1626 146.633C83.7753 145.579 84.5053 144.505 84.5053 144.505L81.3508 141.741L81.1624 141.575C80.588 142.627 79.7853 143.537 78.813 144.239C78.6008 144.396 78.5718 144.662 78.5942 144.929Z" fill="#FFB27D"/>
<path d="M84.508 144.5C84.508 144.5 83.7793 145.571 83.1666 146.626C81.2059 145.417 81.2046 142.994 81.3548 141.738L84.508 144.5Z" fill="#ED985F"/>
<path d="M84.5961 145.882C84.5961 145.882 79.8354 143.236 81.5312 140.3C83.227 137.364 83.7528 135.046 86.8638 136.614C89.9748 138.182 89.9129 139.642 89.5848 140.754C89.2567 141.867 85.8769 146.495 84.5961 145.882Z" fill="#FFB27D"/>
<path d="M90.3884 139.039C90.1697 137.736 89.5069 137.611 89.0444 137.697C87.288 134.793 84.4154 135.927 84.4154 135.927C83.4642 137.089 82.138 137.885 80.6641 138.178C80.6641 138.178 81.2162 139.205 83.4918 139.841C84.1875 140.034 84.9768 139.917 85.7318 139.662C84.7157 140.212 83.6291 140.621 82.5022 140.878C85.5012 141.152 88.3539 138.412 88.6504 138.114C88.7822 138.537 89.0312 139.43 88.8863 140.076C88.6886 140.958 87.9046 142.558 88.3829 142.765C88.3882 142.771 90.7152 140.994 90.3884 139.039Z" fill="#2C3A64"/>
<path d="M96.6326 170.446C96.6326 170.446 95.3044 171.441 96.3045 172.092C97.3047 172.742 99.0927 172.918 99.1006 172.487C99.1257 171.06 98.4102 170.039 96.6326 170.446Z" fill="#FFB27D"/>
<path d="M116.694 190.14H114.981C115.032 189.857 115.057 189.57 115.058 189.283V188.701C115.057 187.402 114.54 186.157 113.62 185.238C112.701 184.319 111.455 183.803 110.155 183.801H107.141C105.84 183.801 104.592 184.317 103.672 185.236C102.751 186.154 102.233 187.401 102.232 188.701V189.287C102.232 189.574 102.257 189.861 102.308 190.144H100.402C99.9231 190.144 99.4643 190.333 99.126 190.671C98.7877 191.009 98.5977 191.468 98.5977 191.946V199.808C98.5977 201.945 99.4474 203.995 100.96 205.506C102.473 207.017 104.524 207.866 106.663 207.866H111.424C112.419 207.866 113.404 207.67 114.324 207.29C115.243 206.909 116.078 206.352 116.782 205.648C117.485 204.945 118.043 204.111 118.424 203.192C118.805 202.274 119.001 201.289 119 200.295V192.453C119.001 192.15 118.942 191.849 118.826 191.569C118.711 191.289 118.541 191.034 118.327 190.819C118.113 190.604 117.859 190.433 117.578 190.317C117.298 190.2 116.998 190.14 116.694 190.14V190.14ZM109.38 198.052V201.704C109.373 201.852 109.309 201.991 109.202 202.093C109.095 202.196 108.952 202.253 108.804 202.253C108.655 202.253 108.513 202.196 108.405 202.093C108.298 201.991 108.234 201.852 108.227 201.704V198.048C107.587 197.906 107.022 197.533 106.641 197.001C106.259 196.468 106.088 195.814 106.159 195.163C106.231 194.512 106.54 193.911 107.028 193.474C107.516 193.037 108.148 192.795 108.804 192.795C109.459 192.795 110.091 193.037 110.579 193.474C111.067 193.911 111.377 194.512 111.448 195.163C111.52 195.814 111.348 196.468 110.966 197.001C110.585 197.533 110.02 197.906 109.38 198.048V198.052ZM113.095 189.283C113.093 189.573 113.049 189.862 112.963 190.14H104.32C104.234 189.862 104.19 189.573 104.189 189.283V188.701C104.189 187.921 104.5 187.173 105.051 186.622C105.603 186.07 106.352 185.76 107.132 185.76H110.146C110.926 185.76 111.674 186.071 112.226 186.622C112.778 187.173 113.088 187.921 113.088 188.701L113.095 189.283Z" fill="#FFDAA4"/>
<path d="M318.092 214.16H252.027C242.816 203.585 243.199 190.709 255.765 179.018C258.021 176.919 261.958 174.66 265.139 173.903C271 172.506 277.646 172.192 277.699 172.156C277.717 172.156 285.087 171.124 287.186 168.57C293.715 160.636 295.393 159.501 295.393 159.501C302.048 158.202 307.725 157.82 311.933 160.171C315.832 162.352 318.471 166.885 319.46 175.204C319.647 176.784 319.776 178.487 319.842 180.338C320.083 187.093 321.41 193.108 322.198 198.188C323.344 205.567 324.151 211.172 318.092 214.16Z" fill="#F99746"/>
<path d="M308.639 168.609C304.601 170.807 304.159 178.047 297.834 179.916C291.51 181.785 280.785 181.616 274.699 188.21C268.829 194.574 262.352 178.384 265.14 173.831C271.001 172.441 277.648 172.12 277.699 172.092C277.719 172.084 286.715 172.049 288.815 169.507C295.345 161.608 295.397 159.493 295.397 159.493C302.052 158.201 307.729 157.82 311.937 160.161C316.574 164.95 312.677 166.411 308.639 168.609Z" fill="#ED7D2B"/>
<path d="M322.2 198.013C312.932 186.455 293.893 202.213 288.965 201.768C284.435 201.359 297.793 185.561 314.372 183.206C321.071 182.255 319.466 175.338 319.464 175.125C319.651 176.692 319.779 178.394 319.846 180.241C320.087 186.968 321.413 192.949 322.2 198.013Z" fill="#ED7D2B"/>
<path d="M270.511 204.306C269.863 205.556 269.72 207.852 269.524 208.63C269.328 209.408 265.935 212.053 265.643 211.921C264.9 211.585 265.611 210.292 266.064 209.347C266.082 209.309 266.099 209.271 266.116 209.234C266.564 208.281 266.18 206.155 266.412 205.055C266.644 203.956 265.529 201.002 265.529 201.002L267.405 198.632C267.405 198.632 268.723 201.134 269.668 201.596C269.832 201.675 269.985 201.773 270.126 201.888C270.767 202.419 271.043 203.28 270.511 204.306Z" fill="#FFB27D"/>
<path d="M295.657 141.328C293.848 141.496 292.151 142.278 290.85 143.545C290.021 144.335 289.102 145.422 288.534 146.718C287.295 149.54 287.722 152.825 287.015 154.626C286.307 156.427 285.883 156.742 287.015 157.558C288.146 158.374 288.332 159.151 286.983 160.016C285.634 160.881 284.631 163.57 288.406 163.81C292.181 164.049 299.498 162.675 300.439 161.977C301.38 161.279 303.949 160.243 305.182 158.378C307.645 154.647 305.683 152.142 303.782 151.51C300.882 150.55 301.946 140.802 295.657 141.328Z" fill="#163560"/>
<path d="M290.701 156.954C290.701 156.954 286.959 165.395 286.179 166.13C285.399 166.864 281.747 168.298 282.075 169.527C282.404 170.757 285.152 171.946 286.301 171.659C287.45 171.372 290.362 166.413 290.362 166.413L290.701 156.954Z" fill="#739AF0"/>
<path d="M282.379 170.27C282.379 170.27 282.582 168.822 286.129 168.349C288.096 168.086 291.39 162.605 291.39 162.605L288.096 171.253L284.906 172.632L282.379 170.27Z" fill="#5A7DE0"/>
<path d="M283.821 172.995C283.821 172.995 265.349 171.702 262.819 174.632C260.811 176.956 264.468 202.345 264.468 202.345C264.468 202.345 269.494 202.491 269.89 201.16C269.89 201.16 268.952 188.834 269.737 186.702C270.522 184.571 270.027 181.621 270.027 181.621C270.027 181.621 279.862 183.091 282.982 182.346C286.102 181.601 283.821 172.995 283.821 172.995Z" fill="#233862"/>
<path d="M263.914 211.619C262.613 212.155 261.015 213.817 260.369 214.287C259.724 214.757 255.415 214.591 255.277 214.301C254.912 213.537 256.416 212.994 257.373 212.554L257.415 212.534C258.361 212.058 259.419 210.233 260.293 209.554C261.167 208.875 262.237 205.887 262.237 205.887L265.199 205.287C265.199 205.287 264.589 208.052 265.014 209.009C265.054 209.098 265.089 209.189 265.117 209.283C265.392 210.169 265.093 211.134 263.914 211.619Z" fill="#FFB27D"/>
<path d="M291.944 173.896C291.944 173.896 271.784 175.943 270.018 177.998C268.252 180.053 261.283 206.779 261.283 206.779C261.283 206.779 263.34 207.924 265.21 206.854C265.21 206.854 270.542 197.787 272.901 194.941C275.26 192.095 276.1 184.662 277.357 183.861C277.695 183.647 289.552 184.979 293.902 181.644C298.252 178.31 291.944 173.896 291.944 173.896Z" fill="#2A4E96"/>
<path d="M300.727 173.932C300.232 174.892 299.67 175.816 299.045 176.697C297.536 178.803 295.79 180.31 293.897 180.702C291.148 181.272 281.93 175.927 282.396 172.978C282.65 171.373 287.772 168.489 288.598 167.317C289.424 166.146 289.916 160.316 290.363 157.935C290.691 156.161 291.791 155.976 293.165 155.506C299.006 153.506 303.166 155.622 303.166 155.622C305.839 157.128 304.352 167.005 300.727 173.932Z" fill="#739AF0"/>
<path d="M300.447 149.55C300.652 148.573 300.798 147.585 300.886 146.59C300.976 145.499 299.317 141.942 296.741 142.089C295.946 142.277 295.203 142.64 294.567 143.153C293.752 143.821 292.618 145.204 294.347 148.551L294.822 149.689L300.447 149.55Z" fill="#163560"/>
<path d="M295.225 155.299C295.309 155.908 295.852 156.257 297.07 156.179C298.287 156.102 300.033 155.358 299.888 154.793C299.756 154.298 299.216 153.136 298.994 150.186L298.772 150.249L295.027 151.302C295.027 151.302 295.208 152.487 295.299 153.618C295.369 154.558 295.183 154.989 295.225 155.299Z" fill="#FFB27D"/>
<path d="M295.021 151.297C295.021 151.297 295.202 152.481 295.293 153.612C297.417 153.385 298.389 151.357 298.766 150.246L295.021 151.297Z" fill="#F4A269"/>
<path d="M294.941 153.024C294.941 153.024 299.84 151.793 299.025 148.756C298.211 145.719 298.295 143.516 295.133 144.175C291.971 144.833 291.677 146.149 291.707 147.231C291.737 148.314 293.645 153.267 294.941 153.024Z" fill="#FFB27D"/>
<path d="M292.893 144.7C292.893 144.7 294.537 147.83 297.636 148.169C299.452 148.366 299.95 149.561 299.95 149.561C299.95 149.561 299.406 146.139 298.493 144.053C298.497 144.053 293.443 142.734 292.893 144.7Z" fill="#163560"/>
<path d="M293.453 145.114C293.453 145.114 292.38 146.207 292.05 146.979C291.559 148.12 292.515 150.533 292.91 151.045C292.91 151.045 290.63 147.18 291.392 145.508C292.206 143.733 293.453 145.114 293.453 145.114Z" fill="#163560"/>
<path d="M278.512 173.298C278.512 173.298 277.536 174.33 277.417 174.385C276.773 174.687 275.957 174.517 275.564 174.61C275.172 174.704 275.238 174.464 275.527 174.265C275.817 174.067 276.533 174.144 276.242 174.072C275.95 173.999 274.372 173.706 273.778 173.865C272.838 174.117 272.096 173.82 272.038 173.724C271.98 173.628 274.183 172.551 274.815 172.588C275.446 172.625 277.255 172.538 277.255 172.538L278.512 173.298Z" fill="#FFB27D"/>
<path d="M304.822 157.529C304.822 157.529 305.409 171.878 303.719 173.895C302.082 175.846 295.086 174.523 292.062 173.868C291.942 173.85 291.82 173.857 291.704 173.891C291.587 173.924 291.479 173.982 291.387 174.061C291.152 174.273 291.049 172.625 291.049 172.625C291.049 172.625 300.175 171.29 300.788 171.118C301.669 170.869 301.051 160.981 301.051 160.981L304.822 157.529Z" fill="#FFB27D"/>
<path d="M291.762 173.674C291.762 173.674 290.944 174.501 290.633 174.924C290.322 175.346 288.148 176.108 288.099 175.887C288.051 175.666 289.072 174.966 289.164 174.714C289.256 174.463 290.371 173.166 291.05 173.019C291.728 172.871 291.762 173.674 291.762 173.674Z" fill="#FFB27D"/>
<path d="M291.049 172.625C291.049 172.625 287.697 173.399 287.127 173.632C286.558 173.865 285.351 175.57 285.831 175.827C286.133 175.987 287.456 175.29 288.128 175.145C288.8 175 290.702 175.329 291.573 173.611C291.671 173.418 291.049 172.625 291.049 172.625Z" fill="#FFB27D"/>
<path d="M263.914 211.619C262.613 212.155 261.015 213.817 260.369 214.287C259.724 214.757 255.415 214.591 255.277 214.301C254.912 213.538 256.416 212.994 257.373 212.554L257.415 212.534L257.547 212.49C257.547 212.49 259.404 213.148 260.947 212.49C262.151 211.974 263.936 210.059 265.114 209.283C265.392 210.169 265.093 211.134 263.914 211.619Z" fill="#2A4E96"/>
<path d="M270.511 204.306C269.863 205.556 269.72 207.852 269.524 208.63C269.328 209.408 265.935 212.052 265.643 211.921C264.9 211.585 265.611 210.292 266.064 209.347C266.438 209.312 266.795 209.179 267.101 208.961C267.949 208.397 269.39 206.264 269.517 205.005C269.623 203.978 269.557 202.504 270.126 201.889C270.767 202.418 271.043 203.279 270.511 204.306Z" fill="#193B72"/>
<path d="M286.727 176.26H272.124L267.73 165.345H282.312L286.727 176.26Z" fill="#EF8035"/>
<path d="M271.953 175.833H291.237V176.26H272.124L271.953 175.833Z" fill="#ED7D2B"/>
<path d="M275.809 170.797C275.7 170.414 275.921 170.102 276.306 170.102C276.508 170.113 276.702 170.186 276.862 170.31C277.021 170.434 277.14 170.604 277.201 170.797C277.31 171.181 277.089 171.492 276.704 171.492C276.502 171.48 276.308 171.408 276.148 171.284C275.988 171.159 275.87 170.99 275.809 170.797V170.797Z" fill="white"/>
<path d="M300.727 173.932C300.232 174.892 299.669 175.816 299.045 176.697C294.364 176.522 293.236 174.633 293.236 174.633L300.727 173.932Z" fill="#5A7DE0"/>
<path d="M293.455 172.146C293.455 172.146 298.798 170.921 299.462 169.776C300.126 168.631 301.055 160.986 301.055 160.986L303.285 163.841L302.834 170.555C302.834 170.555 300.29 173.069 300.126 172.978C299.963 172.887 293.455 172.146 293.455 172.146Z" fill="#5A7DE0"/>
<path d="M303.167 155.625C303.167 155.625 304.433 156.261 304.922 157.154C305.844 158.85 306.842 171.991 304.202 174.162C301.563 176.332 293.901 175.899 293.002 174.362C293.002 174.362 292.94 172.921 293.458 172.146C293.458 172.146 300.355 171.236 300.663 170.802C300.972 170.367 300.439 161.06 300.765 160.213C301.09 159.367 303.167 155.625 303.167 155.625Z" fill="#739AF0"/>
<path d="M304.314 174.017C304.314 174.017 302.323 175.881 293.992 176.148C287.477 176.357 280.616 178.981 277.41 183.489C276.517 184.745 275.899 186.815 275.663 188.21C275.227 190.771 291.475 194.754 291.738 194.383C292.002 194.011 302.439 185.05 302.439 185.05L304.314 174.017Z" fill="#F99746"/>
<path d="M228.982 122.624C228.982 122.624 237.085 131.016 237.467 134.174C237.849 137.333 233.586 142.264 233.586 142.264L228.982 122.624Z" fill="#ED7D2B"/>
<path d="M225.322 209.601C225.322 209.601 225.036 214.053 224.173 214.115C224.058 214.123 219.801 214.115 219.801 214.115L214.365 214.072C214.365 214.072 214.403 212.763 215.993 212.492C217.582 212.221 220.245 211.108 221.212 209.012C222.229 206.805 225.322 209.601 225.322 209.601Z" fill="#0E2644"/>
<path d="M237.429 209.633C237.429 209.633 237.143 214.085 236.281 214.147C236.167 214.155 231.908 214.147 231.908 214.147L226.473 214.103C226.473 214.103 226.511 212.795 228.1 212.524C229.689 212.252 232.352 211.14 233.319 209.044C234.336 206.831 237.429 209.633 237.429 209.633Z" fill="#0E2644"/>
<path d="M219.406 161.739C219.406 161.739 220.808 170.823 226.076 186.963C231.344 203.103 232.052 210.086 232.052 210.086L237.742 209.938C237.742 209.938 237.829 192.314 235.403 184.201C232.977 176.087 234.939 154.966 234.939 154.966L219.406 161.739Z" fill="#163560"/>
<path d="M216.651 155.422C216.651 155.422 216.419 169.114 218.759 185.925C221.099 202.737 220.273 209.871 220.273 209.871L225.951 210.072C225.951 210.072 229.377 193.265 228.426 184.85C227.474 176.435 233.135 155.992 233.135 155.992L216.651 155.422Z" fill="#1C468A"/>
<path d="M227.712 123.412L224.681 125.387L220.311 124.564C220.372 124.212 220.664 122.75 220.93 121.427L220.977 121.195C221.204 120.069 221.402 119.102 221.402 119.102L225.486 117.311L227.011 116.643C227.011 116.667 226.89 117.892 226.879 118.071C226.587 121.251 227.712 123.412 227.712 123.412Z" fill="#FFB27D"/>
<path d="M221.437 122.398C221.522 122.363 226.708 120.848 227.268 121.035C227.828 121.221 228.16 122.309 228.16 122.309L219.684 124.205C219.684 124.205 220.353 122.851 221.437 122.398Z" fill="#ED7D2B"/>
<path d="M235.31 157.154C234.424 161.153 219.811 161.597 216.051 157.955C215.623 157.541 215.607 155.615 215.775 153.017C216.101 147.943 217.133 140.312 217.181 136.411C217.224 134.544 217.437 132.684 217.816 130.854C218.268 128.593 218.893 126.37 219.684 124.205C219.684 124.205 226.826 121.914 228.161 122.309C234.591 124.213 236.197 153.155 235.31 157.154Z" fill="#F99746"/>
<path d="M215.773 153.024C216.1 147.95 217.132 140.319 217.179 136.418C217.223 134.55 217.436 132.69 217.815 130.861L222.11 130.113C222.11 130.113 226.271 147.246 215.773 153.024Z" fill="#ED7D2B"/>
<path d="M218.114 145.949C218.114 145.949 218.405 146.648 217.789 147.115C217.172 147.583 216.774 148.344 216.912 148.899C217.051 149.455 218.399 150.364 218.866 150.216C219.334 150.067 220.287 149.34 220.184 149.047C220.081 148.753 220.828 146.477 219.691 145.597C218.554 144.718 218.114 145.949 218.114 145.949Z" fill="#FFB27D"/>
<path d="M222.964 123.185C222.964 123.185 218.775 123.959 215.428 128.864C212.081 133.769 209.878 137.421 210.488 139.188C211.098 140.954 216.688 147.113 217.654 147.114C218.619 147.116 220.18 146.419 220.271 144.839C220.271 144.839 216.34 138.924 217.119 138.042C217.451 137.665 222.248 133.791 222.928 135.541C224.054 138.452 222.964 123.185 222.964 123.185Z" fill="#F99746"/>
<path d="M226.57 118.127C225.67 119.643 222.326 120.948 220.932 121.427L220.979 121.195C221.206 120.068 221.403 119.102 221.403 119.102L225.488 117.31C226.392 117.3 226.942 117.504 226.57 118.127Z" fill="#FCA56B"/>
<path d="M219.867 118.851C219.867 118.851 226.439 120.915 227.663 116.805C228.887 112.695 230.562 110.195 226.414 108.703C222.266 107.212 220.983 108.536 220.241 109.808C219.499 111.08 218.185 118.208 219.867 118.851Z" fill="#FFB27D"/>
<path d="M220.498 109.413C220.498 109.413 220.906 114.198 221.897 113.993C222.888 113.787 223.787 113.635 223.639 115.078C223.492 116.52 222.113 118.182 225.165 118.444C228.217 118.706 232.623 110.85 231.788 109.36C229.378 105.057 217.011 104.163 220.498 109.413Z" fill="#163560"/>
<path d="M273.532 96.9842C273.488 97.0277 273.458 97.0833 273.446 97.1439C273.433 97.2045 273.439 97.2673 273.463 97.3245C273.487 97.3816 273.527 97.4305 273.578 97.4648C273.629 97.4992 273.69 97.5176 273.752 97.5176C273.814 97.5176 273.874 97.4992 273.925 97.4648C273.977 97.4305 274.017 97.3816 274.04 97.3245C274.064 97.2673 274.07 97.2045 274.058 97.1439C274.046 97.0833 274.016 97.0277 273.972 96.9842C273.913 96.9261 273.834 96.8936 273.752 96.8936C273.669 96.8936 273.59 96.9261 273.532 96.9842V96.9842Z" fill="#D5E5FB"/>
<path d="M274.549 98.0096C274.505 98.0532 274.475 98.1088 274.463 98.1693C274.451 98.2299 274.457 98.2928 274.481 98.3499C274.504 98.407 274.544 98.4559 274.596 98.4903C274.647 98.5247 274.707 98.543 274.769 98.543C274.831 98.543 274.892 98.5247 274.943 98.4903C274.994 98.4559 275.034 98.407 275.058 98.3499C275.082 98.2928 275.088 98.2299 275.075 98.1693C275.063 98.1088 275.033 98.0532 274.989 98.0096C274.961 97.9807 274.926 97.9578 274.888 97.9422C274.851 97.9265 274.81 97.9185 274.769 97.9185C274.728 97.9185 274.688 97.9265 274.65 97.9422C274.612 97.9578 274.578 97.9807 274.549 98.0096V98.0096Z" fill="#D5E5FB"/>
<path d="M276.018 99.0482C275.975 99.0044 275.919 98.9744 275.858 98.9622C275.798 98.95 275.735 98.956 275.678 98.9796C275.62 99.0031 275.572 99.0431 275.537 99.0945C275.503 99.1458 275.484 99.2063 275.484 99.2681C275.484 99.3299 275.503 99.3903 275.537 99.4416C275.572 99.493 275.62 99.533 275.678 99.5565C275.735 99.5801 275.798 99.5861 275.858 99.5739C275.919 99.5617 275.975 99.5318 276.018 99.4879C276.076 99.4295 276.109 99.3504 276.109 99.2681C276.109 99.1857 276.076 99.1067 276.018 99.0482V99.0482Z" fill="#D5E5FB"/>
<path d="M276.607 100.084C276.564 100.128 276.534 100.184 276.522 100.244C276.51 100.305 276.516 100.367 276.539 100.425C276.563 100.482 276.603 100.53 276.654 100.565C276.706 100.599 276.766 100.617 276.828 100.617C276.89 100.617 276.95 100.599 277.001 100.565C277.053 100.53 277.093 100.482 277.116 100.425C277.14 100.367 277.146 100.305 277.134 100.244C277.122 100.184 277.092 100.128 277.049 100.084C276.99 100.026 276.911 99.9932 276.828 99.9932C276.745 99.9932 276.666 100.026 276.607 100.084V100.084Z" fill="#D5E5FB"/>
<path d="M277.623 101.11C277.579 101.154 277.549 101.209 277.537 101.27C277.525 101.33 277.531 101.393 277.555 101.45C277.579 101.507 277.619 101.556 277.67 101.59C277.721 101.624 277.782 101.643 277.844 101.643C277.905 101.643 277.966 101.624 278.017 101.59C278.068 101.556 278.108 101.507 278.132 101.45C278.156 101.393 278.162 101.33 278.15 101.27C278.138 101.209 278.108 101.154 278.064 101.11C278.035 101.081 278.001 101.058 277.963 101.042C277.925 101.026 277.885 101.018 277.844 101.018C277.803 101.018 277.762 101.026 277.724 101.042C277.686 101.058 277.652 101.081 277.623 101.11V101.11Z" fill="#D5E5FB"/>
<path d="M279.092 102.15C279.049 102.106 278.993 102.076 278.933 102.064C278.872 102.052 278.809 102.058 278.752 102.081C278.695 102.105 278.646 102.145 278.611 102.196C278.577 102.247 278.559 102.308 278.559 102.37C278.559 102.431 278.577 102.492 278.611 102.543C278.646 102.595 278.695 102.635 278.752 102.658C278.809 102.682 278.872 102.688 278.933 102.675C278.993 102.663 279.049 102.633 279.092 102.589C279.151 102.531 279.183 102.452 279.183 102.37C279.183 102.287 279.151 102.208 279.092 102.15V102.15Z" fill="#D5E5FB"/>
<path d="M279.639 103.144C279.595 103.187 279.565 103.243 279.553 103.304C279.541 103.364 279.547 103.427 279.57 103.484C279.594 103.541 279.634 103.59 279.685 103.624C279.737 103.659 279.797 103.677 279.859 103.677C279.921 103.677 279.981 103.659 280.033 103.624C280.084 103.59 280.124 103.541 280.148 103.484C280.171 103.427 280.178 103.364 280.165 103.304C280.153 103.243 280.123 103.187 280.079 103.144C280.021 103.086 279.942 103.053 279.859 103.053C279.777 103.053 279.698 103.086 279.639 103.144Z" fill="#D5E5FB"/>
<path d="M280.657 104.168C280.613 104.211 280.583 104.267 280.571 104.327C280.558 104.388 280.564 104.451 280.588 104.508C280.612 104.565 280.652 104.614 280.703 104.648C280.754 104.683 280.815 104.701 280.877 104.701C280.939 104.701 280.999 104.683 281.05 104.648C281.102 104.614 281.142 104.565 281.165 104.508C281.189 104.451 281.195 104.388 281.183 104.327C281.171 104.267 281.141 104.211 281.097 104.168C281.038 104.11 280.959 104.077 280.877 104.077C280.794 104.077 280.715 104.11 280.657 104.168V104.168Z" fill="#D5E5FB"/>
<path d="M282.127 105.208C282.083 105.165 282.028 105.135 281.967 105.123C281.906 105.111 281.844 105.117 281.787 105.14C281.73 105.164 281.681 105.204 281.646 105.255C281.612 105.307 281.594 105.367 281.594 105.429C281.594 105.49 281.612 105.551 281.646 105.602C281.681 105.653 281.73 105.693 281.787 105.717C281.844 105.741 281.906 105.747 281.967 105.735C282.028 105.723 282.083 105.693 282.127 105.649C282.185 105.591 282.218 105.511 282.218 105.429C282.218 105.346 282.185 105.267 282.127 105.208V105.208Z" fill="#D5E5FB"/>
<path d="M282.719 106.244C282.675 106.288 282.645 106.343 282.633 106.404C282.621 106.464 282.627 106.527 282.651 106.584C282.674 106.641 282.714 106.69 282.766 106.724C282.817 106.759 282.877 106.777 282.939 106.777C283.001 106.777 283.061 106.759 283.113 106.724C283.164 106.69 283.204 106.641 283.228 106.584C283.251 106.527 283.258 106.464 283.245 106.404C283.233 106.343 283.204 106.288 283.16 106.244C283.101 106.186 283.022 106.153 282.939 106.153C282.856 106.153 282.777 106.186 282.719 106.244V106.244Z" fill="#D5E5FB"/>
<path d="M283.73 107.269C283.687 107.312 283.657 107.368 283.645 107.428C283.633 107.489 283.639 107.552 283.662 107.609C283.686 107.666 283.726 107.714 283.777 107.749C283.829 107.783 283.889 107.801 283.951 107.801C284.013 107.801 284.073 107.783 284.124 107.749C284.176 107.714 284.216 107.666 284.24 107.609C284.263 107.552 284.269 107.489 284.257 107.428C284.245 107.368 284.215 107.312 284.172 107.269C284.113 107.21 284.034 107.177 283.951 107.177C283.868 107.177 283.789 107.21 283.73 107.269Z" fill="#D5E5FB"/>
<path d="M285.201 108.308C285.158 108.265 285.102 108.235 285.041 108.223C284.981 108.211 284.918 108.217 284.861 108.241C284.804 108.264 284.755 108.304 284.721 108.355C284.686 108.407 284.668 108.467 284.668 108.529C284.668 108.591 284.686 108.651 284.721 108.702C284.755 108.753 284.804 108.793 284.861 108.817C284.918 108.841 284.981 108.847 285.041 108.835C285.102 108.823 285.158 108.793 285.201 108.749C285.26 108.691 285.293 108.611 285.293 108.529C285.293 108.446 285.26 108.367 285.201 108.308Z" fill="#D5E5FB"/>
<path d="M261.173 100.148C261.113 100.134 261.05 100.138 260.992 100.16C260.935 100.182 260.885 100.221 260.849 100.271C260.813 100.321 260.793 100.381 260.791 100.443C260.789 100.505 260.806 100.565 260.839 100.618C260.872 100.67 260.92 100.711 260.976 100.737C261.033 100.762 261.095 100.77 261.156 100.759C261.217 100.749 261.274 100.72 261.318 100.678C261.363 100.635 261.394 100.58 261.408 100.52C261.417 100.48 261.419 100.439 261.412 100.399C261.405 100.358 261.39 100.32 261.369 100.285C261.347 100.25 261.318 100.22 261.285 100.197C261.251 100.173 261.213 100.156 261.173 100.148V100.148Z" fill="#D5E5FB"/>
<path d="M260.846 101.55C260.786 101.536 260.723 101.54 260.665 101.561C260.607 101.583 260.557 101.622 260.521 101.672C260.485 101.722 260.465 101.782 260.463 101.843C260.461 101.905 260.477 101.966 260.51 102.019C260.543 102.071 260.59 102.112 260.647 102.138C260.703 102.163 260.766 102.171 260.827 102.161C260.888 102.151 260.944 102.123 260.989 102.081C261.034 102.038 261.066 101.984 261.079 101.924C261.098 101.843 261.084 101.759 261.04 101.688C260.996 101.618 260.927 101.568 260.846 101.55Z" fill="#D5E5FB"/>
<path d="M260.755 103.349C260.769 103.289 260.765 103.226 260.743 103.168C260.721 103.111 260.682 103.061 260.632 103.025C260.582 102.989 260.522 102.969 260.46 102.967C260.398 102.966 260.337 102.982 260.285 103.015C260.233 103.048 260.191 103.095 260.166 103.152C260.141 103.208 260.133 103.27 260.143 103.331C260.153 103.392 260.181 103.448 260.224 103.493C260.266 103.538 260.321 103.57 260.381 103.583C260.421 103.593 260.463 103.594 260.503 103.588C260.544 103.581 260.583 103.566 260.617 103.545C260.652 103.523 260.682 103.494 260.706 103.461C260.73 103.427 260.746 103.389 260.755 103.349Z" fill="#D5E5FB"/>
<path d="M260.194 104.4C260.134 104.386 260.071 104.39 260.013 104.412C259.955 104.433 259.905 104.472 259.869 104.522C259.833 104.572 259.813 104.632 259.811 104.694C259.809 104.755 259.825 104.816 259.858 104.869C259.89 104.921 259.938 104.963 259.994 104.988C260.051 105.013 260.113 105.022 260.174 105.011C260.235 105.001 260.292 104.973 260.337 104.931C260.382 104.889 260.413 104.834 260.427 104.774C260.446 104.693 260.432 104.609 260.388 104.539C260.344 104.468 260.274 104.419 260.194 104.4V104.4Z" fill="#D5E5FB"/>
<path d="M259.871 105.806C259.81 105.792 259.747 105.796 259.69 105.818C259.632 105.84 259.582 105.879 259.546 105.929C259.51 105.979 259.49 106.039 259.488 106.101C259.487 106.163 259.503 106.224 259.536 106.276C259.569 106.328 259.617 106.37 259.673 106.395C259.73 106.42 259.792 106.428 259.853 106.417C259.914 106.407 259.971 106.379 260.016 106.336C260.06 106.294 260.092 106.239 260.105 106.178C260.114 106.139 260.116 106.097 260.109 106.057C260.102 106.017 260.087 105.978 260.065 105.943C260.044 105.909 260.015 105.879 259.982 105.855C259.948 105.832 259.911 105.815 259.871 105.806V105.806Z" fill="#D5E5FB"/>
<path d="M259.777 107.605C259.791 107.545 259.786 107.482 259.764 107.425C259.742 107.367 259.704 107.317 259.653 107.281C259.603 107.246 259.543 107.226 259.482 107.224C259.42 107.222 259.359 107.238 259.307 107.271C259.254 107.304 259.213 107.352 259.188 107.408C259.162 107.464 259.154 107.527 259.165 107.588C259.175 107.648 259.203 107.705 259.245 107.75C259.288 107.795 259.342 107.826 259.403 107.84C259.483 107.858 259.568 107.843 259.638 107.8C259.708 107.756 259.758 107.686 259.777 107.605V107.605Z" fill="#D5E5FB"/>
<path d="M259.226 108.595C259.166 108.582 259.103 108.586 259.045 108.608C258.987 108.63 258.937 108.668 258.902 108.719C258.866 108.769 258.846 108.829 258.844 108.89C258.842 108.952 258.859 109.013 258.891 109.065C258.924 109.117 258.972 109.159 259.028 109.184C259.084 109.209 259.147 109.217 259.208 109.207C259.269 109.197 259.325 109.169 259.37 109.126C259.415 109.084 259.447 109.029 259.46 108.969C259.479 108.889 259.464 108.804 259.42 108.734C259.376 108.664 259.306 108.614 259.226 108.595Z" fill="#D5E5FB"/>
<path d="M258.903 110.001C258.842 109.986 258.779 109.99 258.72 110.011C258.662 110.033 258.611 110.071 258.575 110.121C258.539 110.171 258.518 110.231 258.516 110.294C258.514 110.356 258.53 110.417 258.563 110.47C258.596 110.522 258.644 110.564 258.701 110.589C258.757 110.614 258.821 110.622 258.882 110.612C258.943 110.601 259 110.572 259.044 110.529C259.089 110.486 259.12 110.431 259.133 110.37C259.15 110.291 259.135 110.208 259.092 110.139C259.049 110.07 258.981 110.021 258.903 110.001Z" fill="#D5E5FB"/>
<path d="M258.81 111.798C258.824 111.738 258.819 111.675 258.798 111.618C258.776 111.56 258.737 111.51 258.687 111.474C258.636 111.438 258.576 111.418 258.515 111.417C258.453 111.415 258.392 111.431 258.34 111.464C258.287 111.497 258.246 111.544 258.221 111.601C258.195 111.657 258.187 111.72 258.198 111.78C258.208 111.841 258.236 111.898 258.278 111.943C258.321 111.987 258.376 112.019 258.436 112.033C258.516 112.051 258.601 112.036 258.671 111.992C258.741 111.949 258.791 111.879 258.81 111.798Z" fill="#D5E5FB"/>
<path d="M258.247 112.849C258.187 112.835 258.124 112.839 258.066 112.861C258.009 112.883 257.959 112.922 257.923 112.972C257.887 113.022 257.867 113.082 257.865 113.144C257.864 113.205 257.88 113.266 257.913 113.319C257.946 113.371 257.993 113.412 258.05 113.437C258.106 113.463 258.169 113.471 258.229 113.46C258.29 113.45 258.347 113.422 258.392 113.38C258.437 113.337 258.468 113.283 258.482 113.223C258.491 113.183 258.493 113.141 258.486 113.101C258.479 113.06 258.464 113.022 258.443 112.987C258.421 112.952 258.392 112.922 258.359 112.898C258.325 112.875 258.287 112.858 258.247 112.849V112.849Z" fill="#D5E5FB"/>
<path d="M257.924 114.253C257.864 114.239 257.801 114.243 257.743 114.265C257.685 114.287 257.635 114.325 257.599 114.375C257.563 114.426 257.543 114.485 257.541 114.547C257.539 114.609 257.556 114.67 257.588 114.722C257.621 114.775 257.668 114.816 257.725 114.841C257.781 114.867 257.844 114.875 257.905 114.865C257.966 114.855 258.022 114.827 258.067 114.784C258.112 114.742 258.144 114.687 258.158 114.627C258.176 114.547 258.162 114.462 258.118 114.392C258.075 114.322 258.005 114.272 257.924 114.253V114.253Z" fill="#D5E5FB"/>
<path d="M257.829 116.052C257.843 115.992 257.839 115.929 257.817 115.871C257.796 115.813 257.757 115.763 257.707 115.727C257.657 115.691 257.597 115.671 257.535 115.669C257.473 115.667 257.412 115.683 257.36 115.716C257.308 115.749 257.266 115.796 257.241 115.853C257.215 115.909 257.207 115.971 257.217 116.032C257.227 116.093 257.255 116.15 257.298 116.195C257.34 116.24 257.395 116.271 257.455 116.285C257.495 116.294 257.536 116.296 257.577 116.289C257.617 116.282 257.656 116.268 257.691 116.246C257.725 116.225 257.756 116.196 257.779 116.163C257.803 116.13 257.82 116.092 257.829 116.052V116.052Z" fill="#D5E5FB"/>
<path d="M273.005 90.0962C273.005 88.7518 272.606 87.4375 271.859 86.3196C271.111 85.2017 270.049 84.3303 268.806 83.8156C267.563 83.301 266.195 83.1662 264.875 83.4283C263.555 83.6904 262.343 84.3377 261.391 85.2882C260.44 86.2387 259.792 87.4498 259.529 88.7683C259.267 90.0869 259.401 91.4536 259.916 92.6956C260.431 93.9377 261.303 94.9993 262.422 95.7463C263.541 96.4932 264.856 96.8919 266.202 96.8919C268.005 96.8915 269.735 96.1755 271.011 94.9011C272.287 93.6268 273.004 91.8985 273.005 90.0962V90.0962Z" fill="#C6DCF7"/>
<path d="M268.386 87.3709C268.386 86.9394 268.258 86.5177 268.018 86.1589C267.778 85.8002 267.437 85.5206 267.038 85.3555C266.639 85.1904 266.2 85.1472 265.777 85.2314C265.353 85.3155 264.964 85.5233 264.659 85.8284C264.354 86.1335 264.146 86.5221 264.061 86.9453C263.977 87.3684 264.02 87.8071 264.186 88.2057C264.351 88.6043 264.631 88.9449 264.99 89.1846C265.349 89.4243 265.771 89.5523 266.203 89.5523C266.49 89.5524 266.774 89.4961 267.039 89.3866C267.304 89.277 267.544 89.1163 267.747 88.9137C267.95 88.7111 268.111 88.4706 268.22 88.2059C268.33 87.9411 268.386 87.6574 268.386 87.3709V87.3709Z" fill="#EBF3FA"/>
<path d="M266.202 89.5522C267.216 89.5522 268.187 89.9545 268.904 90.6705C269.621 91.3864 270.023 92.3575 270.023 93.37H262.381C262.381 92.3575 262.783 91.3864 263.5 90.6705C264.217 89.9545 265.189 89.5522 266.202 89.5522V89.5522Z" fill="#EBF3FA"/>
<path d="M282.781 111.072L282.528 110.448C282.396 110.121 282.169 109.841 281.877 109.644C281.584 109.447 281.239 109.342 280.886 109.342H276.236V124.876H295.474V112.291H284.589C284.2 112.291 283.82 112.175 283.498 111.958C283.176 111.74 282.926 111.432 282.781 111.072V111.072Z" fill="#C6DCF7"/>
<path d="M288.732 116.434H288.089C288.108 116.328 288.118 116.22 288.118 116.112V115.899C288.118 115.412 287.924 114.944 287.58 114.598C287.235 114.253 286.768 114.058 286.28 114.056H285.15C284.663 114.058 284.195 114.253 283.851 114.599C283.507 114.944 283.314 115.412 283.314 115.899V116.119C283.314 116.227 283.323 116.334 283.341 116.44H282.627C282.448 116.44 282.276 116.511 282.149 116.638C282.022 116.765 281.951 116.937 281.951 117.116V120.062C281.951 120.863 282.27 121.631 282.837 122.197C283.403 122.764 284.172 123.082 284.974 123.082H286.758C287.131 123.082 287.5 123.009 287.845 122.866C288.19 122.724 288.503 122.515 288.767 122.251C289.031 121.988 289.24 121.675 289.383 121.331C289.525 120.987 289.599 120.618 289.599 120.245V117.305C289.6 117.191 289.578 117.078 289.534 116.972C289.491 116.866 289.427 116.77 289.347 116.689C289.266 116.608 289.17 116.544 289.065 116.5C288.959 116.456 288.846 116.434 288.732 116.434V116.434ZM285.991 119.398V120.77C285.991 120.827 285.968 120.882 285.928 120.923C285.887 120.963 285.832 120.986 285.775 120.986C285.718 120.986 285.663 120.963 285.622 120.923C285.582 120.882 285.559 120.827 285.559 120.77V119.401C285.319 119.348 285.108 119.208 284.965 119.009C284.822 118.81 284.758 118.565 284.785 118.321C284.812 118.077 284.927 117.852 285.11 117.688C285.293 117.525 285.53 117.434 285.775 117.434C286.02 117.434 286.257 117.525 286.44 117.688C286.623 117.852 286.738 118.077 286.765 118.321C286.792 118.565 286.728 118.81 286.585 119.009C286.442 119.208 286.231 119.348 285.991 119.401V119.398ZM287.383 116.107C287.383 116.216 287.367 116.324 287.335 116.428H284.096C284.064 116.324 284.048 116.216 284.048 116.107V115.899C284.048 115.607 284.164 115.327 284.371 115.12C284.577 114.913 284.858 114.797 285.15 114.797H286.277C286.57 114.797 286.85 114.913 287.057 115.12C287.264 115.327 287.38 115.607 287.38 115.899L287.383 116.107Z" fill="#EBF3FA"/>
<path d="M250.248 125.699C250.248 129.169 256.13 135.506 256.13 135.506C256.13 135.506 262.012 129.169 262.012 125.699C262.012 122.229 259.377 119.417 256.13 119.417C252.883 119.417 250.248 122.229 250.248 125.699ZM252.717 125.062C252.717 124.387 252.918 123.728 253.293 123.167C253.668 122.606 254.201 122.169 254.825 121.911C255.449 121.652 256.136 121.585 256.798 121.717C257.46 121.848 258.069 122.173 258.546 122.651C259.023 123.128 259.348 123.736 259.48 124.397C259.612 125.059 259.544 125.745 259.285 126.368C259.027 126.992 258.589 127.524 258.027 127.899C257.466 128.274 256.805 128.473 256.13 128.473C255.682 128.473 255.238 128.385 254.824 128.213C254.41 128.042 254.033 127.791 253.716 127.474C253.4 127.157 253.148 126.781 252.977 126.367C252.805 125.953 252.717 125.51 252.717 125.062V125.062Z" fill="#C6DCF7"/>
<path d="M343.594 214.01H0.405841C0.181701 214.01 0 214.191 0 214.415V214.594C0 214.818 0.181701 215 0.405841 215H343.594C343.818 215 344 214.818 344 214.594V214.415C344 214.191 343.818 214.01 343.594 214.01Z" fill="#233862"/>
<path d="M114.35 123.228C114.205 122.629 114.467 122.158 115.023 122.158C115.579 122.158 116.063 122.62 116.209 123.225C116.355 123.831 116.094 124.294 115.536 124.296C114.977 124.297 114.497 123.834 114.35 123.228ZM115.737 123.228C115.646 122.853 115.392 122.57 115.117 122.57C114.841 122.57 114.729 122.845 114.823 123.228C114.917 123.611 115.164 123.886 115.442 123.886C115.72 123.886 115.83 123.607 115.737 123.225V123.228Z" fill="#F99746"/>
<path d="M106.315 107.692L105.971 107.782L105.785 107.409L106.344 107.231H106.657L107.162 109.314H106.708L106.315 107.692Z" fill="#2F539B"/>
<path d="M107.946 108.277C107.801 107.678 108.063 107.208 108.619 107.207C109.175 107.205 109.659 107.669 109.805 108.274C109.951 108.88 109.69 109.345 109.132 109.345C108.573 109.345 108.093 108.882 107.946 108.277ZM109.333 108.277C109.242 107.902 108.988 107.619 108.712 107.619C108.437 107.619 108.325 107.894 108.419 108.277C108.512 108.66 108.76 108.935 109.038 108.935C109.316 108.935 109.425 108.659 109.333 108.276V108.277Z" fill="#2F539B"/>
<path d="M117.748 137.043C117.603 136.443 117.866 135.973 118.422 135.972C118.978 135.97 119.46 136.434 119.608 137.039C119.755 137.645 119.493 138.11 118.934 138.11C118.376 138.11 117.889 137.649 117.748 137.043ZM119.135 137.043C119.044 136.668 118.791 136.385 118.515 136.385C118.24 136.385 118.128 136.66 118.22 137.043C118.312 137.426 118.563 137.702 118.841 137.702C119.119 137.702 119.223 137.421 119.129 137.041L119.135 137.043Z" fill="#2F539B"/>
<path d="M108.673 117.42L108.33 117.509L108.145 117.137L108.702 116.959H109.016L109.52 119.04H109.066L108.673 117.42Z" fill="#2F539B"/>
<path d="M110.303 118.006C110.158 117.405 110.422 116.935 110.978 116.934C111.534 116.933 112.016 117.396 112.163 118.002C112.311 118.607 112.049 119.072 111.49 119.072C110.931 119.072 110.45 118.61 110.303 118.006ZM111.69 118.006C111.6 117.631 111.345 117.347 111.07 117.347C110.794 117.347 110.682 117.623 110.776 118.006C110.87 118.389 111.117 118.664 111.395 118.664C111.673 118.664 111.783 118.384 111.686 118.006H111.69Z" fill="#2F539B"/>
<path d="M110.032 112.526L109.688 112.616L109.502 112.243L110.059 112.065H110.369L110.874 114.148H110.419L110.032 112.526Z" fill="#F99746"/>
<path d="M111.662 113.111C111.517 112.512 111.78 112.042 112.336 112.041C112.892 112.039 113.374 112.503 113.522 113.108C113.669 113.714 113.407 114.178 112.848 114.178C112.29 114.178 111.809 113.716 111.662 113.111ZM113.049 113.111C112.958 112.736 112.705 112.453 112.429 112.453C112.154 112.453 112.042 112.728 112.134 113.111C112.226 113.494 112.477 113.769 112.755 113.769C113.033 113.769 113.137 113.49 113.049 113.11V113.111Z" fill="#F99746"/>
<path d="M109.939 122.647L109.596 122.737L109.41 122.364L109.968 122.187H110.281L110.786 124.269H110.333L109.939 122.647Z" fill="#2F539B"/>
<path d="M111.571 123.233C111.426 122.633 111.688 122.163 112.244 122.162C112.8 122.16 113.282 122.624 113.43 123.229C113.577 123.835 113.315 124.3 112.757 124.3C112.198 124.3 111.717 123.838 111.571 123.233ZM112.957 123.233C112.866 122.858 112.613 122.575 112.337 122.575C112.062 122.575 111.95 122.85 112.042 123.233C112.135 123.616 112.385 123.891 112.663 123.891C112.941 123.891 113.049 123.611 112.957 123.231V123.233Z" fill="#2F539B"/>
<path d="M115.83 108.275C115.685 107.675 115.948 107.205 116.504 107.204C117.06 107.202 117.542 107.666 117.69 108.271C117.837 108.877 117.575 109.342 117.016 109.342C116.458 109.342 115.977 108.88 115.83 108.275ZM117.217 108.275C117.126 107.9 116.873 107.617 116.597 107.617C116.322 107.617 116.21 107.892 116.302 108.275C116.394 108.658 116.645 108.933 116.923 108.933C117.201 108.933 117.309 108.658 117.221 108.273L117.217 108.275Z" fill="#F99746"/>
<path d="M111.423 107.695L111.08 107.783L110.895 107.412L111.452 107.233H111.766L112.27 109.316H111.818L111.423 107.695Z" fill="#2F539B"/>
<path d="M113.052 108.279C112.905 107.68 113.169 107.21 113.725 107.209C114.281 107.208 114.763 107.671 114.911 108.277C115.058 108.882 114.797 109.346 114.237 109.347C113.677 109.348 113.198 108.885 113.052 108.279ZM114.438 108.279C114.347 107.904 114.093 107.621 113.818 107.621C113.544 107.621 113.423 107.896 113.523 108.279C113.623 108.662 113.866 108.938 114.144 108.938C114.422 108.938 114.53 108.658 114.438 108.277V108.279Z" fill="#2F539B"/>
<path d="M116.77 133.327C116.625 132.726 116.887 132.256 117.443 132.255C117.999 132.254 118.483 132.717 118.629 133.323C118.775 133.928 118.514 134.393 117.956 134.393C117.397 134.393 116.917 133.935 116.77 133.327ZM118.157 133.327C118.066 132.951 117.812 132.668 117.537 132.668C117.261 132.668 117.149 132.943 117.243 133.327C117.336 133.71 117.584 133.985 117.862 133.985C118.14 133.985 118.25 133.704 118.157 133.324V133.327Z" fill="#F99746"/>
<path d="M111.093 127.518L110.75 127.606L110.564 127.235L111.122 127.056H111.435L111.94 129.139H111.485L111.093 127.518Z" fill="#2F539B"/>
<path d="M112.725 128.103C112.579 127.504 112.843 127.034 113.397 127.033C113.952 127.031 114.437 127.495 114.583 128.1C114.73 128.706 114.469 129.169 113.91 129.171C113.351 129.172 112.873 128.709 112.725 128.103ZM114.112 128.103C114.021 127.728 113.766 127.445 113.491 127.445C113.216 127.445 113.104 127.72 113.197 128.103C113.291 128.486 113.538 128.761 113.816 128.761C114.094 128.761 114.204 128.482 114.112 128.1V128.103Z" fill="#2F539B"/>
<path d="M115.508 128.099C115.363 127.499 115.625 127.029 116.181 127.027C116.737 127.026 117.22 127.489 117.367 128.095C117.515 128.701 117.254 129.165 116.694 129.165C116.134 129.165 115.65 128.703 115.508 128.099ZM116.894 128.099C116.803 127.724 116.549 127.441 116.275 127.441C116.001 127.441 115.888 127.716 115.98 128.099C116.072 128.482 116.322 128.757 116.6 128.757C116.878 128.757 116.983 128.477 116.89 128.096L116.894 128.099Z" fill="#2F539B"/>
<path d="M118.497 127.505L118.153 127.595L117.967 127.222L118.525 127.044H118.839L119.344 129.126H118.889L118.497 127.505Z" fill="#2F539B"/>
<path d="M112.36 132.75L112.018 132.84L111.832 132.469L112.389 132.29H112.703L113.208 134.371H112.754L112.36 132.75Z" fill="#2F539B"/>
<path d="M113.991 133.331C113.846 132.732 114.108 132.26 114.664 132.26C115.22 132.26 115.702 132.722 115.85 133.328C115.997 133.934 115.735 134.397 115.176 134.398C114.618 134.4 114.137 133.935 113.991 133.331ZM115.377 133.331C115.286 132.955 115.033 132.672 114.757 132.672C114.482 132.672 114.37 132.947 114.462 133.331C114.554 133.714 114.805 133.989 115.083 133.989C115.361 133.989 115.469 133.71 115.375 133.328L115.377 133.331Z" fill="#2F539B"/>
<path d="M119.227 144.917C119.082 144.318 119.345 143.847 119.9 143.847C120.455 143.847 120.94 144.309 121.086 144.914C121.232 145.52 120.971 145.983 120.413 145.985C119.854 145.986 119.374 145.52 119.227 144.917ZM120.614 144.917C120.523 144.542 120.269 144.259 119.994 144.259C119.718 144.259 119.606 144.534 119.7 144.917C119.793 145.3 120.041 145.575 120.319 145.575C120.597 145.575 120.706 145.296 120.614 144.914V144.917Z" fill="#2F539B"/>
<path d="M122.227 144.325L121.883 144.413L121.697 144.041L122.255 143.864H122.57L123.074 145.946H122.62L122.227 144.325Z" fill="#2F539B"/>
<path d="M114.819 144.335L114.475 144.425L114.289 144.052L114.846 143.875H115.161L115.666 145.956H115.211L114.819 144.335Z" fill="#2F539B"/>
<path d="M116.45 144.922C116.305 144.322 116.567 143.852 117.123 143.851C117.679 143.849 118.162 144.313 118.309 144.918C118.455 145.524 118.194 145.989 117.635 145.99C117.077 145.991 116.596 145.526 116.45 144.922ZM117.836 144.922C117.746 144.547 117.492 144.264 117.216 144.264C116.941 144.264 116.829 144.539 116.921 144.922C117.013 145.305 117.264 145.58 117.542 145.58C117.82 145.58 117.929 145.3 117.836 144.92V144.922Z" fill="#2F539B"/>
<path d="M123.852 144.909C123.707 144.31 123.969 143.84 124.525 143.839C125.081 143.838 125.564 144.301 125.711 144.907C125.859 145.512 125.596 145.976 125.038 145.977C124.479 145.978 123.999 145.52 123.852 144.909ZM125.239 144.909C125.148 144.535 124.894 144.251 124.619 144.251C124.343 144.251 124.231 144.526 124.324 144.909C124.416 145.292 124.666 145.567 124.944 145.567C125.222 145.567 125.332 145.288 125.239 144.907V144.909Z" fill="#F99746"/>
<path d="M126.631 144.905C126.486 144.305 126.75 143.835 127.304 143.833C127.859 143.832 128.344 144.296 128.49 144.901C128.637 145.507 128.376 145.971 127.817 145.971C127.258 145.971 126.779 145.509 126.631 144.905ZM128.019 144.905C127.928 144.53 127.673 144.247 127.398 144.247C127.123 144.247 127.011 144.522 127.104 144.905C127.198 145.288 127.445 145.563 127.723 145.563C128.001 145.563 128.111 145.283 128.019 144.902V144.905Z" fill="#F99746"/>
<path d="M115.793 148.645C115.648 148.046 115.911 147.577 116.467 147.575C117.023 147.574 117.506 148.037 117.652 148.643C117.799 149.248 117.538 149.712 116.979 149.713C116.42 149.714 115.941 149.251 115.793 148.645ZM117.181 148.645C117.09 148.272 116.836 147.987 116.56 147.987C116.285 147.987 116.173 148.262 116.266 148.645C116.36 149.029 116.608 149.304 116.886 149.304C117.164 149.304 117.273 149.025 117.181 148.643V148.645Z" fill="#2F539B"/>
<path d="M118.786 148.053L118.444 148.143L118.258 147.77L118.815 147.592H119.129L119.633 149.675H119.18L118.786 148.053Z" fill="#2F539B"/>
<path d="M120.418 148.638C120.273 148.039 120.536 147.569 121.092 147.567C121.648 147.566 122.13 148.029 122.277 148.635C122.425 149.241 122.163 149.705 121.604 149.705C121.045 149.705 120.565 149.243 120.418 148.638ZM121.804 148.638C121.714 148.262 121.459 147.979 121.185 147.979C120.911 147.979 120.798 148.255 120.89 148.638C120.982 149.021 121.233 149.296 121.511 149.296C121.789 149.296 121.897 149.017 121.804 148.636V148.638Z" fill="#2F539B"/>
<path d="M123.196 148.633C123.051 148.033 123.313 147.563 123.869 147.563C124.425 147.563 124.909 148.025 125.055 148.629C125.201 149.234 124.94 149.7 124.382 149.701C123.823 149.702 123.342 149.239 123.196 148.633ZM124.583 148.633C124.492 148.258 124.238 147.975 123.963 147.975C123.687 147.975 123.575 148.252 123.669 148.633C123.762 149.015 124.01 149.292 124.288 149.292C124.566 149.292 124.675 149.011 124.583 148.631V148.633Z" fill="#2F539B"/>
<path d="M203.311 144.917C203.166 144.318 203.428 143.847 203.984 143.847C204.54 143.847 205.022 144.309 205.17 144.914C205.318 145.52 205.055 145.983 204.497 145.985C203.938 145.986 203.457 145.52 203.311 144.917ZM204.697 144.917C204.606 144.542 204.353 144.259 204.078 144.259C203.802 144.259 203.69 144.534 203.783 144.917C203.875 145.3 204.125 145.575 204.403 145.575C204.681 145.575 204.789 145.296 204.697 144.914V144.917Z" fill="#2F539B"/>
<path d="M206.302 144.325L205.959 144.413L205.773 144.041L206.331 143.864H206.644L207.149 145.946H206.689L206.302 144.325Z" fill="#2F539B"/>
<path d="M198.899 144.335L198.557 144.425L198.371 144.052L198.928 143.875H199.242L199.747 145.956H199.292L198.899 144.335Z" fill="#2F539B"/>
<path d="M200.532 144.922C200.386 144.322 200.649 143.852 201.205 143.851C201.761 143.849 202.244 144.313 202.391 144.918C202.539 145.524 202.278 145.989 201.718 145.99C201.158 145.991 200.678 145.526 200.532 144.922ZM201.918 144.922C201.827 144.547 201.573 144.264 201.299 144.264C201.025 144.264 200.91 144.539 201.004 144.922C201.097 145.305 201.346 145.58 201.623 145.58C201.9 145.58 202.01 145.3 201.918 144.92V144.922Z" fill="#2F539B"/>
<path d="M207.934 144.909C207.788 144.31 208.052 143.84 208.608 143.839C209.164 143.838 209.646 144.301 209.794 144.907C209.941 145.512 209.679 145.976 209.12 145.977C208.562 145.978 208.081 145.52 207.934 144.909ZM209.321 144.909C209.23 144.535 208.975 144.251 208.701 144.251C208.427 144.251 208.306 144.526 208.406 144.909C208.506 145.292 208.749 145.567 209.025 145.567C209.302 145.567 209.413 145.288 209.326 144.907L209.321 144.909Z" fill="#F99746"/>
<path d="M210.713 144.905C210.568 144.305 210.83 143.835 211.387 143.833C211.943 143.832 212.425 144.296 212.572 144.901C212.72 145.507 212.458 145.971 211.899 145.971C211.34 145.971 210.859 145.509 210.713 144.905ZM212.099 144.905C212.008 144.53 211.755 144.247 211.48 144.247C211.205 144.247 211.093 144.522 211.185 144.905C211.277 145.288 211.527 145.563 211.806 145.563C212.084 145.563 212.192 145.283 212.099 144.902V144.905Z" fill="#F99746"/>
<path d="M192.196 148.645C192.05 148.046 192.313 147.577 192.868 147.575C193.423 147.574 193.908 148.037 194.054 148.643C194.2 149.248 193.939 149.712 193.381 149.713C192.822 149.714 192.342 149.251 192.196 148.645ZM193.582 148.645C193.491 148.272 193.237 147.987 192.962 147.987C192.686 147.987 192.574 148.262 192.668 148.645C192.761 149.029 193.009 149.304 193.287 149.304C193.565 149.304 193.675 149.025 193.582 148.643V148.645Z" fill="#2F539B"/>
<path d="M195.188 148.053L194.844 148.143L194.658 147.77L195.216 147.592H195.531L196.035 149.675H195.581L195.188 148.053Z" fill="#2F539B"/>
<path d="M196.819 148.638C196.674 148.039 196.936 147.569 197.492 147.567C198.048 147.566 198.532 148.029 198.678 148.635C198.824 149.241 198.563 149.705 198.005 149.705C197.446 149.705 196.966 149.243 196.819 148.638ZM198.206 148.638C198.115 148.262 197.861 147.979 197.586 147.979C197.31 147.979 197.198 148.255 197.292 148.638C197.385 149.021 197.633 149.296 197.911 149.296C198.189 149.296 198.298 149.017 198.206 148.636V148.638Z" fill="#2F539B"/>
<path d="M199.598 148.633C199.453 148.033 199.716 147.563 200.271 147.563C200.826 147.563 201.311 148.025 201.457 148.629C201.603 149.234 201.342 149.7 200.784 149.701C200.225 149.702 199.745 149.239 199.598 148.633ZM200.985 148.633C200.894 148.258 200.64 147.975 200.365 147.975C200.089 147.975 199.977 148.252 200.071 148.633C200.164 149.015 200.412 149.292 200.69 149.292C200.968 149.292 201.078 149.011 200.985 148.631V148.633Z" fill="#2F539B"/>
<path d="M122.754 158.404C122.609 157.805 122.871 157.334 123.428 157.334C123.984 157.334 124.467 157.796 124.613 158.402C124.76 159.007 124.499 159.471 123.94 159.472C123.381 159.473 122.904 159.01 122.754 158.404ZM124.142 158.404C124.051 158.029 123.796 157.746 123.521 157.746C123.246 157.746 123.134 158.023 123.227 158.404C123.321 158.786 123.569 159.063 123.847 159.063C124.125 159.063 124.237 158.783 124.144 158.402L124.142 158.404Z" fill="#F99746"/>
<path d="M125.749 157.812L125.406 157.9L125.221 157.529L125.778 157.35H126.092L126.596 159.431H126.143L125.749 157.812Z" fill="#F99746"/>
<path d="M117.081 152.596L116.739 152.686L116.553 152.313L117.11 152.135H117.424L117.928 154.217H117.474L117.081 152.596Z" fill="#2F539B"/>
<path d="M118.712 153.182C118.565 152.582 118.829 152.112 119.385 152.11C119.941 152.109 120.423 152.572 120.571 153.178C120.719 153.784 120.456 154.248 119.898 154.248C119.339 154.248 118.858 153.786 118.712 153.182ZM120.098 153.182C120.007 152.807 119.753 152.524 119.477 152.524C119.202 152.524 119.09 152.799 119.183 153.182C119.277 153.565 119.525 153.84 119.803 153.84C120.081 153.84 120.19 153.56 120.098 153.179V153.182Z" fill="#2F539B"/>
<path d="M121.491 153.177C121.346 152.578 121.608 152.108 122.164 152.106C122.72 152.105 123.202 152.569 123.35 153.174C123.497 153.78 123.235 154.243 122.676 154.244C122.118 154.246 121.637 153.782 121.491 153.177ZM122.877 153.177C122.786 152.802 122.531 152.519 122.257 152.519C121.983 152.519 121.87 152.794 121.962 153.177C122.054 153.56 122.305 153.835 122.583 153.835C122.861 153.835 122.969 153.551 122.877 153.174V153.177Z" fill="#2F539B"/>
<path d="M124.483 152.584L124.14 152.672L123.953 152.301L124.512 152.122H124.825L125.33 154.205H124.875L124.483 152.584Z" fill="#2F539B"/>
<path d="M198.44 152.596L198.096 152.686L197.91 152.313L198.469 152.135H198.784L199.288 154.217H198.834L198.44 152.596Z" fill="#2F539B"/>
<path d="M200.071 153.182C199.926 152.582 200.188 152.112 200.744 152.11C201.3 152.109 201.784 152.572 201.93 153.178C202.076 153.784 201.815 154.248 201.257 154.248C200.698 154.248 200.218 153.786 200.071 153.182ZM201.458 153.182C201.367 152.807 201.113 152.524 200.837 152.524C200.562 152.524 200.45 152.799 200.544 153.182C200.637 153.565 200.885 153.84 201.163 153.84C201.441 153.84 201.552 153.56 201.458 153.179V153.182Z" fill="#2F539B"/>
<path d="M202.85 153.177C202.704 152.578 202.968 152.108 203.522 152.106C204.077 152.105 204.562 152.569 204.708 153.174C204.855 153.78 204.594 154.243 204.035 154.244C203.476 154.246 203.001 153.782 202.85 153.177ZM204.237 153.177C204.146 152.802 203.891 152.519 203.616 152.519C203.341 152.519 203.229 152.794 203.322 153.177C203.416 153.56 203.663 153.835 203.941 153.835C204.219 153.835 204.329 153.551 204.237 153.174V153.177Z" fill="#2F539B"/>
<path d="M205.842 152.584L205.498 152.672L205.312 152.301L205.87 152.122H206.185L206.689 154.209H206.235L205.842 152.584Z" fill="#2F539B"/>
<path d="M118.347 157.824L118.004 157.914L117.818 157.541L118.376 157.363H118.689L119.194 159.446H118.741L118.347 157.824Z" fill="#2F539B"/>
<path d="M119.979 158.41C119.834 157.809 120.096 157.339 120.652 157.338C121.208 157.337 121.69 157.8 121.838 158.406C121.986 159.011 121.723 159.476 121.165 159.476C120.606 159.476 120.12 159.014 119.979 158.41ZM121.365 158.41C121.274 158.034 121.021 157.751 120.746 157.751C120.47 157.751 120.358 158.026 120.451 158.41C120.543 158.793 120.793 159.068 121.071 159.068C121.349 159.068 121.457 158.787 121.365 158.407V158.41Z" fill="#2F539B"/>
<path d="M127.381 158.396C127.236 157.797 127.498 157.326 128.054 157.326C128.611 157.326 129.093 157.788 129.24 158.394C129.388 158.999 129.126 159.463 128.567 159.464C128.008 159.465 127.527 159.002 127.381 158.396ZM128.767 158.396C128.676 158.021 128.423 157.738 128.148 157.738C127.873 157.738 127.761 158.013 127.853 158.396C127.945 158.78 128.195 159.055 128.474 159.055C128.752 159.055 128.86 158.776 128.767 158.394V158.396Z" fill="#2F539B"/>
<path d="M130.16 158.391C130.016 157.792 130.278 157.322 130.834 157.321C131.39 157.319 131.873 157.783 132.02 158.388C132.166 158.994 131.905 159.459 131.346 159.459C130.788 159.459 130.308 158.997 130.16 158.391ZM131.548 158.391C131.457 158.016 131.203 157.733 130.927 157.733C130.652 157.733 130.54 158.008 130.634 158.391C130.727 158.774 130.975 159.049 131.253 159.049C131.531 159.049 131.64 158.77 131.548 158.39V158.391Z" fill="#2F539B"/>
<path d="M123.831 162.096C123.685 161.496 123.948 161.026 124.504 161.024C125.06 161.023 125.543 161.487 125.69 162.092C125.838 162.698 125.575 163.162 125.017 163.162C124.458 163.162 123.977 162.7 123.831 162.096ZM125.217 162.096C125.126 161.721 124.872 161.438 124.598 161.438C124.324 161.438 124.202 161.713 124.303 162.096C124.403 162.479 124.644 162.754 124.922 162.754C125.2 162.754 125.309 162.474 125.217 162.093V162.096Z" fill="#F99746"/>
<path d="M126.823 161.502L126.479 161.592L126.293 161.219L126.852 161.042H127.165L127.67 163.123H127.215L126.823 161.502Z" fill="#F99746"/>
<path d="M121.049 162.1C120.904 161.501 121.166 161.031 121.722 161.029C122.279 161.028 122.762 161.491 122.908 162.097C123.055 162.703 122.794 163.166 122.235 163.167C121.676 163.169 121.197 162.705 121.049 162.1ZM122.437 162.1C122.346 161.724 122.091 161.441 121.816 161.441C121.541 161.441 121.429 161.716 121.522 162.1C121.616 162.483 121.863 162.758 122.141 162.758C122.419 162.758 122.529 162.479 122.437 162.097V162.1Z" fill="#2F539B"/>
<path d="M128.453 162.088C128.308 161.487 128.571 161.017 129.127 161.016C129.683 161.015 130.166 161.478 130.313 162.084C130.459 162.689 130.198 163.154 129.639 163.155C129.081 163.157 128.601 162.693 128.453 162.088ZM129.841 162.088C129.75 161.713 129.496 161.429 129.22 161.429C128.945 161.429 128.833 161.705 128.926 162.088C129.02 162.471 129.268 162.746 129.546 162.746C129.824 162.746 129.933 162.466 129.841 162.085V162.088Z" fill="#2F539B"/>
<path d="M131.233 162.083C131.087 161.484 131.35 161.014 131.907 161.012C132.463 161.011 132.945 161.474 133.092 162.08C133.24 162.685 132.978 163.149 132.419 163.15C131.86 163.151 131.379 162.688 131.233 162.083ZM132.619 162.083C132.528 161.707 132.274 161.424 131.999 161.424C131.723 161.424 131.611 161.699 131.705 162.083C131.798 162.466 132.046 162.741 132.324 162.741C132.602 162.741 132.712 162.462 132.619 162.08V162.083Z" fill="#2F539B"/>
<path d="M140.795 162.096C140.65 161.496 140.912 161.026 141.469 161.024C142.025 161.023 142.507 161.487 142.654 162.092C142.802 162.698 142.54 163.162 141.981 163.162C141.422 163.162 140.939 162.7 140.795 162.096ZM142.181 162.096C142.092 161.721 141.837 161.438 141.562 161.438C141.287 161.438 141.175 161.713 141.267 162.096C141.359 162.479 141.61 162.754 141.888 162.754C142.166 162.754 142.275 162.474 142.181 162.093V162.096Z" fill="#F99746"/>
<path d="M143.788 161.502L143.446 161.592L143.26 161.219L143.817 161.042H144.131L144.635 163.123H144.181L143.788 161.502Z" fill="#F99746"/>
<path d="M138.016 162.1C137.871 161.501 138.133 161.031 138.689 161.029C139.245 161.028 139.728 161.491 139.875 162.097C140.023 162.703 139.761 163.166 139.202 163.167C138.643 163.169 138.162 162.705 138.016 162.1ZM139.402 162.1C139.311 161.724 139.057 161.441 138.783 161.441C138.509 161.441 138.395 161.716 138.488 162.1C138.58 162.483 138.83 162.758 139.108 162.758C139.386 162.758 139.489 162.479 139.402 162.097V162.1Z" fill="#2F539B"/>
<path d="M145.418 162.088C145.273 161.487 145.536 161.017 146.092 161.016C146.648 161.015 147.13 161.478 147.277 162.084C147.425 162.689 147.163 163.154 146.604 163.155C146.045 163.157 145.565 162.693 145.418 162.088ZM146.804 162.088C146.714 161.713 146.459 161.429 146.185 161.429C145.911 161.429 145.798 161.705 145.89 162.088C145.982 162.471 146.233 162.746 146.511 162.746C146.789 162.746 146.897 162.466 146.804 162.085V162.088Z" fill="#2F539B"/>
<path d="M148.198 162.083C148.053 161.484 148.315 161.014 148.871 161.012C149.427 161.011 149.909 161.474 150.057 162.08C150.204 162.685 149.942 163.149 149.383 163.15C148.825 163.151 148.344 162.688 148.198 162.083ZM149.584 162.083C149.493 161.707 149.24 161.424 148.964 161.424C148.689 161.424 148.577 161.699 148.669 162.083C148.762 162.466 149.012 162.741 149.29 162.741C149.568 162.741 149.676 162.462 149.584 162.08V162.083Z" fill="#2F539B"/>
<path d="M179.414 162.096C179.269 161.496 179.533 161.026 180.088 161.024C180.642 161.023 181.127 161.487 181.273 162.092C181.42 162.698 181.159 163.162 180.6 163.162C180.041 163.162 179.567 162.7 179.414 162.096ZM180.802 162.096C180.711 161.721 180.457 161.438 180.181 161.438C179.906 161.438 179.794 161.713 179.887 162.096C179.981 162.479 180.229 162.754 180.507 162.754C180.785 162.754 180.899 162.474 180.807 162.093L180.802 162.096Z" fill="#F99746"/>
<path d="M182.413 161.502L182.071 161.592L181.885 161.219L182.442 161.042H182.757L183.26 163.123H182.807L182.413 161.502Z" fill="#F99746"/>
<path d="M176.647 162.1C176.502 161.501 176.764 161.031 177.32 161.029C177.876 161.028 178.358 161.491 178.506 162.097C178.654 162.703 178.391 163.166 177.833 163.167C177.274 163.169 176.786 162.705 176.647 162.1ZM178.033 162.1C177.943 161.724 177.689 161.441 177.414 161.441C177.138 161.441 177.026 161.716 177.119 162.1C177.211 162.483 177.461 162.758 177.739 162.758C178.017 162.758 178.12 162.479 178.026 162.097L178.033 162.1Z" fill="#2F539B"/>
<path d="M184.043 162.088C183.898 161.487 184.161 161.017 184.717 161.016C185.273 161.015 185.755 161.478 185.902 162.084C186.05 162.689 185.788 163.154 185.229 163.155C184.67 163.157 184.19 162.693 184.043 162.088ZM185.429 162.088C185.339 161.713 185.086 161.429 184.81 161.429C184.535 161.429 184.423 161.705 184.515 162.088C184.607 162.471 184.858 162.746 185.136 162.746C185.414 162.746 185.523 162.466 185.429 162.085V162.088Z" fill="#2F539B"/>
<path d="M186.823 162.083C186.678 161.484 186.94 161.014 187.496 161.012C188.052 161.011 188.536 161.474 188.682 162.08C188.828 162.685 188.567 163.149 188.008 163.15C187.45 163.151 186.97 162.688 186.823 162.083ZM188.21 162.083C188.119 161.707 187.865 161.424 187.589 161.424C187.314 161.424 187.202 161.699 187.296 162.083C187.389 162.466 187.637 162.741 187.915 162.741C188.193 162.741 188.302 162.462 188.21 162.08V162.083Z" fill="#2F539B"/>
<path d="M196.385 162.096C196.24 161.496 196.502 161.026 197.058 161.024C197.614 161.023 198.097 161.487 198.244 162.092C198.392 162.698 198.13 163.162 197.571 163.162C197.012 163.162 196.531 162.7 196.385 162.096ZM197.771 162.096C197.68 161.721 197.427 161.438 197.152 161.438C196.877 161.438 196.765 161.713 196.857 162.096C196.949 162.479 197.199 162.754 197.477 162.754C197.755 162.754 197.861 162.474 197.771 162.093V162.096Z" fill="#F99746"/>
<path d="M199.378 161.502L199.035 161.592L198.85 161.219L199.407 161.042H199.721L200.225 163.123H199.771L199.378 161.502Z" fill="#F99746"/>
<path d="M193.606 162.1C193.46 161.501 193.724 161.031 194.28 161.029C194.836 161.028 195.318 161.491 195.465 162.097C195.613 162.703 195.351 163.166 194.792 163.167C194.233 163.169 193.753 162.705 193.606 162.1ZM194.992 162.1C194.902 161.724 194.647 161.441 194.373 161.441C194.099 161.441 193.978 161.716 194.078 162.1C194.178 162.483 194.419 162.758 194.697 162.758C194.975 162.758 195.085 162.479 194.992 162.097V162.1Z" fill="#2F539B"/>
<path d="M201.011 162.088C200.864 161.487 201.128 161.017 201.684 161.016C202.24 161.015 202.722 161.478 202.87 162.084C203.017 162.689 202.755 163.154 202.196 163.155C201.638 163.157 201.157 162.693 201.011 162.088ZM202.397 162.088C202.306 161.713 202.051 161.429 201.777 161.429C201.503 161.429 201.382 161.705 201.482 162.088C201.582 162.471 201.824 162.746 202.102 162.746C202.38 162.746 202.489 162.466 202.397 162.085V162.088Z" fill="#2F539B"/>
<path d="M203.791 162.083C203.646 161.484 203.909 161.014 204.465 161.012C205.021 161.011 205.503 161.474 205.651 162.08C205.798 162.685 205.537 163.149 204.979 163.15C204.42 163.151 203.935 162.688 203.791 162.083ZM205.178 162.083C205.087 161.707 204.832 161.424 204.558 161.424C204.284 161.424 204.171 161.699 204.263 162.083C204.355 162.466 204.606 162.741 204.884 162.741C205.162 162.741 205.267 162.462 205.175 162.08L205.178 162.083Z" fill="#2F539B"/>
<path d="M132.94 158.387C132.795 157.788 133.058 157.317 133.614 157.317C134.17 157.317 134.653 157.779 134.8 158.385C134.948 158.99 134.686 159.454 134.127 159.455C133.568 159.456 133.087 158.993 132.94 158.387ZM134.327 158.387C134.236 158.012 133.982 157.729 133.707 157.729C133.431 157.729 133.319 158.005 133.413 158.387C133.506 158.769 133.754 159.045 134.032 159.045C134.31 159.045 134.419 158.766 134.327 158.385V158.387Z" fill="#2F539B"/>
<path d="M135.719 158.382C135.574 157.783 135.836 157.313 136.392 157.312C136.948 157.31 137.431 157.774 137.578 158.379C137.726 158.985 137.464 159.45 136.904 159.45C136.344 159.45 135.865 158.987 135.719 158.382ZM137.105 158.382C137.014 158.007 136.76 157.724 136.486 157.724C136.212 157.724 136.099 157.999 136.191 158.382C136.283 158.765 136.533 159.04 136.811 159.04C137.089 159.04 137.197 158.761 137.105 158.381V158.382Z" fill="#2F539B"/>
<path d="M186.53 158.387C186.385 157.788 186.647 157.317 187.203 157.317C187.759 157.317 188.241 157.779 188.389 158.385C188.536 158.99 188.274 159.454 187.715 159.455C187.157 159.456 186.672 158.993 186.53 158.387ZM187.916 158.387C187.825 158.012 187.572 157.729 187.296 157.729C187.021 157.729 186.909 158.005 187.001 158.387C187.094 158.769 187.344 159.045 187.622 159.045C187.9 159.045 188.004 158.766 187.912 158.385L187.916 158.387Z" fill="#2F539B"/>
<path d="M189.305 158.382C189.16 157.783 189.422 157.313 189.978 157.312C190.534 157.31 191.018 157.774 191.164 158.379C191.31 158.985 191.05 159.45 190.491 159.45C189.932 159.45 189.453 158.987 189.305 158.382ZM190.692 158.382C190.602 158.007 190.347 157.724 190.072 157.724C189.796 157.724 189.684 157.999 189.778 158.382C189.872 158.765 190.119 159.04 190.397 159.04C190.675 159.04 190.785 158.761 190.692 158.381V158.382Z" fill="#2F539B"/>
</g>
<defs>
<clipPath id="clip0_1413_1906">
<rect width="344" height="215" fill="white"/>
</clipPath>
</defs>
</svg>
